<?xml version="1.0" encoding="utf-8"?>
<svg xmlns="http://www.w3.org/2000/svg" xmlns:xlink="http://www.w3.org/1999/xlink" width="600" height="400" viewBox="0 0 2400 1600">
<defs>
  <clipPath id="clip340">
    <rect x="0" y="0" width="2400" height="1600"/>
  </clipPath>
</defs>
<path clip-path="url(#clip340)" d="M0 1600 L2400 1600 L2400 0 L0 0  Z" fill="#ffffff" fill-rule="evenodd" fill-opacity="1"/>
<defs>
  <clipPath id="clip341">
    <rect x="480" y="0" width="1681" height="1600"/>
  </clipPath>
</defs>
<path clip-path="url(#clip340)" d="M86.9921 1521.01 L2352.76 1521.01 L2352.76 47.2441 L86.9921 47.2441  Z" fill="#ffffff" fill-rule="evenodd" fill-opacity="1"/>
<defs>
  <clipPath id="clip342">
    <rect x="86" y="47" width="2267" height="1475"/>
  </clipPath>
</defs>
<polyline clip-path="url(#clip342)" style="stroke:#000000; stroke-linecap:round; stroke-linejoin:round; stroke-width:2; stroke-opacity:0.1; fill:none" points="151.118,1521.01 151.118,47.2441 "/>
<polyline clip-path="url(#clip342)" style="stroke:#000000; stroke-linecap:round; stroke-linejoin:round; stroke-width:2; stroke-opacity:0.1; fill:none" points="863.147,1521.01 863.147,47.2441 "/>
<polyline clip-path="url(#clip342)" style="stroke:#000000; stroke-linecap:round; stroke-linejoin:round; stroke-width:2; stroke-opacity:0.1; fill:none" points="1575.18,1521.01 1575.18,47.2441 "/>
<polyline clip-path="url(#clip342)" style="stroke:#000000; stroke-linecap:round; stroke-linejoin:round; stroke-width:2; stroke-opacity:0.1; fill:none" points="2287.21,1521.01 2287.21,47.2441 "/>
<polyline clip-path="url(#clip340)" style="stroke:#000000; stroke-linecap:round; stroke-linejoin:round; stroke-width:4; stroke-opacity:1; fill:none" points="86.9921,1521.01 2352.76,1521.01 "/>
<polyline clip-path="url(#clip340)" style="stroke:#000000; stroke-linecap:round; stroke-linejoin:round; stroke-width:4; stroke-opacity:1; fill:none" points="151.118,1521.01 151.118,1502.11 "/>
<polyline clip-path="url(#clip340)" style="stroke:#000000; stroke-linecap:round; stroke-linejoin:round; stroke-width:4; stroke-opacity:1; fill:none" points="863.147,1521.01 863.147,1502.11 "/>
<polyline clip-path="url(#clip340)" style="stroke:#000000; stroke-linecap:round; stroke-linejoin:round; stroke-width:4; stroke-opacity:1; fill:none" points="1575.18,1521.01 1575.18,1502.11 "/>
<polyline clip-path="url(#clip340)" style="stroke:#000000; stroke-linecap:round; stroke-linejoin:round; stroke-width:4; stroke-opacity:1; fill:none" points="2287.21,1521.01 2287.21,1502.11 "/>
<path clip-path="url(#clip340)" d="M151.118 1551.93 Q147.506 1551.93 145.678 1555.49 Q143.872 1559.03 143.872 1566.16 Q143.872 1573.27 145.678 1576.83 Q147.506 1580.38 151.118 1580.38 Q154.752 1580.38 156.557 1576.83 Q158.386 1573.27 158.386 1566.16 Q158.386 1559.03 156.557 1555.49 Q154.752 1551.93 151.118 1551.93 M151.118 1548.22 Q156.928 1548.22 159.983 1552.83 Q163.062 1557.41 163.062 1566.16 Q163.062 1574.89 159.983 1579.5 Q156.928 1584.08 151.118 1584.08 Q145.307 1584.08 142.229 1579.5 Q139.173 1574.89 139.173 1566.16 Q139.173 1557.41 142.229 1552.83 Q145.307 1548.22 151.118 1548.22 Z" fill="#000000" fill-rule="nonzero" fill-opacity="1" /><path clip-path="url(#clip340)" d="M837.846 1548.85 L856.203 1548.85 L856.203 1552.78 L842.129 1552.78 L842.129 1561.26 Q843.147 1560.91 844.166 1560.75 Q845.184 1560.56 846.203 1560.56 Q851.99 1560.56 855.369 1563.73 Q858.749 1566.9 858.749 1572.32 Q858.749 1577.9 855.277 1581 Q851.805 1584.08 845.485 1584.08 Q843.309 1584.08 841.041 1583.71 Q838.795 1583.34 836.388 1582.6 L836.388 1577.9 Q838.471 1579.03 840.694 1579.59 Q842.916 1580.14 845.393 1580.14 Q849.397 1580.14 851.735 1578.04 Q854.073 1575.93 854.073 1572.32 Q854.073 1568.71 851.735 1566.6 Q849.397 1564.5 845.393 1564.5 Q843.518 1564.5 841.643 1564.91 Q839.791 1565.33 837.846 1566.21 L837.846 1548.85 Z" fill="#000000" fill-rule="nonzero" fill-opacity="1" /><path clip-path="url(#clip340)" d="M877.962 1551.93 Q874.351 1551.93 872.522 1555.49 Q870.717 1559.03 870.717 1566.16 Q870.717 1573.27 872.522 1576.83 Q874.351 1580.38 877.962 1580.38 Q881.596 1580.38 883.402 1576.83 Q885.23 1573.27 885.23 1566.16 Q885.23 1559.03 883.402 1555.49 Q881.596 1551.93 877.962 1551.93 M877.962 1548.22 Q883.772 1548.22 886.828 1552.83 Q889.906 1557.41 889.906 1566.16 Q889.906 1574.89 886.828 1579.5 Q883.772 1584.08 877.962 1584.08 Q872.152 1584.08 869.073 1579.5 Q866.018 1574.89 866.018 1566.16 Q866.018 1557.41 869.073 1552.83 Q872.152 1548.22 877.962 1548.22 Z" fill="#000000" fill-rule="nonzero" fill-opacity="1" /><path clip-path="url(#clip340)" d="M1534.78 1579.47 L1542.42 1579.47 L1542.42 1553.11 L1534.11 1554.77 L1534.11 1550.51 L1542.38 1548.85 L1547.05 1548.85 L1547.05 1579.47 L1554.69 1579.47 L1554.69 1583.41 L1534.78 1583.41 L1534.78 1579.47 Z" fill="#000000" fill-rule="nonzero" fill-opacity="1" /><path clip-path="url(#clip340)" d="M1574.14 1551.93 Q1570.52 1551.93 1568.7 1555.49 Q1566.89 1559.03 1566.89 1566.16 Q1566.89 1573.27 1568.7 1576.83 Q1570.52 1580.38 1574.14 1580.38 Q1577.77 1580.38 1579.57 1576.83 Q1581.4 1573.27 1581.4 1566.16 Q1581.4 1559.03 1579.57 1555.49 Q1577.77 1551.93 1574.14 1551.93 M1574.14 1548.22 Q1579.95 1548.22 1583 1552.83 Q1586.08 1557.41 1586.08 1566.16 Q1586.08 1574.89 1583 1579.5 Q1579.95 1584.08 1574.14 1584.08 Q1568.32 1584.08 1565.25 1579.5 Q1562.19 1574.89 1562.19 1566.16 Q1562.19 1557.41 1565.25 1552.83 Q1568.32 1548.22 1574.14 1548.22 Z" fill="#000000" fill-rule="nonzero" fill-opacity="1" /><path clip-path="url(#clip340)" d="M1604.3 1551.93 Q1600.69 1551.93 1598.86 1555.49 Q1597.05 1559.03 1597.05 1566.16 Q1597.05 1573.27 1598.86 1576.83 Q1600.69 1580.38 1604.3 1580.38 Q1607.93 1580.38 1609.74 1576.83 Q1611.57 1573.27 1611.57 1566.16 Q1611.57 1559.03 1609.74 1555.49 Q1607.93 1551.93 1604.3 1551.93 M1604.3 1548.22 Q1610.11 1548.22 1613.16 1552.83 Q1616.24 1557.41 1616.24 1566.16 Q1616.24 1574.89 1613.16 1579.5 Q1610.11 1584.08 1604.3 1584.08 Q1598.49 1584.08 1595.41 1579.5 Q1592.35 1574.89 1592.35 1566.16 Q1592.35 1557.41 1595.41 1552.83 Q1598.49 1548.22 1604.3 1548.22 Z" fill="#000000" fill-rule="nonzero" fill-opacity="1" /><path clip-path="url(#clip340)" d="M2246.81 1579.47 L2254.45 1579.47 L2254.45 1553.11 L2246.14 1554.77 L2246.14 1550.51 L2254.41 1548.85 L2259.08 1548.85 L2259.08 1579.47 L2266.72 1579.47 L2266.72 1583.41 L2246.81 1583.41 L2246.81 1579.47 Z" fill="#000000" fill-rule="nonzero" fill-opacity="1" /><path clip-path="url(#clip340)" d="M2276.21 1548.85 L2294.57 1548.85 L2294.57 1552.78 L2280.49 1552.78 L2280.49 1561.26 Q2281.51 1560.91 2282.53 1560.75 Q2283.55 1560.56 2284.57 1560.56 Q2290.35 1560.56 2293.73 1563.73 Q2297.11 1566.9 2297.11 1572.32 Q2297.11 1577.9 2293.64 1581 Q2290.17 1584.08 2283.85 1584.08 Q2281.67 1584.08 2279.41 1583.71 Q2277.16 1583.34 2274.75 1582.6 L2274.75 1577.9 Q2276.84 1579.03 2279.06 1579.59 Q2281.28 1580.14 2283.76 1580.14 Q2287.76 1580.14 2290.1 1578.04 Q2292.44 1575.93 2292.44 1572.32 Q2292.44 1568.71 2290.1 1566.6 Q2287.76 1564.5 2283.76 1564.5 Q2281.88 1564.5 2280.01 1564.91 Q2278.16 1565.33 2276.21 1566.21 L2276.21 1548.85 Z" fill="#000000" fill-rule="nonzero" fill-opacity="1" /><path clip-path="url(#clip340)" d="M2316.33 1551.93 Q2312.72 1551.93 2310.89 1555.49 Q2309.08 1559.03 2309.08 1566.16 Q2309.08 1573.27 2310.89 1576.83 Q2312.72 1580.38 2316.33 1580.38 Q2319.96 1580.38 2321.77 1576.83 Q2323.6 1573.27 2323.6 1566.16 Q2323.6 1559.03 2321.77 1555.49 Q2319.96 1551.93 2316.33 1551.93 M2316.33 1548.22 Q2322.14 1548.22 2325.19 1552.83 Q2328.27 1557.41 2328.27 1566.16 Q2328.27 1574.89 2325.19 1579.5 Q2322.14 1584.08 2316.33 1584.08 Q2310.52 1584.08 2307.44 1579.5 Q2304.38 1574.89 2304.38 1566.16 Q2304.38 1557.41 2307.44 1552.83 Q2310.52 1548.22 2316.33 1548.22 Z" fill="#000000" fill-rule="nonzero" fill-opacity="1" /><polyline clip-path="url(#clip342)" style="stroke:#000000; stroke-linecap:round; stroke-linejoin:round; stroke-width:2; stroke-opacity:0.1; fill:none" points="86.9921,957.687 2352.76,957.687 "/>
<polyline clip-path="url(#clip342)" style="stroke:#000000; stroke-linecap:round; stroke-linejoin:round; stroke-width:2; stroke-opacity:0.1; fill:none" points="86.9921,153.341 2352.76,153.341 "/>
<polyline clip-path="url(#clip340)" style="stroke:#000000; stroke-linecap:round; stroke-linejoin:round; stroke-width:4; stroke-opacity:1; fill:none" points="86.9921,1521.01 86.9921,47.2441 "/>
<polyline clip-path="url(#clip340)" style="stroke:#000000; stroke-linecap:round; stroke-linejoin:round; stroke-width:4; stroke-opacity:1; fill:none" points="86.9921,957.687 105.89,957.687 "/>
<polyline clip-path="url(#clip340)" style="stroke:#000000; stroke-linecap:round; stroke-linejoin:round; stroke-width:4; stroke-opacity:1; fill:none" points="86.9921,153.341 105.89,153.341 "/>
<path clip-path="url(#clip340)" d="M-74.9519 977.48 L-67.3131 977.48 L-67.3131 951.114 L-75.6232 952.781 L-75.6232 948.521 L-67.3594 946.855 L-62.6835 946.855 L-62.6835 977.48 L-55.0446 977.48 L-55.0446 981.415 L-74.9519 981.415 L-74.9519 977.48 Z" fill="#000000" fill-rule="nonzero" fill-opacity="1" /><path clip-path="url(#clip340)" d="M-35.6003 949.933 Q-39.2114 949.933 -41.0401 953.498 Q-42.8456 957.04 -42.8456 964.169 Q-42.8456 971.276 -41.0401 974.841 Q-39.2114 978.382 -35.6003 978.382 Q-31.9661 978.382 -30.1605 974.841 Q-28.3318 971.276 -28.3318 964.169 Q-28.3318 957.04 -30.1605 953.498 Q-31.9661 949.933 -35.6003 949.933 M-35.6003 946.23 Q-29.7901 946.23 -26.7346 950.836 Q-23.6559 955.419 -23.6559 964.169 Q-23.6559 972.896 -26.7346 977.503 Q-29.7901 982.086 -35.6003 982.086 Q-41.4104 982.086 -44.4891 977.503 Q-47.5447 972.896 -47.5447 964.169 Q-47.5447 955.419 -44.4891 950.836 Q-41.4104 946.23 -35.6003 946.23 Z" fill="#000000" fill-rule="nonzero" fill-opacity="1" /><path clip-path="url(#clip340)" d="M-23.6559 940.331 L0.455649 940.331 L0.455649 943.528 L-23.6559 943.528 L-23.6559 940.331 Z" fill="#000000" fill-rule="nonzero" fill-opacity="1" /><path clip-path="url(#clip340)" d="M9.31411 950.807 L15.5207 950.807 L15.5207 929.385 L8.76868 930.739 L8.76868 927.278 L15.4831 925.924 L19.2822 925.924 L19.2822 950.807 L25.4888 950.807 L25.4888 954.004 L9.31411 954.004 L9.31411 950.807 Z" fill="#000000" fill-rule="nonzero" fill-opacity="1" /><path clip-path="url(#clip340)" d="M41.2873 928.426 Q38.3533 928.426 36.8675 931.322 Q35.4005 934.2 35.4005 939.992 Q35.4005 945.766 36.8675 948.663 Q38.3533 951.54 41.2873 951.54 Q44.2401 951.54 45.7071 948.663 Q47.193 945.766 47.193 939.992 Q47.193 934.2 45.7071 931.322 Q44.2401 928.426 41.2873 928.426 M41.2873 925.416 Q46.0081 925.416 48.4907 929.159 Q50.9921 932.883 50.9921 939.992 Q50.9921 947.083 48.4907 950.826 Q46.0081 954.55 41.2873 954.55 Q36.5666 954.55 34.0651 950.826 Q31.5825 947.083 31.5825 939.992 Q31.5825 932.883 34.0651 929.159 Q36.5666 925.416 41.2873 925.416 Z" fill="#000000" fill-rule="nonzero" fill-opacity="1" /><path clip-path="url(#clip340)" d="M-49.6367 173.133 L-41.9978 173.133 L-41.9978 146.768 L-50.308 148.434 L-50.308 144.175 L-42.0441 142.508 L-37.3682 142.508 L-37.3682 173.133 L-29.7294 173.133 L-29.7294 177.068 L-49.6367 177.068 L-49.6367 173.133 Z" fill="#000000" fill-rule="nonzero" fill-opacity="1" /><path clip-path="url(#clip340)" d="M-10.285 145.587 Q-13.8961 145.587 -15.7248 149.152 Q-17.5304 152.693 -17.5304 159.823 Q-17.5304 166.929 -15.7248 170.494 Q-13.8961 174.036 -10.285 174.036 Q-6.65079 174.036 -4.84525 170.494 Q-3.01655 166.929 -3.01655 159.823 Q-3.01655 152.693 -4.84525 149.152 Q-6.65079 145.587 -10.285 145.587 M-10.285 141.883 Q-4.47488 141.883 -1.41934 146.49 Q1.65935 151.073 1.65935 159.823 Q1.65935 168.55 -1.41934 173.156 Q-4.47488 177.74 -10.285 177.74 Q-16.0952 177.74 -19.1739 173.156 Q-22.2294 168.55 -22.2294 159.823 Q-22.2294 151.073 -19.1739 146.49 Q-16.0952 141.883 -10.285 141.883 Z" fill="#000000" fill-rule="nonzero" fill-opacity="1" /><path clip-path="url(#clip340)" d="M1.65935 135.985 L25.7709 135.985 L25.7709 139.182 L1.65935 139.182 L1.65935 135.985 Z" fill="#000000" fill-rule="nonzero" fill-opacity="1" /><path clip-path="url(#clip340)" d="M34.0087 121.578 L48.9233 121.578 L48.9233 124.775 L37.4881 124.775 L37.4881 131.659 Q38.3157 131.377 39.1432 131.245 Q39.9708 131.095 40.7983 131.095 Q45.5003 131.095 48.2462 133.671 Q50.9921 136.248 50.9921 140.649 Q50.9921 145.182 48.171 147.702 Q45.3498 150.203 40.2153 150.203 Q38.4473 150.203 36.6042 149.902 Q34.7798 149.601 32.8238 149 L32.8238 145.182 Q34.5165 146.103 36.3221 146.555 Q38.1276 147.006 40.14 147.006 Q43.3938 147.006 45.2934 145.294 Q47.193 143.583 47.193 140.649 Q47.193 137.715 45.2934 136.003 Q43.3938 134.292 40.14 134.292 Q38.6166 134.292 37.0932 134.63 Q35.5886 134.969 34.0087 135.684 L34.0087 121.578 Z" fill="#000000" fill-rule="nonzero" fill-opacity="1" /><polyline clip-path="url(#clip342)" style="stroke:#009af9; stroke-linecap:round; stroke-linejoin:round; stroke-width:4; stroke-opacity:1; fill:none" points="151.118,88.9544 152.542,89.0418 153.966,90.7102 155.39,93.9936 156.814,98.9615 158.238,105.725 159.662,114.449 161.086,125.369 162.51,138.822 163.934,155.304 165.358,175.561 166.782,200.785 168.206,233.04 169.63,276.363 171.054,340.489 172.478,462.298 173.902,600.815 175.327,387.826 176.751,309.669 178.175,262.242 179.599,229.195 181.023,204.728 182.447,186.119 183.871,171.881 185.295,161.127 186.719,153.298 188.143,148.037 189.567,145.116 190.991,144.405 192.415,145.85 193.839,149.467 195.263,155.346 196.687,163.659 198.111,174.685 199.536,188.862 200.96,206.871 202.384,229.812 203.808,259.585 205.232,299.863 206.656,359.244 208.08,467.733 209.504,708.489 210.928,426.404 212.352,340.844 213.776,289.992 215.2,254.687 216.624,228.471 218.048,208.382 219.472,192.823 220.896,180.847 222.32,171.858 223.745,165.469 225.169,161.432 226.593,159.595 228.017,159.882 229.441,162.286 230.865,166.863 232.289,173.745 233.713,183.15 235.137,195.426 236.561,211.102 237.985,231.016 239.409,256.549 240.833,290.192 242.257,337.103 243.681,411.058 245.105,582.81 246.529,534.267 247.954,396.58 249.378,330.291 250.802,287.33 252.226,256.402 253.65,233.026 255.074,214.971 256.498,200.976 257.922,190.271 259.346,182.363 260.77,176.93 262.194,173.77 263.618,172.764 265.042,173.867 266.466,177.095 267.89,182.533 269.314,190.346 270.738,200.795 272.163,214.29 273.587,231.46 275.011,253.311 276.435,281.555 277.859,319.417 279.283,374.116 280.707,468.375 282.131,963.927 283.555,477.655 284.979,380.222 286.403,325.116 287.827,287.539 289.251,259.855 290.675,238.701 292.099,222.305 293.523,209.631 294.948,200.032 296.372,193.09 297.796,188.534 299.22,186.196 300.644,185.985 302.068,187.881 303.492,191.927 304.916,198.233 306.34,206.999 307.764,218.534 309.188,233.32 310.612,252.103 312.036,276.101 313.46,307.453 314.884,350.415 316.308,415.496 317.732,544.898 319.157,633.99 320.581,445.406 322.005,369.6 323.429,322.513 324.853,289.222 326.277,264.271 327.701,245.062 329.125,230.16 330.549,218.702 331.973,210.141 333.397,204.12 334.821,200.411 336.245,198.877 337.669,199.456 339.093,202.15 340.517,207.025 341.941,214.226 343.366,223.986 344.79,236.673 346.214,252.851 347.638,273.412 349.062,299.843 350.486,334.865 351.91,384.257 353.334,464.259 354.758,677.211 356.182,544.793 357.606,424.658 359.03,362.737 360.454,321.798 361.878,292.061 363.302,269.487 364.726,252.022 366.15,238.493 367.575,228.173 368.999,220.598 370.423,215.465 371.847,212.584 373.271,211.847 374.695,213.215 376.119,216.715 377.543,222.442 378.967,230.568 380.391,241.375 381.815,255.291 383.239,272.984 384.663,295.526 386.087,324.758 387.511,364.209 388.935,422.023 390.359,525.678 391.784,838.237 393.208,499.741 394.632,410.812 396.056,358.658 397.48,322.613 398.904,295.891 400.328,275.412 401.752,259.531 403.176,247.273 404.6,238.027 406.024,231.397 407.448,227.126 408.872,225.057 410.296,225.11 411.72,227.272 413.144,231.592 414.568,238.193 415.993,247.285 417.417,259.197 418.841,274.434 420.265,293.789 421.689,318.563 423.113,351.068 424.537,396.001 425.961,465.417 427.385,613.613 428.809,629.99 430.233,472.17 431.657,401.612 433.081,356.745 434.505,324.709 435.929,300.586 437.353,281.979 438.777,267.546 440.202,256.476 441.626,248.248 443.05,242.527 444.474,239.095 445.898,237.828 447.322,238.67 448.746,241.631 450.17,246.788 451.594,254.293 453.018,264.395 454.442,277.483 455.866,294.15 457.29,315.346 458.714,342.665 460.138,379.066 461.562,430.998 462.987,517.578 464.411,799.459 465.835,561.609 467.259,454.083 468.683,395.768 470.107,356.577 471.531,327.897 472.955,306.049 474.379,289.128 475.803,276.032 477.227,266.077 478.651,258.821 480.075,253.978 481.499,251.368 482.923,250.894 484.347,252.526 485.771,256.298 487.196,262.312 488.62,270.756 490.044,281.923 491.468,296.268 492.892,314.496 494.316,337.75 495.74,368.012 497.164,409.152 498.588,470.391 500.012,585.428 501.436,761.465 502.86,523.843 504.284,441.981 505.708,392.473 507.132,357.847 508.556,332.03 509.98,312.197 511.405,296.812 512.829,284.957 514.253,276.056 515.677,269.731 517.101,265.742 518.525,263.941 519.949,264.256 521.373,266.682 522.797,271.278 524.221,278.176 525.645,287.599 527.069,299.893 528.493,315.593 529.917,335.538 531.341,361.119 532.765,394.84 534.189,441.9 535.614,516.223 537.038,690.193 538.462,636.343 539.886,500.007 541.31,434.02 542.734,391.188 544.158,360.329 545.582,336.994 547.006,318.966 548.43,304.989 549.854,294.296 551.278,286.396 552.702,280.969 554.126,277.813 555.55,276.809 556.974,277.913 558.398,281.142 559.823,286.581 561.247,294.393 562.671,304.842 564.095,318.337 565.519,335.507 566.943,357.359 568.367,385.605 569.791,423.47 571.215,478.179 572.639,572.473 574.063,1070.59 575.487,581.596 576.911,484.2 578.335,429.105 579.759,391.533 581.183,363.85 582.607,342.696 584.032,326.3 585.456,313.626 586.88,304.026 588.304,297.083 589.728,292.525 591.152,290.185 592.576,289.973 594,291.867 595.424,295.91 596.848,302.214 598.272,310.976 599.696,322.509 601.12,337.291 602.544,356.068 603.968,380.06 605.392,411.402 606.816,454.349 608.241,519.396 609.665,648.665 611.089,738.386 612.513,549.494 613.937,473.642 615.361,426.536 616.785,393.233 618.209,368.276 619.633,349.061 621.057,334.154 622.481,322.692 623.905,314.127 625.329,308.103 626.753,304.391 628.177,302.854 629.601,303.43 631.025,306.12 632.45,310.993 633.874,318.189 635.298,327.945 636.722,340.626 638.146,356.798 639.57,377.35 640.994,403.769 642.418,438.772 643.842,488.13 645.266,568.047 646.69,780.315 648.114,649.108 649.538,528.774 650.962,466.8 652.386,425.835 653.81,396.083 655.235,373.498 656.659,356.025 658.083,342.489 659.507,332.164 660.931,324.584 662.355,319.446 663.779,316.56 665.203,315.818 666.627,317.182 668.051,320.677 669.475,326.398 670.899,334.519 672.323,345.319 673.747,359.227 675.171,376.909 676.595,399.437 678.019,428.649 679.444,468.068 680.868,525.817 682.292,629.269 683.716,945.864 685.14,604.03 686.564,514.947 687.988,462.737 689.412,426.664 690.836,399.922 692.26,379.43 693.684,363.538 695.108,351.272 696.532,342.018 697.956,335.381 699.38,331.103 700.804,329.028 702.228,329.075 703.653,331.23 705.077,335.543 706.501,342.137 707.925,351.22 709.349,363.122 710.773,378.347 712.197,397.687 713.621,422.44 715.045,454.913 716.469,499.791 717.893,569.083 719.317,716.697 720.741,734.958 722.165,576.455 723.589,505.764 725.013,460.841 726.437,428.771 727.862,404.626 729.286,386.002 730.71,371.556 732.134,360.475 733.558,352.237 734.982,346.507 736.406,343.067 737.83,341.791 739.254,342.625 740.678,345.577 742.102,350.724 743.526,358.219 744.95,368.31 746.374,381.383 747.798,398.034 749.222,419.207 750.646,446.494 752.071,482.845 753.495,534.683 754.919,621.013 756.343,899.482 757.767,666.295 759.191,558.371 760.615,499.936 762.039,460.686 763.463,431.968 764.887,410.095 766.311,393.154 767.735,380.043 769.159,370.074 770.583,362.805 772.007,357.951 773.431,355.331 774.855,354.846 776.28,356.467 777.704,360.227 779.128,366.229 780.552,374.659 781.976,385.81 783.4,400.135 784.824,418.34 786.248,441.561 787.672,471.776 789.096,512.837 790.52,573.915 791.944,688.388 793.368,868.981 794.792,628.431 796.216,546.276 797.64,496.655 799.064,461.966 800.489,436.109 801.913,416.247 803.337,400.839 804.761,388.966 806.185,380.048 807.609,373.708 809.033,369.705 810.457,367.89 811.881,368.192 813.305,370.604 814.729,375.185 816.153,382.067 817.577,391.471 819.001,403.744 820.425,419.418 821.849,439.33 823.274,464.865 824.698,498.516 826.122,545.453 827.546,619.485 828.97,791.76 830.394,741.916 831.818,604.549 833.242,538.321 834.666,495.38 836.09,464.457 837.514,441.078 838.938,423.017 840.362,409.014 841.786,398.299 843.21,390.379 844.634,384.934 846.058,381.76 847.483,380.74 848.907,381.827 850.331,385.038 851.755,390.459 853.179,398.25 854.603,408.676 856.027,422.143 857.451,439.278 858.875,461.085 860.299,489.266 861.723,527.028 863.147,581.539 864.571,675.264 865.995,1138.92 867.419,686.741 868.843,588.716 870.267,533.412 871.692,495.732 873.116,467.982 874.54,446.78 875.964,430.348 877.388,417.644 878.812,408.018 880.236,401.052 881.66,396.473 883.084,394.112 884.508,393.88 885.932,395.754 887.356,399.775 888.78,406.055 890.204,414.792 891.628,426.295 893.052,441.04 894.476,459.772 895.901,483.701 897.325,514.953 898.749,557.745 900.173,622.462 901.597,750.423 903.021,846.477 904.445,654.456 905.869,578.142 907.293,530.846 908.717,497.436 910.141,472.408 911.565,453.142 912.989,438.195 914.413,426.699 915.837,418.105 917.261,412.054 918.685,408.317 920.11,406.756 921.534,407.307 922.958,409.973 924.382,414.819 925.806,421.986 927.23,431.709 928.654,444.353 930.078,460.477 931.502,480.969 932.926,507.304 934.35,542.178 935.774,591.301 937.198,670.634 938.622,878.296 940.046,755.361 941.47,633.634 942.894,571.287 944.319,530.144 945.743,500.285 947.167,477.626 948.591,460.098 950.015,446.517 951.439,436.154 952.863,428.541 954.287,423.373 955.711,420.458 957.135,419.687 958.559,421.022 959.983,424.487 961.407,430.176 962.831,438.261 964.255,449.02 965.679,462.88 967.103,480.502 968.528,502.95 969.952,532.048 971.376,571.281 972.8,628.662 974.224,730.963 975.648,1072.66 977.072,709.714 978.496,619.742 979.92,567.212 981.344,530.968 982.768,504.118 984.192,483.549 985.616,467.598 987.04,455.283 988.464,445.987 989.888,439.312 991.312,434.999 992.737,432.89 994.161,432.904 995.585,435.024 997.009,439.302 998.433,445.856 999.857,454.896 1001.28,466.748 1002.7,481.912 1004.13,501.175 1005.55,525.822 1006.98,558.138 1008.4,602.745 1009.83,671.431 1011.25,816.244 1012.67,843.83 1014.1,681.86 1015.52,610.51 1016.95,565.3 1018.37,533.066 1019.79,508.811 1021.22,490.106 1022.64,475.597 1024.07,464.461 1025.49,456.177 1026.91,450.404 1028.34,446.924 1029.76,445.609 1031.19,446.404 1032.61,449.316 1034.03,454.421 1035.46,461.869 1036.88,471.907 1038.31,484.918 1039.73,501.492 1041.15,522.566 1042.58,549.713 1044,585.846 1045.43,637.279 1046.85,722.535 1048.27,987.26 1049.7,773.303 1051.12,663.607 1052.55,604.641 1053.97,565.127 1055.4,536.249 1056.82,514.263 1058.24,497.237 1059.67,484.057 1061.09,474.029 1062.52,466.709 1063.94,461.807 1065.36,459.141 1066.79,458.612 1068.21,460.187 1069.64,463.9 1071.06,469.852 1072.48,478.226 1073.91,489.313 1075.33,503.562 1076.76,521.67 1078.18,544.763 1079.6,574.792 1081.03,615.547 1082.45,675.995 1083.88,788.299 1085.3,987.754 1086.72,734.722 1088.15,651.393 1089.57,601.319 1091,566.384 1092.42,540.368 1093.84,520.39 1095.27,504.893 1096.69,492.946 1098.12,483.964 1099.54,477.567 1100.97,473.51 1102.39,471.644 1103.81,471.895 1105.24,474.255 1106.66,478.781 1108.09,485.604 1109.51,494.941 1110.93,507.136 1112.36,522.716 1113.78,542.507 1115.21,567.876 1116.63,601.277 1118.05,647.772 1119.48,720.771 1120.9,887.218 1122.33,851.688 1123.75,710.453 1125.17,643.345 1126.6,600.003 1128.02,568.845 1129.45,545.308 1130.87,527.128 1132.29,513.031 1133.72,502.237 1135.14,494.248 1136.57,488.74 1137.99,485.507 1139.41,484.429 1140.84,485.457 1142.26,488.608 1143.69,493.965 1145.11,501.686 1146.53,512.033 1147.96,525.405 1149.38,542.425 1150.81,564.079 1152.23,592.044 1153.66,629.465 1155.08,683.323 1156.5,775.192 1157.93,1164.19 1159.35,794.558 1160.78,694.37 1162.2,638.354 1163.62,600.311 1165.05,572.334 1166.47,550.973 1167.9,534.419 1169.32,521.616 1170.74,511.906 1172.17,504.864 1173.59,500.216 1175.02,497.789 1176.44,497.491 1177.86,499.298 1179.29,503.251 1180.71,509.457 1182.14,518.111 1183.56,529.519 1184.98,544.151 1186.41,562.74 1187.83,586.476 1189.26,617.444 1190.68,659.761 1192.1,723.466 1193.53,847.512 1194.95,964.026 1196.38,761.407 1197.8,683.613 1199.23,635.713 1200.65,601.966 1202.07,576.717 1203.5,557.29 1204.92,542.217 1206.35,530.617 1207.77,521.932 1209.19,515.8 1210.62,511.986 1212.04,510.351 1213.47,510.829 1214.89,513.42 1216.31,518.186 1217.74,525.268 1219.16,534.894 1220.59,547.425 1222.01,563.412 1223.43,583.726 1224.86,609.815 1226.28,644.312 1227.71,692.757 1229.13,770.418 1230.55,965.782 1231.98,866.105 1233.4,740.08 1234.83,676.609 1236.25,634.936 1237.67,604.759 1239.1,581.883 1240.52,564.192 1241.95,550.481 1243.37,540.008 1244.8,532.297 1246.22,527.04 1247.64,524.041 1249.07,523.189 1250.49,524.441 1251.92,527.822 1253.34,533.42 1254.76,541.405 1256.19,552.05 1257.61,565.775 1259.04,583.23 1260.46,605.456 1261.88,634.236 1263.31,672.955 1264.73,729.322 1266.16,828.481 1267.58,1231.5 1269,818.305 1270.43,725.826 1271.85,672.397 1273.28,635.679 1274.7,608.528 1276.12,587.744 1277.55,571.628 1278.97,559.177 1280.4,549.765 1281.82,542.986 1283.24,538.577 1284.67,536.376 1286.09,536.297 1287.52,538.324 1288.94,542.504 1290.36,548.952 1291.79,557.873 1293.21,569.586 1294.64,584.582 1296.06,603.631 1297.49,627.985 1298.91,659.863 1300.33,703.711 1301.76,770.679 1303.18,907.264 1304.61,959.222 1306.03,789.403 1307.45,716.344 1308.88,670.373 1310.3,637.697 1311.73,613.143 1313.15,594.217 1314.57,579.532 1316,568.25 1317.42,559.839 1318.85,553.95 1320.27,550.364 1321.69,548.947 1323.12,549.642 1324.54,552.453 1325.97,557.454 1327.39,564.789 1328.81,574.701 1330.24,587.563 1331.66,603.951 1333.09,624.777 1334.51,651.563 1335.93,687.1 1337.36,737.327 1338.78,818.874 1340.21,1016.01 1341.63,879.615 1343.06,769.433 1344.48,709.771 1345.9,669.826 1347.33,640.655 1348.75,618.449 1350.18,601.247 1351.6,587.915 1353.02,577.75 1354.45,570.301 1355.87,565.274 1357.3,562.485 1358.72,561.832 1360.14,563.281 1361.57,566.863 1362.99,572.677 1364.42,580.904 1365.84,591.829 1367.26,605.893 1368.69,623.777 1370.11,646.581 1371.54,676.193 1372.96,716.257 1374.38,775.236 1375.81,881.998 1377.23,1088.16 1378.66,842.366 1380.08,757.145 1381.5,706.269 1382.93,670.891 1384.35,644.589 1385.78,624.407 1387.2,608.748 1388.63,596.665 1390.05,587.558 1391.47,581.04 1392.9,576.86 1394.32,574.867 1395.75,574.984 1397.17,577.2 1398.59,581.571 1400.02,588.225 1401.44,597.378 1402.87,609.366 1404.29,624.707 1405.71,644.211 1407.14,669.206 1408.56,702.064 1409.99,747.625 1411.41,818.425 1412.83,971.882 1414.26,965.026 1415.68,817.471 1417.11,748.742 1418.53,704.672 1419.95,673.105 1421.38,649.306 1422.8,630.943 1424.23,616.704 1425.65,605.79 1427.07,597.69 1428.5,592.069 1429.92,588.715 1431.35,587.504 1432.77,588.383 1434.19,591.366 1435.62,596.532 1437.04,604.04 1438.47,614.145 1439.89,627.243 1441.32,643.942 1442.74,665.206 1444.16,692.66 1445.59,729.327 1447.01,781.822 1448.44,869.989 1449.86,1169.5 1451.28,905.635 1452.71,800.848 1454.13,743.386 1455.56,704.65 1456.98,676.281 1458.4,654.676 1459.83,637.959 1461.25,625.039 1462.68,615.234 1464.1,608.105 1465.52,603.362 1466.95,600.826 1468.37,600.396 1469.8,602.043 1471.22,605.802 1472.64,611.778 1474.07,620.161 1475.49,631.251 1476.92,645.508 1478.34,663.649 1479.76,686.826 1481.19,717.041 1482.61,758.195 1484.04,819.597 1485.46,935.41 1486.89,1102.14 1488.31,871.045 1489.73,789.735 1491.16,740.471 1492.58,706.022 1494.01,680.365 1495.43,660.69 1496.85,645.462 1498.28,633.76 1499.7,625.001 1501.13,618.803 1502.55,614.915 1503.97,613.184 1505.4,613.534 1506.82,615.954 1508.25,620.5 1509.67,627.305 1511.09,636.591 1512.52,648.708 1513.94,664.192 1515.37,683.884 1516.79,709.169 1518.21,742.529 1519.64,789.076 1521.06,862.321 1522.49,1027.67 1523.91,984.589 1525.33,848.574 1526.76,782.332 1528.18,739.381 1529.61,708.496 1531.03,685.199 1532.46,667.255 1533.88,653.394 1535.3,642.835 1536.73,635.072 1538.15,629.772 1539.58,626.719 1541,625.785 1542.42,626.911 1543.85,630.107 1545.27,635.452 1546.7,643.103 1548.12,653.32 1549.54,666.508 1550.97,683.291 1552.39,704.657 1553.82,732.275 1555.24,769.245 1556.66,822.357 1558.09,911.773 1559.51,1135.56 1560.94,931.533 1562.36,833.432 1563.78,777.699 1565.21,739.766 1566.63,711.899 1568.06,690.68 1569.48,674.304 1570.9,661.709 1572.33,652.227 1573.75,645.417 1575.18,640.99 1576.6,638.758 1578.02,638.613 1579.45,640.516 1580.87,644.496 1582.3,650.651 1583.72,659.17 1585.15,670.352 1586.57,684.662 1587.99,702.825 1589.42,726.005 1590.84,756.219 1592.27,797.361 1593.69,858.529 1595.11,969.712 1596.54,1063.1 1597.96,900.1 1599.39,823.194 1600.81,775.23 1602.23,741.391 1603.66,716.12 1605.08,696.751 1606.51,681.806 1607.93,670.39 1609.35,661.926 1610.78,656.032 1612.2,652.453 1613.63,651.026 1615.05,651.664 1616.47,654.346 1617.9,659.117 1619.32,666.101 1620.75,675.514 1622.17,687.701 1623.59,703.197 1625.02,722.841 1626.44,748.009 1627.87,781.142 1629.29,827.156 1630.72,898.233 1632.14,1031.93 1633.56,993.89 1634.99,879.594 1636.41,816.409 1637.84,774.454 1639.26,744.038 1640.68,721.036 1642.11,703.332 1643.53,689.705 1644.96,679.393 1646.38,671.897 1647.8,666.884 1649.23,664.13 1650.65,663.496 1652.08,664.912 1653.5,668.374 1654.92,673.948 1656.35,681.779 1657.77,692.118 1659.2,705.358 1660.62,722.114 1662.04,743.358 1663.47,770.715 1664.89,807.148 1666.32,858.85 1667.74,941.568 1669.16,1061.9 1670.59,953.065 1672.01,865.776 1673.44,812.255 1674.86,775.095 1676.29,747.588 1677.71,726.59 1679.13,710.396 1680.56,697.986 1681.98,688.711 1683.41,682.137 1684.83,677.971 1686.25,676.02 1687.68,676.166 1689.1,678.356 1690.53,682.605 1691.95,688.997 1693.37,697.703 1694.8,709.011 1696.22,723.368 1697.65,741.48 1699.07,764.474 1700.49,794.273 1701.92,834.47 1703.34,892.764 1704.77,986.686 1706.19,1035.39 1707.61,926.739 1709.04,856.359 1710.46,810.088 1711.89,776.876 1713.31,751.89 1714.73,732.685 1716.16,717.871 1717.58,706.593 1719.01,698.293 1720.43,692.595 1721.85,689.244 1723.28,688.074 1724.7,688.987 1726.13,691.949 1727.55,696.992 1728.98,704.222 1730.4,713.839 1731.82,726.17 1733.25,741.726 1734.67,761.313 1736.1,786.242 1737.52,818.786 1738.94,863.28 1740.37,928.897 1741.79,1024.71 1743.22,999.239 1744.64,909.014 1746.06,850.202 1747.49,809.586 1748.91,779.686 1750.34,756.908 1751.76,739.316 1753.18,725.768 1754.61,715.54 1756.03,708.154 1757.46,703.286 1758.88,700.716 1760.3,700.301 1761.73,701.968 1763.15,705.7 1764.58,711.551 1766,719.65 1767.42,730.23 1768.85,743.662 1770.27,760.531 1771.7,781.764 1773.12,808.891 1774.55,844.605 1775.97,894.088 1777.39,967.072 1778.82,1039.86 1780.24,971.188 1781.67,896.723 1783.09,846.397 1784.51,810.367 1785.94,783.321 1787.36,762.514 1788.79,746.395 1790.21,734.017 1791.63,724.769 1793.06,718.243 1794.48,714.158 1795.91,712.331 1797.33,712.645 1798.75,715.048 1800.18,719.548 1801.6,726.22 1803.03,735.224 1804.45,746.827 1805.87,761.459 1807.3,779.792 1808.72,802.9 1810.15,832.584 1811.57,872.067 1812.99,927.445 1814.42,1005.65 1815.84,1030.81 1817.27,951.289 1818.69,888.431 1820.12,844.554 1821.54,812.309 1822.96,787.745 1824.39,768.71 1825.81,753.942 1827.24,742.651 1828.66,734.32 1830.08,728.599 1831.51,725.255 1832.93,724.132 1834.36,725.145 1835.78,728.266 1837.2,733.528 1838.63,741.035 1840.05,750.982 1841.48,763.685 1842.9,779.642 1844.32,799.639 1845.75,824.946 1847.17,857.736 1848.6,901.964 1850.02,964.714 1851.44,1040.91 1852.87,1013.24 1854.29,937.324 1855.72,883.023 1857.14,844.208 1858.56,815.152 1859.99,792.78 1861.41,775.362 1862.84,761.852 1864.26,751.586 1865.68,744.124 1867.11,739.171 1868.53,736.531 1869.96,736.082 1871.38,737.766 1872.81,741.583 1874.23,747.597 1875.65,755.946 1877.08,766.867 1878.5,780.737 1879.93,798.145 1881.35,820.027 1882.77,847.93 1884.2,884.572 1885.62,935.059 1887.05,1007.51 1888.47,1064.94 1889.89,996.949 1891.32,927.94 1892.74,880.042 1894.17,845.24 1895.59,818.866 1897.01,798.423 1898.44,782.473 1899.86,770.133 1901.29,760.836 1902.71,754.205 1904.13,749.99 1905.56,748.029 1906.98,748.233 1908.41,750.57 1909.83,755.07 1911.25,761.829 1912.68,771.023 1914.1,782.943 1915.53,798.039 1916.95,817.018 1918.38,841.019 1919.8,871.977 1921.22,913.457 1922.65,972.532 1924.07,1057.76 1925.5,1070.27 1926.92,983.825 1928.34,921.831 1929.77,878.955 1931.19,847.425 1932.62,823.336 1934.04,804.596 1935.46,789.98 1936.89,778.729 1938.31,770.35 1939.74,764.518 1941.16,761.021 1942.58,759.728 1944.01,760.575 1945.43,763.559 1946.86,768.738 1948.28,776.241 1949.7,786.289 1951.13,799.229 1952.55,815.6 1953.98,836.252 1955.4,862.585 1956.82,897.076 1958.25,944.576 1959.67,1015.64 1961.1,1113.8 1962.52,1060.16 1963.94,973.825 1965.37,918.274 1966.79,879.51 1968.22,850.714 1969.64,828.591 1971.07,811.354 1972.49,797.944 1973.91,787.699 1975.34,780.186 1976.76,775.12 1978.19,772.322 1979.61,771.687 1981.03,773.176 1982.46,776.81 1983.88,782.675 1985.31,790.934 1986.73,801.854 1988.15,815.844 1989.58,833.544 1991,855.973 1992.43,884.862 1993.85,923.412 1995.27,978.427 1996.7,1066.74 1998.12,1157.3 1999.55,1044.72 2000.97,966.532 2002.39,916.732 2003.82,881.472 2005.24,855.034 2006.67,834.637 2008.09,818.745 2009.51,806.435 2010.94,797.122 2012.36,790.425 2013.79,786.096 2015.21,783.981 2016.64,783.998 2018.06,786.131 2019.48,790.425 2020.91,796.993 2022.33,806.033 2023.76,817.855 2025.18,832.941 2026.6,852.043 2028.03,876.381 2029.45,908.093 2030.88,951.359 2032.3,1015.96 2033.72,1130.5 2035.15,1155.47 2036.57,1030.33 2038,961.651 2039.42,916.902 2040.84,884.698 2042.27,860.345 2043.69,841.497 2045.12,826.83 2046.54,815.536 2047.96,807.097 2049.39,801.177 2050.81,797.56 2052.24,796.115 2053.66,796.783 2055.08,799.568 2056.51,804.538 2057.93,811.831 2059.36,821.682 2060.78,834.452 2062.21,850.697 2063.63,871.296 2065.05,897.713 2066.48,932.595 2067.9,981.456 2069.33,1058.82 2070.75,1215.09 2072.17,1127.37 2073.6,1019.14 2075.02,959.026 2076.45,918.666 2077.87,889.164 2079.29,866.687 2080.72,849.255 2082.14,835.722 2083.57,825.38 2084.99,817.774 2086.41,812.604 2087.84,809.683 2089.26,808.905 2090.69,810.23 2092.11,813.682 2093.53,819.352 2094.96,827.406 2096.38,838.115 2097.81,851.896 2099.23,869.391 2100.65,891.632 2102.08,920.373 2103.5,958.931 2104.93,1014.72 2106.35,1110.43 2107.77,1298.05 2109.2,1100.65 2110.62,1011.2 2112.05,958.378 2113.47,921.867 2114.9,894.801 2116.32,874.051 2117.74,857.942 2119.17,845.486 2120.59,836.06 2122.02,829.263 2123.44,824.834 2124.86,822.611 2126.29,822.508 2127.71,824.508 2129.14,828.654 2130.56,835.059 2131.98,843.922 2133.41,855.554 2134.83,870.433 2136.26,889.306 2137.68,913.386 2139.1,944.802 2140.53,987.773 2141.95,1052.59 2143.38,1178.12 2144.8,1250.5 2146.22,1080.75 2147.65,1006.24 2149.07,959.559 2150.5,926.462 2151.92,901.627 2153.34,882.496 2154.77,867.651 2156.19,856.238 2157.62,847.713 2159.04,841.722 2160.47,838.039 2161.89,836.527 2163.31,837.124 2164.74,839.83 2166.16,844.711 2167.59,851.906 2169.01,861.646 2170.43,874.291 2171.86,890.392 2173.28,910.821 2174.71,937.024 2176.13,971.629 2177.55,1020.15 2178.98,1097.67 2180.4,1284.03 2181.83,1189.64 2183.25,1066.78 2184.67,1003.86 2186.1,962.442 2187.52,932.432 2188.95,909.687 2190.37,892.108 2191.79,878.499 2193.22,868.122 2194.64,860.504 2196.07,855.338 2197.49,852.428 2198.91,851.663 2200.34,853.003 2201.76,856.469 2203.19,862.152 2204.61,870.22 2206.04,880.942 2207.46,894.736 2208.88,912.247 2210.31,934.507 2211.73,963.278 2213.16,1001.9 2214.58,1057.93 2216,1155.63 2217.43,1479.3 2218.85,1150.17 2220.28,1057.13 2221.7,1003.53 2223.12,966.781 2224.55,939.654 2225.97,918.927 2227.4,902.886 2228.82,890.524 2230.24,881.21 2231.67,874.538 2233.09,870.241 2234.52,868.159 2235.94,868.205 2237.36,870.363 2238.79,874.679 2240.21,881.271 2241.64,890.343 2243.06,902.217 2244.48,917.386 2245.91,936.626 2247.33,961.201 2248.76,993.351 2250.18,1037.59 2251.6,1105.29 2253.03,1244.99 2254.45,1288.6 2255.88,1121.36 2257.3,1048.98 2258.73,1003.36 2260.15,970.9 2261.57,946.498 2263,927.673 2264.42,913.045 2265.85,901.773 2267.27,893.319 2268.69,887.325 2270.12,883.553 2271.54,881.85 2272.97,882.127 2274.39,884.348 2275.81,888.525 2277.24,894.717 2278.66,903.037 2280.09,913.662 2281.51,926.85 2282.93,942.978 2284.36,962.593 2285.78,986.521 2287.21,1016.08 2288.63,1053.52 "/>
<polyline clip-path="url(#clip342)" style="stroke:#e26f46; stroke-linecap:round; stroke-linejoin:round; stroke-width:4; stroke-opacity:1; fill:none" points="151.118,134.288 152.542,134.793 153.966,135.298 155.39,135.803 156.814,136.308 158.238,136.814 159.662,137.319 161.086,137.824 162.51,138.329 163.934,138.834 165.358,139.339 166.782,139.844 168.206,140.349 169.63,140.855 171.054,141.36 172.478,141.865 173.902,142.37 175.327,142.875 176.751,143.38 178.175,143.885 179.599,144.39 181.023,144.896 182.447,145.401 183.871,145.906 185.295,146.411 186.719,146.916 188.143,147.421 189.567,147.926 190.991,148.431 192.415,148.937 193.839,149.442 195.263,149.947 196.687,150.452 198.111,150.957 199.536,151.462 200.96,151.967 202.384,152.472 203.808,152.978 205.232,153.483 206.656,153.988 208.08,154.493 209.504,154.998 210.928,155.503 212.352,156.008 213.776,156.513 215.2,157.019 216.624,157.524 218.048,158.029 219.472,158.534 220.896,159.039 222.32,159.544 223.745,160.049 225.169,160.554 226.593,161.06 228.017,161.565 229.441,162.07 230.865,162.575 232.289,163.08 233.713,163.585 235.137,164.09 236.561,164.595 237.985,165.101 239.409,165.606 240.833,166.111 242.257,166.616 243.681,167.121 245.105,167.626 246.529,168.131 247.954,168.636 249.378,169.142 250.802,169.647 252.226,170.152 253.65,170.657 255.074,171.162 256.498,171.667 257.922,172.172 259.346,172.677 260.77,173.183 262.194,173.688 263.618,174.193 265.042,174.698 266.466,175.203 267.89,175.708 269.314,176.213 270.738,176.718 272.163,177.224 273.587,177.729 275.011,178.234 276.435,178.739 277.859,179.244 279.283,179.749 280.707,180.254 282.131,180.76 283.555,181.265 284.979,181.77 286.403,182.275 287.827,182.78 289.251,183.285 290.675,183.79 292.099,184.295 293.523,184.801 294.948,185.306 296.372,185.811 297.796,186.316 299.22,186.821 300.644,187.326 302.068,187.831 303.492,188.336 304.916,188.842 306.34,189.347 307.764,189.852 309.188,190.357 310.612,190.862 312.036,191.367 313.46,191.872 314.884,192.377 316.308,192.883 317.732,193.388 319.157,193.893 320.581,194.398 322.005,194.903 323.429,195.408 324.853,195.913 326.277,196.418 327.701,196.924 329.125,197.429 330.549,197.934 331.973,198.439 333.397,198.944 334.821,199.449 336.245,199.954 337.669,200.459 339.093,200.965 340.517,201.47 341.941,201.975 343.366,202.48 344.79,202.985 346.214,203.49 347.638,203.995 349.062,204.5 350.486,205.006 351.91,205.511 353.334,206.016 354.758,206.521 356.182,207.026 357.606,207.531 359.03,208.036 360.454,208.541 361.878,209.047 363.302,209.552 364.726,210.057 366.15,210.562 367.575,211.067 368.999,211.572 370.423,212.077 371.847,212.582 373.271,213.088 374.695,213.593 376.119,214.098 377.543,214.603 378.967,215.108 380.391,215.613 381.815,216.118 383.239,216.623 384.663,217.129 386.087,217.634 387.511,218.139 388.935,218.644 390.359,219.149 391.784,219.654 393.208,220.159 394.632,220.664 396.056,221.17 397.48,221.675 398.904,222.18 400.328,222.685 401.752,223.19 403.176,223.695 404.6,224.2 406.024,224.705 407.448,225.211 408.872,225.716 410.296,226.221 411.72,226.726 413.144,227.231 414.568,227.736 415.993,228.241 417.417,228.747 418.841,229.252 420.265,229.757 421.689,230.262 423.113,230.767 424.537,231.272 425.961,231.777 427.385,232.282 428.809,232.788 430.233,233.293 431.657,233.798 433.081,234.303 434.505,234.808 435.929,235.313 437.353,235.818 438.777,236.323 440.202,236.829 441.626,237.334 443.05,237.839 444.474,238.344 445.898,238.849 447.322,239.354 448.746,239.859 450.17,240.364 451.594,240.87 453.018,241.375 454.442,241.88 455.866,242.385 457.29,242.89 458.714,243.395 460.138,243.9 461.562,244.405 462.987,244.911 464.411,245.416 465.835,245.921 467.259,246.426 468.683,246.931 470.107,247.436 471.531,247.941 472.955,248.446 474.379,248.952 475.803,249.457 477.227,249.962 478.651,250.467 480.075,250.972 481.499,251.477 482.923,251.982 484.347,252.487 485.771,252.993 487.196,253.498 488.62,254.003 490.044,254.508 491.468,255.013 492.892,255.518 494.316,256.023 495.74,256.528 497.164,257.034 498.588,257.539 500.012,258.044 501.436,258.549 502.86,259.054 504.284,259.559 505.708,260.064 507.132,260.569 508.556,261.075 509.98,261.58 511.405,262.085 512.829,262.59 514.253,263.095 515.677,263.6 517.101,264.105 518.525,264.61 519.949,265.116 521.373,265.621 522.797,266.126 524.221,266.631 525.645,267.136 527.069,267.641 528.493,268.146 529.917,268.651 531.341,269.157 532.765,269.662 534.189,270.167 535.614,270.672 537.038,271.177 538.462,271.682 539.886,272.187 541.31,272.693 542.734,273.198 544.158,273.703 545.582,274.208 547.006,274.713 548.43,275.218 549.854,275.723 551.278,276.228 552.702,276.734 554.126,277.239 555.55,277.744 556.974,278.249 558.398,278.754 559.823,279.259 561.247,279.764 562.671,280.269 564.095,280.775 565.519,281.28 566.943,281.785 568.367,282.29 569.791,282.795 571.215,283.3 572.639,283.805 574.063,284.31 575.487,284.816 576.911,285.321 578.335,285.826 579.759,286.331 581.183,286.836 582.607,287.341 584.032,287.846 585.456,288.351 586.88,288.857 588.304,289.362 589.728,289.867 591.152,290.372 592.576,290.877 594,291.382 595.424,291.887 596.848,292.392 598.272,292.898 599.696,293.403 601.12,293.908 602.544,294.413 603.968,294.918 605.392,295.423 606.816,295.928 608.241,296.433 609.665,296.939 611.089,297.444 612.513,297.949 613.937,298.454 615.361,298.959 616.785,299.464 618.209,299.969 619.633,300.474 621.057,300.98 622.481,301.485 623.905,301.99 625.329,302.495 626.753,303 628.177,303.505 629.601,304.01 631.025,304.515 632.45,305.021 633.874,305.526 635.298,306.031 636.722,306.536 638.146,307.041 639.57,307.546 640.994,308.051 642.418,308.556 643.842,309.062 645.266,309.567 646.69,310.072 648.114,310.577 649.538,311.082 650.962,311.587 652.386,312.092 653.81,312.597 655.235,313.103 656.659,313.608 658.083,314.113 659.507,314.618 660.931,315.123 662.355,315.628 663.779,316.133 665.203,316.639 666.627,317.144 668.051,317.649 669.475,318.154 670.899,318.659 672.323,319.164 673.747,319.669 675.171,320.174 676.595,320.68 678.019,321.185 679.444,321.69 680.868,322.195 682.292,322.7 683.716,323.205 685.14,323.71 686.564,324.215 687.988,324.721 689.412,325.226 690.836,325.731 692.26,326.236 693.684,326.741 695.108,327.246 696.532,327.751 697.956,328.256 699.38,328.762 700.804,329.267 702.228,329.772 703.653,330.277 705.077,330.782 706.501,331.287 707.925,331.792 709.349,332.297 710.773,332.803 712.197,333.308 713.621,333.813 715.045,334.318 716.469,334.823 717.893,335.328 719.317,335.833 720.741,336.338 722.165,336.844 723.589,337.349 725.013,337.854 726.437,338.359 727.862,338.864 729.286,339.369 730.71,339.874 732.134,340.379 733.558,340.885 734.982,341.39 736.406,341.895 737.83,342.4 739.254,342.905 740.678,343.41 742.102,343.915 743.526,344.42 744.95,344.926 746.374,345.431 747.798,345.936 749.222,346.441 750.646,346.946 752.071,347.451 753.495,347.956 754.919,348.461 756.343,348.967 757.767,349.472 759.191,349.977 760.615,350.482 762.039,350.987 763.463,351.492 764.887,351.997 766.311,352.502 767.735,353.008 769.159,353.513 770.583,354.018 772.007,354.523 773.431,355.028 774.855,355.533 776.28,356.038 777.704,356.543 779.128,357.049 780.552,357.554 781.976,358.059 783.4,358.564 784.824,359.069 786.248,359.574 787.672,360.079 789.096,360.585 790.52,361.09 791.944,361.595 793.368,362.1 794.792,362.605 796.216,363.11 797.64,363.615 799.064,364.12 800.489,364.626 801.913,365.131 803.337,365.636 804.761,366.141 806.185,366.646 807.609,367.151 809.033,367.656 810.457,368.161 811.881,368.667 813.305,369.172 814.729,369.677 816.153,370.182 817.577,370.687 819.001,371.192 820.425,371.697 821.849,372.202 823.274,372.708 824.698,373.213 826.122,373.718 827.546,374.223 828.97,374.728 830.394,375.233 831.818,375.738 833.242,376.243 834.666,376.749 836.09,377.254 837.514,377.759 838.938,378.264 840.362,378.769 841.786,379.274 843.21,379.779 844.634,380.284 846.058,380.79 847.483,381.295 848.907,381.8 850.331,382.305 851.755,382.81 853.179,383.315 854.603,383.82 856.027,384.325 857.451,384.831 858.875,385.336 860.299,385.841 861.723,386.346 863.147,386.851 864.571,387.356 865.995,387.861 867.419,388.366 868.843,388.872 870.267,389.377 871.692,389.882 873.116,390.387 874.54,390.892 875.964,391.397 877.388,391.902 878.812,392.407 880.236,392.913 881.66,393.418 883.084,393.923 884.508,394.428 885.932,394.933 887.356,395.438 888.78,395.943 890.204,396.448 891.628,396.954 893.052,397.459 894.476,397.964 895.901,398.469 897.325,398.974 898.749,399.479 900.173,399.984 901.597,400.489 903.021,400.995 904.445,401.5 905.869,402.005 907.293,402.51 908.717,403.015 910.141,403.52 911.565,404.025 912.989,404.53 914.413,405.036 915.837,405.541 917.261,406.046 918.685,406.551 920.11,407.056 921.534,407.561 922.958,408.066 924.382,408.572 925.806,409.077 927.23,409.582 928.654,410.087 930.078,410.592 931.502,411.097 932.926,411.602 934.35,412.107 935.774,412.613 937.198,413.118 938.622,413.623 940.046,414.128 941.47,414.633 942.894,415.138 944.319,415.643 945.743,416.148 947.167,416.654 948.591,417.159 950.015,417.664 951.439,418.169 952.863,418.674 954.287,419.179 955.711,419.684 957.135,420.189 958.559,420.695 959.983,421.2 961.407,421.705 962.831,422.21 964.255,422.715 965.679,423.22 967.103,423.725 968.528,424.23 969.952,424.736 971.376,425.241 972.8,425.746 974.224,426.251 975.648,426.756 977.072,427.261 978.496,427.766 979.92,428.271 981.344,428.777 982.768,429.282 984.192,429.787 985.616,430.292 987.04,430.797 988.464,431.302 989.888,431.807 991.312,432.312 992.737,432.818 994.161,433.323 995.585,433.828 997.009,434.333 998.433,434.838 999.857,435.343 1001.28,435.848 1002.7,436.353 1004.13,436.859 1005.55,437.364 1006.98,437.869 1008.4,438.374 1009.83,438.879 1011.25,439.384 1012.67,439.889 1014.1,440.394 1015.52,440.9 1016.95,441.405 1018.37,441.91 1019.79,442.415 1021.22,442.92 1022.64,443.425 1024.07,443.93 1025.49,444.435 1026.91,444.941 1028.34,445.446 1029.76,445.951 1031.19,446.456 1032.61,446.961 1034.03,447.466 1035.46,447.971 1036.88,448.476 1038.31,448.982 1039.73,449.487 1041.15,449.992 1042.58,450.497 1044,451.002 1045.43,451.507 1046.85,452.012 1048.27,452.518 1049.7,453.023 1051.12,453.528 1052.55,454.033 1053.97,454.538 1055.4,455.043 1056.82,455.548 1058.24,456.053 1059.67,456.559 1061.09,457.064 1062.52,457.569 1063.94,458.074 1065.36,458.579 1066.79,459.084 1068.21,459.589 1069.64,460.094 1071.06,460.6 1072.48,461.105 1073.91,461.61 1075.33,462.115 1076.76,462.62 1078.18,463.125 1079.6,463.63 1081.03,464.135 1082.45,464.641 1083.88,465.146 1085.3,465.651 1086.72,466.156 1088.15,466.661 1089.57,467.166 1091,467.671 1092.42,468.176 1093.84,468.682 1095.27,469.187 1096.69,469.692 1098.12,470.197 1099.54,470.702 1100.97,471.207 1102.39,471.712 1103.81,472.217 1105.24,472.723 1106.66,473.228 1108.09,473.733 1109.51,474.238 1110.93,474.743 1112.36,475.248 1113.78,475.753 1115.21,476.258 1116.63,476.764 1118.05,477.269 1119.48,477.774 1120.9,478.279 1122.33,478.784 1123.75,479.289 1125.17,479.794 1126.6,480.299 1128.02,480.805 1129.45,481.31 1130.87,481.815 1132.29,482.32 1133.72,482.825 1135.14,483.33 1136.57,483.835 1137.99,484.34 1139.41,484.846 1140.84,485.351 1142.26,485.856 1143.69,486.361 1145.11,486.866 1146.53,487.371 1147.96,487.876 1149.38,488.381 1150.81,488.887 1152.23,489.392 1153.66,489.897 1155.08,490.402 1156.5,490.907 1157.93,491.412 1159.35,491.917 1160.78,492.422 1162.2,492.928 1163.62,493.433 1165.05,493.938 1166.47,494.443 1167.9,494.948 1169.32,495.453 1170.74,495.958 1172.17,496.464 1173.59,496.969 1175.02,497.474 1176.44,497.979 1177.86,498.484 1179.29,498.989 1180.71,499.494 1182.14,499.999 1183.56,500.505 1184.98,501.01 1186.41,501.515 1187.83,502.02 1189.26,502.525 1190.68,503.03 1192.1,503.535 1193.53,504.04 1194.95,504.546 1196.38,505.051 1197.8,505.556 1199.23,506.061 1200.65,506.566 1202.07,507.071 1203.5,507.576 1204.92,508.081 1206.35,508.587 1207.77,509.092 1209.19,509.597 1210.62,510.102 1212.04,510.607 1213.47,511.112 1214.89,511.617 1216.31,512.122 1217.74,512.628 1219.16,513.133 1220.59,513.638 1222.01,514.143 1223.43,514.648 1224.86,515.153 1226.28,515.658 1227.71,516.163 1229.13,516.669 1230.55,517.174 1231.98,517.679 1233.4,518.184 1234.83,518.689 1236.25,519.194 1237.67,519.699 1239.1,520.204 1240.52,520.71 1241.95,521.215 1243.37,521.72 1244.8,522.225 1246.22,522.73 1247.64,523.235 1249.07,523.74 1250.49,524.245 1251.92,524.751 1253.34,525.256 1254.76,525.761 1256.19,526.266 1257.61,526.771 1259.04,527.276 1260.46,527.781 1261.88,528.286 1263.31,528.792 1264.73,529.297 1266.16,529.802 1267.58,530.307 1269,530.812 1270.43,531.317 1271.85,531.822 1273.28,532.327 1274.7,532.833 1276.12,533.338 1277.55,533.843 1278.97,534.348 1280.4,534.853 1281.82,535.358 1283.24,535.863 1284.67,536.368 1286.09,536.874 1287.52,537.379 1288.94,537.884 1290.36,538.389 1291.79,538.894 1293.21,539.399 1294.64,539.904 1296.06,540.41 1297.49,540.915 1298.91,541.42 1300.33,541.925 1301.76,542.43 1303.18,542.935 1304.61,543.44 1306.03,543.945 1307.45,544.451 1308.88,544.956 1310.3,545.461 1311.73,545.966 1313.15,546.471 1314.57,546.976 1316,547.481 1317.42,547.986 1318.85,548.492 1320.27,548.997 1321.69,549.502 1323.12,550.007 1324.54,550.512 1325.97,551.017 1327.39,551.522 1328.81,552.027 1330.24,552.533 1331.66,553.038 1333.09,553.543 1334.51,554.048 1335.93,554.553 1337.36,555.058 1338.78,555.563 1340.21,556.068 1341.63,556.574 1343.06,557.079 1344.48,557.584 1345.9,558.089 1347.33,558.594 1348.75,559.099 1350.18,559.604 1351.6,560.109 1353.02,560.615 1354.45,561.12 1355.87,561.625 1357.3,562.13 1358.72,562.635 1360.14,563.14 1361.57,563.645 1362.99,564.15 1364.42,564.656 1365.84,565.161 1367.26,565.666 1368.69,566.171 1370.11,566.676 1371.54,567.181 1372.96,567.686 1374.38,568.191 1375.81,568.697 1377.23,569.202 1378.66,569.707 1380.08,570.212 1381.5,570.717 1382.93,571.222 1384.35,571.727 1385.78,572.232 1387.2,572.738 1388.63,573.243 1390.05,573.748 1391.47,574.253 1392.9,574.758 1394.32,575.263 1395.75,575.768 1397.17,576.273 1398.59,576.779 1400.02,577.284 1401.44,577.789 1402.87,578.294 1404.29,578.799 1405.71,579.304 1407.14,579.809 1408.56,580.314 1409.99,580.82 1411.41,581.325 1412.83,581.83 1414.26,582.335 1415.68,582.84 1417.11,583.345 1418.53,583.85 1419.95,584.355 1421.38,584.861 1422.8,585.366 1424.23,585.871 1425.65,586.376 1427.07,586.881 1428.5,587.386 1429.92,587.891 1431.35,588.397 1432.77,588.902 1434.19,589.407 1435.62,589.912 1437.04,590.417 1438.47,590.922 1439.89,591.427 1441.32,591.932 1442.74,592.438 1444.16,592.943 1445.59,593.448 1447.01,593.953 1448.44,594.458 1449.86,594.963 1451.28,595.468 1452.71,595.973 1454.13,596.479 1455.56,596.984 1456.98,597.489 1458.4,597.994 1459.83,598.499 1461.25,599.004 1462.68,599.509 1464.1,600.014 1465.52,600.52 1466.95,601.025 1468.37,601.53 1469.8,602.035 1471.22,602.54 1472.64,603.045 1474.07,603.55 1475.49,604.055 1476.92,604.561 1478.34,605.066 1479.76,605.571 1481.19,606.076 1482.61,606.581 1484.04,607.086 1485.46,607.591 1486.89,608.096 1488.31,608.602 1489.73,609.107 1491.16,609.612 1492.58,610.117 1494.01,610.622 1495.43,611.127 1496.85,611.632 1498.28,612.137 1499.7,612.643 1501.13,613.148 1502.55,613.653 1503.97,614.158 1505.4,614.663 1506.82,615.168 1508.25,615.673 1509.67,616.178 1511.09,616.684 1512.52,617.189 1513.94,617.694 1515.37,618.199 1516.79,618.704 1518.21,619.209 1519.64,619.714 1521.06,620.219 1522.49,620.725 1523.91,621.23 1525.33,621.735 1526.76,622.24 1528.18,622.745 1529.61,623.25 1531.03,623.755 1532.46,624.26 1533.88,624.766 1535.3,625.271 1536.73,625.776 1538.15,626.281 1539.58,626.786 1541,627.291 1542.42,627.796 1543.85,628.301 1545.27,628.807 1546.7,629.312 1548.12,629.817 1549.54,630.322 1550.97,630.827 1552.39,631.332 1553.82,631.837 1555.24,632.343 1556.66,632.848 1558.09,633.353 1559.51,633.858 1560.94,634.363 1562.36,634.868 1563.78,635.373 1565.21,635.878 1566.63,636.384 1568.06,636.889 1569.48,637.394 1570.9,637.899 1572.33,638.404 1573.75,638.909 1575.18,639.414 1576.6,639.919 1578.02,640.425 1579.45,640.93 1580.87,641.435 1582.3,641.94 1583.72,642.445 1585.15,642.95 1586.57,643.455 1587.99,643.96 1589.42,644.466 1590.84,644.971 1592.27,645.476 1593.69,645.981 1595.11,646.486 1596.54,646.991 1597.96,647.496 1599.39,648.001 1600.81,648.507 1602.23,649.012 1603.66,649.517 1605.08,650.022 1606.51,650.527 1607.93,651.032 1609.35,651.537 1610.78,652.042 1612.2,652.548 1613.63,653.053 1615.05,653.558 1616.47,654.063 1617.9,654.568 1619.32,655.073 1620.75,655.578 1622.17,656.083 1623.59,656.589 1625.02,657.094 1626.44,657.599 1627.87,658.104 1629.29,658.609 1630.72,659.114 1632.14,659.619 1633.56,660.124 1634.99,660.63 1636.41,661.135 1637.84,661.64 1639.26,662.145 1640.68,662.65 1642.11,663.155 1643.53,663.66 1644.96,664.165 1646.38,664.671 1647.8,665.176 1649.23,665.681 1650.65,666.186 1652.08,666.691 1653.5,667.196 1654.92,667.701 1656.35,668.206 1657.77,668.712 1659.2,669.217 1660.62,669.722 1662.04,670.227 1663.47,670.732 1664.89,671.237 1666.32,671.742 1667.74,672.247 1669.16,672.753 1670.59,673.258 1672.01,673.763 1673.44,674.268 1674.86,674.773 1676.29,675.278 1677.71,675.783 1679.13,676.289 1680.56,676.794 1681.98,677.299 1683.41,677.804 1684.83,678.309 1686.25,678.814 1687.68,679.319 1689.1,679.824 1690.53,680.33 1691.95,680.835 1693.37,681.34 1694.8,681.845 1696.22,682.35 1697.65,682.855 1699.07,683.36 1700.49,683.865 1701.92,684.371 1703.34,684.876 1704.77,685.381 1706.19,685.886 1707.61,686.391 1709.04,686.896 1710.46,687.401 1711.89,687.906 1713.31,688.412 1714.73,688.917 1716.16,689.422 1717.58,689.927 1719.01,690.432 1720.43,690.937 1721.85,691.442 1723.28,691.947 1724.7,692.453 1726.13,692.958 1727.55,693.463 1728.98,693.968 1730.4,694.473 1731.82,694.978 1733.25,695.483 1734.67,695.988 1736.1,696.494 1737.52,696.999 1738.94,697.504 1740.37,698.009 1741.79,698.514 1743.22,699.019 1744.64,699.524 1746.06,700.029 1747.49,700.535 1748.91,701.04 1750.34,701.545 1751.76,702.05 1753.18,702.555 1754.61,703.06 1756.03,703.565 1757.46,704.07 1758.88,704.576 1760.3,705.081 1761.73,705.586 1763.15,706.091 1764.58,706.596 1766,707.101 1767.42,707.606 1768.85,708.111 1770.27,708.617 1771.7,709.122 1773.12,709.627 1774.55,710.132 1775.97,710.637 1777.39,711.142 1778.82,711.647 1780.24,712.152 1781.67,712.658 1783.09,713.163 1784.51,713.668 1785.94,714.173 1787.36,714.678 1788.79,715.183 1790.21,715.688 1791.63,716.193 1793.06,716.699 1794.48,717.204 1795.91,717.709 1797.33,718.214 1798.75,718.719 1800.18,719.224 1801.6,719.729 1803.03,720.235 1804.45,720.74 1805.87,721.245 1807.3,721.75 1808.72,722.255 1810.15,722.76 1811.57,723.265 1812.99,723.77 1814.42,724.276 1815.84,724.781 1817.27,725.286 1818.69,725.791 1820.12,726.296 1821.54,726.801 1822.96,727.306 1824.39,727.811 1825.81,728.317 1827.24,728.822 1828.66,729.327 1830.08,729.832 1831.51,730.337 1832.93,730.842 1834.36,731.347 1835.78,731.852 1837.2,732.358 1838.63,732.863 1840.05,733.368 1841.48,733.873 1842.9,734.378 1844.32,734.883 1845.75,735.388 1847.17,735.893 1848.6,736.399 1850.02,736.904 1851.44,737.409 1852.87,737.914 1854.29,738.419 1855.72,738.924 1857.14,739.429 1858.56,739.934 1859.99,740.44 1861.41,740.945 1862.84,741.45 1864.26,741.955 1865.68,742.46 1867.11,742.965 1868.53,743.47 1869.96,743.975 1871.38,744.481 1872.81,744.986 1874.23,745.491 1875.65,745.996 1877.08,746.501 1878.5,747.006 1879.93,747.511 1881.35,748.016 1882.77,748.522 1884.2,749.027 1885.62,749.532 1887.05,750.037 1888.47,750.542 1889.89,751.047 1891.32,751.552 1892.74,752.057 1894.17,752.563 1895.59,753.068 1897.01,753.573 1898.44,754.078 1899.86,754.583 1901.29,755.088 1902.71,755.593 1904.13,756.098 1905.56,756.604 1906.98,757.109 1908.41,757.614 1909.83,758.119 1911.25,758.624 1912.68,759.129 1914.1,759.634 1915.53,760.139 1916.95,760.645 1918.38,761.15 1919.8,761.655 1921.22,762.16 1922.65,762.665 1924.07,763.17 1925.5,763.675 1926.92,764.181 1928.34,764.686 1929.77,765.191 1931.19,765.696 1932.62,766.201 1934.04,766.706 1935.46,767.211 1936.89,767.716 1938.31,768.222 1939.74,768.727 1941.16,769.232 1942.58,769.737 1944.01,770.242 1945.43,770.747 1946.86,771.252 1948.28,771.757 1949.7,772.263 1951.13,772.768 1952.55,773.273 1953.98,773.778 1955.4,774.283 1956.82,774.788 1958.25,775.293 1959.67,775.798 1961.1,776.304 1962.52,776.809 1963.94,777.314 1965.37,777.819 1966.79,778.324 1968.22,778.829 1969.64,779.334 1971.07,779.839 1972.49,780.345 1973.91,780.85 1975.34,781.355 1976.76,781.86 1978.19,782.365 1979.61,782.87 1981.03,783.375 1982.46,783.88 1983.88,784.386 1985.31,784.891 1986.73,785.396 1988.15,785.901 1989.58,786.406 1991,786.911 1992.43,787.416 1993.85,787.921 1995.27,788.427 1996.7,788.932 1998.12,789.437 1999.55,789.942 2000.97,790.447 2002.39,790.952 2003.82,791.457 2005.24,791.962 2006.67,792.468 2008.09,792.973 2009.51,793.478 2010.94,793.983 2012.36,794.488 2013.79,794.993 2015.21,795.498 2016.64,796.003 2018.06,796.509 2019.48,797.014 2020.91,797.519 2022.33,798.024 2023.76,798.529 2025.18,799.034 2026.6,799.539 2028.03,800.044 2029.45,800.55 2030.88,801.055 2032.3,801.56 2033.72,802.065 2035.15,802.57 2036.57,803.075 2038,803.58 2039.42,804.085 2040.84,804.591 2042.27,805.096 2043.69,805.601 2045.12,806.106 2046.54,806.611 2047.96,807.116 2049.39,807.621 2050.81,808.126 2052.24,808.632 2053.66,809.137 2055.08,809.642 2056.51,810.147 2057.93,810.652 2059.36,811.157 2060.78,811.662 2062.21,812.168 2063.63,812.673 2065.05,813.178 2066.48,813.683 2067.9,814.188 2069.33,814.693 2070.75,815.198 2072.17,815.703 2073.6,816.209 2075.02,816.714 2076.45,817.219 2077.87,817.724 2079.29,818.229 2080.72,818.734 2082.14,819.239 2083.57,819.744 2084.99,820.25 2086.41,820.755 2087.84,821.26 2089.26,821.765 2090.69,822.27 2092.11,822.775 2093.53,823.28 2094.96,823.785 2096.38,824.291 2097.81,824.796 2099.23,825.301 2100.65,825.806 2102.08,826.311 2103.5,826.816 2104.93,827.321 2106.35,827.826 2107.77,828.332 2109.2,828.837 2110.62,829.342 2112.05,829.847 2113.47,830.352 2114.9,830.857 2116.32,831.362 2117.74,831.867 2119.17,832.373 2120.59,832.878 2122.02,833.383 2123.44,833.888 2124.86,834.393 2126.29,834.898 2127.71,835.403 2129.14,835.908 2130.56,836.414 2131.98,836.919 2133.41,837.424 2134.83,837.929 2136.26,838.434 2137.68,838.939 2139.1,839.444 2140.53,839.949 2141.95,840.455 2143.38,840.96 2144.8,841.465 2146.22,841.97 2147.65,842.475 2149.07,842.98 2150.5,843.485 2151.92,843.99 2153.34,844.496 2154.77,845.001 2156.19,845.506 2157.62,846.011 2159.04,846.516 2160.47,847.021 2161.89,847.526 2163.31,848.031 2164.74,848.537 2166.16,849.042 2167.59,849.547 2169.01,850.052 2170.43,850.557 2171.86,851.062 2173.28,851.567 2174.71,852.072 2176.13,852.578 2177.55,853.083 2178.98,853.588 2180.4,854.093 2181.83,854.598 2183.25,855.103 2184.67,855.608 2186.1,856.114 2187.52,856.619 2188.95,857.124 2190.37,857.629 2191.79,858.134 2193.22,858.639 2194.64,859.144 2196.07,859.649 2197.49,860.155 2198.91,860.66 2200.34,861.165 2201.76,861.67 2203.19,862.175 2204.61,862.68 2206.04,863.185 2207.46,863.69 2208.88,864.196 2210.31,864.701 2211.73,865.206 2213.16,865.711 2214.58,866.216 2216,866.721 2217.43,867.226 2218.85,867.731 2220.28,868.237 2221.7,868.742 2223.12,869.247 2224.55,869.752 2225.97,870.257 2227.4,870.762 2228.82,871.267 2230.24,871.772 2231.67,872.278 2233.09,872.783 2234.52,873.288 2235.94,873.793 2237.36,874.298 2238.79,874.803 2240.21,875.308 2241.64,875.813 2243.06,876.319 2244.48,876.824 2245.91,877.329 2247.33,877.834 2248.76,878.339 2250.18,878.844 2251.6,879.349 2253.03,879.854 2254.45,880.36 2255.88,880.865 2257.3,881.37 2258.73,881.875 2260.15,882.38 2261.57,882.885 2263,883.39 2264.42,883.895 2265.85,884.401 2267.27,884.906 2268.69,885.411 2270.12,885.916 2271.54,886.421 2272.97,886.926 2274.39,887.431 2275.81,887.936 2277.24,888.442 2278.66,888.947 2280.09,889.452 2281.51,889.957 2282.93,890.462 2284.36,890.967 2285.78,891.472 2287.21,891.977 2288.63,892.483 "/>
<path clip-path="url(#clip340)" d="M1381.56 251.89 L2277.23 251.89 L2277.23 96.3696 L1381.56 96.3696  Z" fill="#ffffff" fill-rule="evenodd" fill-opacity="1"/>
<polyline clip-path="url(#clip340)" style="stroke:#000000; stroke-linecap:round; stroke-linejoin:round; stroke-width:4; stroke-opacity:1; fill:none" points="1381.56,251.89 2277.23,251.89 2277.23,96.3696 1381.56,96.3696 1381.56,251.89 "/>
<polyline clip-path="url(#clip340)" style="stroke:#009af9; stroke-linecap:round; stroke-linejoin:round; stroke-width:4; stroke-opacity:1; fill:none" points="1406.74,148.21 1557.79,148.21 "/>
<path clip-path="url(#clip340)" d="M1582.96 130.93 L1604.81 130.93 L1604.81 134.865 L1587.64 134.865 L1587.64 145.096 L1604.1 145.096 L1604.1 149.031 L1587.64 149.031 L1587.64 161.554 L1605.23 161.554 L1605.23 165.49 L1582.96 165.49 L1582.96 130.93 Z" fill="#000000" fill-rule="nonzero" fill-opacity="1" /><path clip-path="url(#clip340)" d="M1634.28 139.564 L1624.91 152.179 L1634.77 165.49 L1629.74 165.49 L1622.2 155.304 L1614.65 165.49 L1609.63 165.49 L1619.7 151.925 L1610.48 139.564 L1615.51 139.564 L1622.38 148.8 L1629.26 139.564 L1634.28 139.564 Z" fill="#000000" fill-rule="nonzero" fill-opacity="1" /><path clip-path="url(#clip340)" d="M1678.03 151.462 L1678.03 153.545 L1658.45 153.545 Q1658.73 157.943 1661.09 160.258 Q1663.47 162.55 1667.71 162.55 Q1670.16 162.55 1672.45 161.948 Q1674.77 161.346 1677.04 160.142 L1677.04 164.17 Q1674.74 165.142 1672.34 165.652 Q1669.93 166.161 1667.45 166.161 Q1661.25 166.161 1657.61 162.55 Q1654 158.939 1654 152.781 Q1654 146.416 1657.43 142.689 Q1660.88 138.939 1666.71 138.939 Q1671.94 138.939 1674.98 142.318 Q1678.03 145.675 1678.03 151.462 M1673.77 150.212 Q1673.73 146.717 1671.8 144.633 Q1669.91 142.55 1666.76 142.55 Q1663.19 142.55 1661.04 144.564 Q1658.91 146.578 1658.59 150.235 L1673.77 150.212 Z" fill="#000000" fill-rule="nonzero" fill-opacity="1" /><path clip-path="url(#clip340)" d="M1706.57 149.841 L1706.57 165.49 L1702.31 165.49 L1702.31 149.98 Q1702.31 146.3 1700.88 144.471 Q1699.44 142.642 1696.57 142.642 Q1693.12 142.642 1691.13 144.842 Q1689.14 147.041 1689.14 150.837 L1689.14 165.49 L1684.86 165.49 L1684.86 139.564 L1689.14 139.564 L1689.14 143.592 Q1690.67 141.254 1692.73 140.096 Q1694.81 138.939 1697.52 138.939 Q1701.99 138.939 1704.28 141.717 Q1706.57 144.471 1706.57 149.841 Z" fill="#000000" fill-rule="nonzero" fill-opacity="1" /><path clip-path="url(#clip340)" d="M1737.24 151.462 L1737.24 153.545 L1717.66 153.545 Q1717.94 157.943 1720.3 160.258 Q1722.68 162.55 1726.92 162.55 Q1729.37 162.55 1731.66 161.948 Q1733.98 161.346 1736.25 160.142 L1736.25 164.17 Q1733.96 165.142 1731.55 165.652 Q1729.14 166.161 1726.66 166.161 Q1720.46 166.161 1716.83 162.55 Q1713.22 158.939 1713.22 152.781 Q1713.22 146.416 1716.64 142.689 Q1720.09 138.939 1725.92 138.939 Q1731.16 138.939 1734.19 142.318 Q1737.24 145.675 1737.24 151.462 M1732.98 150.212 Q1732.94 146.717 1731.02 144.633 Q1729.12 142.55 1725.97 142.55 Q1722.41 142.55 1720.25 144.564 Q1718.12 146.578 1717.8 150.235 L1732.98 150.212 Z" fill="#000000" fill-rule="nonzero" fill-opacity="1" /><path clip-path="url(#clip340)" d="M1759.26 143.545 Q1758.54 143.129 1757.68 142.943 Q1756.85 142.735 1755.83 142.735 Q1752.22 142.735 1750.28 145.096 Q1748.35 147.434 1748.35 151.832 L1748.35 165.49 L1744.07 165.49 L1744.07 139.564 L1748.35 139.564 L1748.35 143.592 Q1749.7 141.23 1751.85 140.096 Q1754 138.939 1757.08 138.939 Q1757.52 138.939 1758.05 139.008 Q1758.59 139.055 1759.23 139.17 L1759.26 143.545 Z" fill="#000000" fill-rule="nonzero" fill-opacity="1" /><path clip-path="url(#clip340)" d="M1779.95 152.226 Q1779.95 147.596 1778.03 145.05 Q1776.13 142.504 1772.68 142.504 Q1769.26 142.504 1767.34 145.05 Q1765.44 147.596 1765.44 152.226 Q1765.44 156.832 1767.34 159.378 Q1769.26 161.925 1772.68 161.925 Q1776.13 161.925 1778.03 159.378 Q1779.95 156.832 1779.95 152.226 M1784.21 162.272 Q1784.21 168.892 1781.27 172.11 Q1778.33 175.351 1772.27 175.351 Q1770.02 175.351 1768.03 175.003 Q1766.04 174.679 1764.16 173.985 L1764.16 169.841 Q1766.04 170.86 1767.87 171.346 Q1769.7 171.832 1771.59 171.832 Q1775.78 171.832 1777.87 169.633 Q1779.95 167.457 1779.95 163.036 L1779.95 160.929 Q1778.63 163.221 1776.57 164.355 Q1774.51 165.49 1771.64 165.49 Q1766.87 165.49 1763.96 161.855 Q1761.04 158.221 1761.04 152.226 Q1761.04 146.207 1763.96 142.573 Q1766.87 138.939 1771.64 138.939 Q1774.51 138.939 1776.57 140.073 Q1778.63 141.207 1779.95 143.499 L1779.95 139.564 L1784.21 139.564 L1784.21 162.272 Z" fill="#000000" fill-rule="nonzero" fill-opacity="1" /><path clip-path="url(#clip340)" d="M1803.77 167.897 Q1801.97 172.527 1800.25 173.939 Q1798.54 175.351 1795.67 175.351 L1792.27 175.351 L1792.27 171.786 L1794.77 171.786 Q1796.53 171.786 1797.5 170.952 Q1798.47 170.119 1799.65 167.017 L1800.41 165.073 L1789.93 139.564 L1794.44 139.564 L1802.54 159.841 L1810.65 139.564 L1815.16 139.564 L1803.77 167.897 Z" fill="#000000" fill-rule="nonzero" fill-opacity="1" /><polyline clip-path="url(#clip340)" style="stroke:#e26f46; stroke-linecap:round; stroke-linejoin:round; stroke-width:4; stroke-opacity:1; fill:none" points="1406.74,200.05 1557.79,200.05 "/>
<path clip-path="url(#clip340)" d="M1601.87 204.066 Q1601.87 199.436 1599.95 196.89 Q1598.05 194.344 1594.61 194.344 Q1591.18 194.344 1589.26 196.89 Q1587.36 199.436 1587.36 204.066 Q1587.36 208.672 1589.26 211.218 Q1591.18 213.765 1594.61 213.765 Q1598.05 213.765 1599.95 211.218 Q1601.87 208.672 1601.87 204.066 M1606.13 214.112 Q1606.13 220.732 1603.19 223.95 Q1600.25 227.191 1594.19 227.191 Q1591.94 227.191 1589.95 226.843 Q1587.96 226.519 1586.09 225.825 L1586.09 221.681 Q1587.96 222.7 1589.79 223.186 Q1591.62 223.672 1593.52 223.672 Q1597.71 223.672 1599.79 221.473 Q1601.87 219.297 1601.87 214.876 L1601.87 212.769 Q1600.55 215.061 1598.49 216.195 Q1596.43 217.33 1593.56 217.33 Q1588.79 217.33 1585.88 213.695 Q1582.96 210.061 1582.96 204.066 Q1582.96 198.047 1585.88 194.413 Q1588.79 190.779 1593.56 190.779 Q1596.43 190.779 1598.49 191.913 Q1600.55 193.047 1601.87 195.339 L1601.87 191.404 L1606.13 191.404 L1606.13 214.112 Z" fill="#000000" fill-rule="nonzero" fill-opacity="1" /><path clip-path="url(#clip340)" d="M1630.53 195.802 L1660.21 195.802 L1660.21 199.691 L1630.53 199.691 L1630.53 195.802 M1630.53 205.246 L1660.21 205.246 L1660.21 209.181 L1630.53 209.181 L1630.53 205.246 Z" fill="#000000" fill-rule="nonzero" fill-opacity="1" /><path clip-path="url(#clip340)" d="M1682.61 202.445 L1695.09 202.445 L1695.09 206.242 L1682.61 206.242 L1682.61 202.445 Z" fill="#000000" fill-rule="nonzero" fill-opacity="1" /><path clip-path="url(#clip340)" d="M1712.47 185.848 Q1708.86 185.848 1707.04 189.413 Q1705.23 192.955 1705.23 200.084 Q1705.23 207.191 1707.04 210.756 Q1708.86 214.297 1712.47 214.297 Q1716.11 214.297 1717.91 210.756 Q1719.74 207.191 1719.74 200.084 Q1719.74 192.955 1717.91 189.413 Q1716.11 185.848 1712.47 185.848 M1712.47 182.145 Q1718.29 182.145 1721.34 186.751 Q1724.42 191.334 1724.42 200.084 Q1724.42 208.811 1721.34 213.418 Q1718.29 218.001 1712.47 218.001 Q1706.66 218.001 1703.59 213.418 Q1700.53 208.811 1700.53 200.084 Q1700.53 191.334 1703.59 186.751 Q1706.66 182.145 1712.47 182.145 Z" fill="#000000" fill-rule="nonzero" fill-opacity="1" /><path clip-path="url(#clip340)" d="M1732.64 211.45 L1737.52 211.45 L1737.52 217.33 L1732.64 217.33 L1732.64 211.45 Z" fill="#000000" fill-rule="nonzero" fill-opacity="1" /><path clip-path="url(#clip340)" d="M1757.71 185.848 Q1754.09 185.848 1752.27 189.413 Q1750.46 192.955 1750.46 200.084 Q1750.46 207.191 1752.27 210.756 Q1754.09 214.297 1757.71 214.297 Q1761.34 214.297 1763.15 210.756 Q1764.97 207.191 1764.97 200.084 Q1764.97 192.955 1763.15 189.413 Q1761.34 185.848 1757.71 185.848 M1757.71 182.145 Q1763.52 182.145 1766.57 186.751 Q1769.65 191.334 1769.65 200.084 Q1769.65 208.811 1766.57 213.418 Q1763.52 218.001 1757.71 218.001 Q1751.9 218.001 1748.82 213.418 Q1745.76 208.811 1745.76 200.084 Q1745.76 191.334 1748.82 186.751 Q1751.9 182.145 1757.71 182.145 Z" fill="#000000" fill-rule="nonzero" fill-opacity="1" /><path clip-path="url(#clip340)" d="M1776.69 182.77 L1798.91 182.77 L1798.91 184.76 L1786.36 217.33 L1781.48 217.33 L1793.28 186.705 L1776.69 186.705 L1776.69 182.77 Z" fill="#000000" fill-rule="nonzero" fill-opacity="1" /><path clip-path="url(#clip340)" d="M1812.06 213.394 L1828.38 213.394 L1828.38 217.33 L1806.43 217.33 L1806.43 213.394 Q1809.09 210.64 1813.68 206.01 Q1818.28 201.357 1819.47 200.015 Q1821.71 197.492 1822.59 195.756 Q1823.49 193.996 1823.49 192.307 Q1823.49 189.552 1821.55 187.816 Q1819.63 186.08 1816.53 186.08 Q1814.33 186.08 1811.87 186.844 Q1809.44 187.607 1806.66 189.158 L1806.66 184.436 Q1809.49 183.302 1811.94 182.723 Q1814.4 182.145 1816.43 182.145 Q1821.8 182.145 1825 184.83 Q1828.19 187.515 1828.19 192.006 Q1828.19 194.135 1827.38 196.057 Q1826.59 197.955 1824.49 200.547 Q1823.91 201.219 1820.81 204.436 Q1817.71 207.631 1812.06 213.394 Z" fill="#000000" fill-rule="nonzero" fill-opacity="1" /><path clip-path="url(#clip340)" d="M1852.36 198.695 Q1855.71 199.413 1857.59 201.681 Q1859.49 203.95 1859.49 207.283 Q1859.49 212.399 1855.97 215.2 Q1852.45 218.001 1845.97 218.001 Q1843.79 218.001 1841.48 217.561 Q1839.19 217.144 1836.73 216.288 L1836.73 211.774 Q1838.68 212.908 1840.99 213.487 Q1843.31 214.066 1845.83 214.066 Q1850.23 214.066 1852.52 212.33 Q1854.84 210.593 1854.84 207.283 Q1854.84 204.228 1852.68 202.515 Q1850.55 200.779 1846.73 200.779 L1842.71 200.779 L1842.71 196.936 L1846.92 196.936 Q1850.37 196.936 1852.2 195.57 Q1854.03 194.182 1854.03 191.589 Q1854.03 188.927 1852.13 187.515 Q1850.25 186.08 1846.73 186.08 Q1844.81 186.08 1842.61 186.496 Q1840.41 186.913 1837.78 187.793 L1837.78 183.626 Q1840.44 182.885 1842.75 182.515 Q1845.09 182.145 1847.15 182.145 Q1852.47 182.145 1855.58 184.575 Q1858.68 186.982 1858.68 191.103 Q1858.68 193.973 1857.03 195.964 Q1855.39 197.932 1852.36 198.695 Z" fill="#000000" fill-rule="nonzero" fill-opacity="1" /><path clip-path="url(#clip340)" d="M1878.35 185.848 Q1874.74 185.848 1872.91 189.413 Q1871.11 192.955 1871.11 200.084 Q1871.11 207.191 1872.91 210.756 Q1874.74 214.297 1878.35 214.297 Q1881.99 214.297 1883.79 210.756 Q1885.62 207.191 1885.62 200.084 Q1885.62 192.955 1883.79 189.413 Q1881.99 185.848 1878.35 185.848 M1878.35 182.145 Q1884.16 182.145 1887.22 186.751 Q1890.3 191.334 1890.3 200.084 Q1890.3 208.811 1887.22 213.418 Q1884.16 218.001 1878.35 218.001 Q1872.54 218.001 1869.46 213.418 Q1866.41 208.811 1866.41 200.084 Q1866.41 191.334 1869.46 186.751 Q1872.54 182.145 1878.35 182.145 Z" fill="#000000" fill-rule="nonzero" fill-opacity="1" /><path clip-path="url(#clip340)" d="M1908.52 185.848 Q1904.9 185.848 1903.08 189.413 Q1901.27 192.955 1901.27 200.084 Q1901.27 207.191 1903.08 210.756 Q1904.9 214.297 1908.52 214.297 Q1912.15 214.297 1913.96 210.756 Q1915.78 207.191 1915.78 200.084 Q1915.78 192.955 1913.96 189.413 Q1912.15 185.848 1908.52 185.848 M1908.52 182.145 Q1914.33 182.145 1917.38 186.751 Q1920.46 191.334 1920.46 200.084 Q1920.46 208.811 1917.38 213.418 Q1914.33 218.001 1908.52 218.001 Q1902.71 218.001 1899.63 213.418 Q1896.57 208.811 1896.57 200.084 Q1896.57 191.334 1899.63 186.751 Q1902.71 182.145 1908.52 182.145 Z" fill="#000000" fill-rule="nonzero" fill-opacity="1" /><path clip-path="url(#clip340)" d="M1927.5 182.77 L1949.72 182.77 L1949.72 184.76 L1937.17 217.33 L1932.29 217.33 L1944.09 186.705 L1927.5 186.705 L1927.5 182.77 Z" fill="#000000" fill-rule="nonzero" fill-opacity="1" /><path clip-path="url(#clip340)" d="M1962.87 213.394 L1979.19 213.394 L1979.19 217.33 L1957.24 217.33 L1957.24 213.394 Q1959.9 210.64 1964.49 206.01 Q1969.09 201.357 1970.27 200.015 Q1972.52 197.492 1973.4 195.756 Q1974.3 193.996 1974.3 192.307 Q1974.3 189.552 1972.36 187.816 Q1970.44 186.08 1967.33 186.08 Q1965.14 186.08 1962.68 186.844 Q1960.25 187.607 1957.47 189.158 L1957.47 184.436 Q1960.3 183.302 1962.75 182.723 Q1965.2 182.145 1967.24 182.145 Q1972.61 182.145 1975.81 184.83 Q1979 187.515 1979 192.006 Q1979 194.135 1978.19 196.057 Q1977.4 197.955 1975.3 200.547 Q1974.72 201.219 1971.62 204.436 Q1968.52 207.631 1962.87 213.394 Z" fill="#000000" fill-rule="nonzero" fill-opacity="1" /><path clip-path="url(#clip340)" d="M2001.85 186.844 L1990.04 205.293 L2001.85 205.293 L2001.85 186.844 M2000.62 182.77 L2006.5 182.77 L2006.5 205.293 L2011.43 205.293 L2011.43 209.181 L2006.5 209.181 L2006.5 217.33 L2001.85 217.33 L2001.85 209.181 L1986.25 209.181 L1986.25 204.668 L2000.62 182.77 Z" fill="#000000" fill-rule="nonzero" fill-opacity="1" /><path clip-path="url(#clip340)" d="M2019.3 216.612 L2019.3 212.353 Q2021.06 213.186 2022.87 213.626 Q2024.67 214.066 2026.41 214.066 Q2031.04 214.066 2033.47 210.964 Q2035.92 207.839 2036.27 201.496 Q2034.93 203.487 2032.87 204.552 Q2030.81 205.617 2028.31 205.617 Q2023.12 205.617 2020.09 202.492 Q2017.08 199.344 2017.08 193.904 Q2017.08 188.58 2020.23 185.362 Q2023.38 182.145 2028.61 182.145 Q2034.6 182.145 2037.75 186.751 Q2040.92 191.334 2040.92 200.084 Q2040.92 208.256 2037.03 213.14 Q2033.17 218.001 2026.62 218.001 Q2024.86 218.001 2023.05 217.654 Q2021.25 217.306 2019.3 216.612 M2028.61 201.959 Q2031.76 201.959 2033.58 199.806 Q2035.44 197.654 2035.44 193.904 Q2035.44 190.177 2033.58 188.024 Q2031.76 185.848 2028.61 185.848 Q2025.46 185.848 2023.61 188.024 Q2021.78 190.177 2021.78 193.904 Q2021.78 197.654 2023.61 199.806 Q2025.46 201.959 2028.61 201.959 Z" fill="#000000" fill-rule="nonzero" fill-opacity="1" /><path clip-path="url(#clip340)" d="M2059.32 200.918 Q2055.99 200.918 2054.07 202.7 Q2052.17 204.482 2052.17 207.607 Q2052.17 210.732 2054.07 212.515 Q2055.99 214.297 2059.32 214.297 Q2062.66 214.297 2064.58 212.515 Q2066.5 210.709 2066.5 207.607 Q2066.5 204.482 2064.58 202.7 Q2062.68 200.918 2059.32 200.918 M2054.65 198.927 Q2051.64 198.186 2049.95 196.126 Q2048.28 194.066 2048.28 191.103 Q2048.28 186.959 2051.22 184.552 Q2054.19 182.145 2059.32 182.145 Q2064.49 182.145 2067.43 184.552 Q2070.37 186.959 2070.37 191.103 Q2070.37 194.066 2068.68 196.126 Q2067.01 198.186 2064.02 198.927 Q2067.4 199.714 2069.28 202.006 Q2071.18 204.297 2071.18 207.607 Q2071.18 212.631 2068.1 215.316 Q2065.04 218.001 2059.32 218.001 Q2053.61 218.001 2050.53 215.316 Q2047.47 212.631 2047.47 207.607 Q2047.47 204.297 2049.37 202.006 Q2051.27 199.714 2054.65 198.927 M2052.94 191.543 Q2052.94 194.228 2054.6 195.732 Q2056.29 197.237 2059.32 197.237 Q2062.33 197.237 2064.02 195.732 Q2065.74 194.228 2065.74 191.543 Q2065.74 188.857 2064.02 187.353 Q2062.33 185.848 2059.32 185.848 Q2056.29 185.848 2054.6 187.353 Q2052.94 188.857 2052.94 191.543 Z" fill="#000000" fill-rule="nonzero" fill-opacity="1" /><path clip-path="url(#clip340)" d="M2079.53 182.77 L2097.89 182.77 L2097.89 186.705 L2083.82 186.705 L2083.82 195.177 Q2084.83 194.83 2085.85 194.668 Q2086.87 194.482 2087.89 194.482 Q2093.68 194.482 2097.06 197.654 Q2100.44 200.825 2100.44 206.242 Q2100.44 211.82 2096.96 214.922 Q2093.49 218.001 2087.17 218.001 Q2085 218.001 2082.73 217.63 Q2080.48 217.26 2078.07 216.519 L2078.07 211.82 Q2080.16 212.955 2082.38 213.51 Q2084.6 214.066 2087.08 214.066 Q2091.08 214.066 2093.42 211.959 Q2095.76 209.853 2095.76 206.242 Q2095.76 202.631 2093.42 200.524 Q2091.08 198.418 2087.08 198.418 Q2085.2 198.418 2083.33 198.834 Q2081.48 199.251 2079.53 200.131 L2079.53 182.77 Z" fill="#000000" fill-rule="nonzero" fill-opacity="1" /><path clip-path="url(#clip340)" d="M2123.82 198.695 Q2127.17 199.413 2129.05 201.681 Q2130.94 203.95 2130.94 207.283 Q2130.94 212.399 2127.43 215.2 Q2123.91 218.001 2117.43 218.001 Q2115.25 218.001 2112.94 217.561 Q2110.64 217.144 2108.19 216.288 L2108.19 211.774 Q2110.13 212.908 2112.45 213.487 Q2114.76 214.066 2117.29 214.066 Q2121.69 214.066 2123.98 212.33 Q2126.29 210.593 2126.29 207.283 Q2126.29 204.228 2124.14 202.515 Q2122.01 200.779 2118.19 200.779 L2114.16 200.779 L2114.16 196.936 L2118.38 196.936 Q2121.82 196.936 2123.65 195.57 Q2125.48 194.182 2125.48 191.589 Q2125.48 188.927 2123.58 187.515 Q2121.71 186.08 2118.19 186.08 Q2116.27 186.08 2114.07 186.496 Q2111.87 186.913 2109.23 187.793 L2109.23 183.626 Q2111.89 182.885 2114.21 182.515 Q2116.55 182.145 2118.61 182.145 Q2123.93 182.145 2127.03 184.575 Q2130.13 186.982 2130.13 191.103 Q2130.13 193.973 2128.49 195.964 Q2126.85 197.932 2123.82 198.695 Z" fill="#000000" fill-rule="nonzero" fill-opacity="1" /><path clip-path="url(#clip340)" d="M2140.62 213.394 L2148.26 213.394 L2148.26 187.029 L2139.95 188.695 L2139.95 184.436 L2148.21 182.77 L2152.89 182.77 L2152.89 213.394 L2160.53 213.394 L2160.53 217.33 L2140.62 217.33 L2140.62 213.394 Z" fill="#000000" fill-rule="nonzero" fill-opacity="1" /><path clip-path="url(#clip340)" d="M2180.55 198.186 Q2177.4 198.186 2175.55 200.339 Q2173.72 202.492 2173.72 206.242 Q2173.72 209.968 2175.55 212.144 Q2177.4 214.297 2180.55 214.297 Q2183.7 214.297 2185.53 212.144 Q2187.38 209.968 2187.38 206.242 Q2187.38 202.492 2185.53 200.339 Q2183.7 198.186 2180.55 198.186 M2189.83 183.533 L2189.83 187.793 Q2188.07 186.959 2186.27 186.52 Q2184.49 186.08 2182.73 186.08 Q2178.1 186.08 2175.64 189.205 Q2173.21 192.33 2172.87 198.649 Q2174.23 196.635 2176.29 195.57 Q2178.35 194.482 2180.83 194.482 Q2186.04 194.482 2189.05 197.654 Q2192.08 200.802 2192.08 206.242 Q2192.08 211.566 2188.93 214.783 Q2185.78 218.001 2180.55 218.001 Q2174.56 218.001 2171.38 213.418 Q2168.21 208.811 2168.21 200.084 Q2168.21 191.89 2172.1 187.029 Q2175.99 182.145 2182.54 182.145 Q2184.3 182.145 2186.08 182.492 Q2187.89 182.839 2189.83 183.533 Z" fill="#000000" fill-rule="nonzero" fill-opacity="1" /><path clip-path="url(#clip340)" d="M2200.27 216.612 L2200.27 212.353 Q2202.03 213.186 2203.84 213.626 Q2205.64 214.066 2207.38 214.066 Q2212.01 214.066 2214.44 210.964 Q2216.89 207.839 2217.24 201.496 Q2215.9 203.487 2213.84 204.552 Q2211.78 205.617 2209.28 205.617 Q2204.09 205.617 2201.06 202.492 Q2198.05 199.344 2198.05 193.904 Q2198.05 188.58 2201.2 185.362 Q2204.35 182.145 2209.58 182.145 Q2215.57 182.145 2218.72 186.751 Q2221.89 191.334 2221.89 200.084 Q2221.89 208.256 2218 213.14 Q2214.14 218.001 2207.59 218.001 Q2205.83 218.001 2204.02 217.654 Q2202.22 217.306 2200.27 216.612 M2209.58 201.959 Q2212.73 201.959 2214.56 199.806 Q2216.41 197.654 2216.41 193.904 Q2216.41 190.177 2214.56 188.024 Q2212.73 185.848 2209.58 185.848 Q2206.43 185.848 2204.58 188.024 Q2202.75 190.177 2202.75 193.904 Q2202.75 197.654 2204.58 199.806 Q2206.43 201.959 2209.58 201.959 Z" fill="#000000" fill-rule="nonzero" fill-opacity="1" /><path clip-path="url(#clip340)" d="M2230.44 216.612 L2230.44 212.353 Q2232.19 213.186 2234 213.626 Q2235.81 214.066 2237.54 214.066 Q2242.17 214.066 2244.6 210.964 Q2247.06 207.839 2247.4 201.496 Q2246.06 203.487 2244 204.552 Q2241.94 205.617 2239.44 205.617 Q2234.25 205.617 2231.22 202.492 Q2228.21 199.344 2228.21 193.904 Q2228.21 188.58 2231.36 185.362 Q2234.51 182.145 2239.74 182.145 Q2245.74 182.145 2248.88 186.751 Q2252.06 191.334 2252.06 200.084 Q2252.06 208.256 2248.17 213.14 Q2244.3 218.001 2237.75 218.001 Q2235.99 218.001 2234.19 217.654 Q2232.38 217.306 2230.44 216.612 M2239.74 201.959 Q2242.89 201.959 2244.72 199.806 Q2246.57 197.654 2246.57 193.904 Q2246.57 190.177 2244.72 188.024 Q2242.89 185.848 2239.74 185.848 Q2236.59 185.848 2234.74 188.024 Q2232.91 190.177 2232.91 193.904 Q2232.91 197.654 2234.74 199.806 Q2236.59 201.959 2239.74 201.959 Z" fill="#000000" fill-rule="nonzero" fill-opacity="1" /></svg>
