<?xml version="1.0" encoding="utf-8"?>
<svg xmlns="http://www.w3.org/2000/svg" xmlns:xlink="http://www.w3.org/1999/xlink" width="600" height="400" viewBox="0 0 2400 1600">
<defs>
  <clipPath id="clip380">
    <rect x="0" y="0" width="2400" height="1600"/>
  </clipPath>
</defs>
<path clip-path="url(#clip380)" d="M0 1600 L2400 1600 L2400 0 L0 0  Z" fill="#ffffff" fill-rule="evenodd" fill-opacity="1"/>
<defs>
  <clipPath id="clip381">
    <rect x="480" y="0" width="1681" height="1600"/>
  </clipPath>
</defs>
<path clip-path="url(#clip380)" d="M213.607 1486.45 L2352.76 1486.45 L2352.76 47.2441 L213.607 47.2441  Z" fill="#ffffff" fill-rule="evenodd" fill-opacity="1"/>
<defs>
  <clipPath id="clip382">
    <rect x="213" y="47" width="2140" height="1440"/>
  </clipPath>
</defs>
<polyline clip-path="url(#clip382)" style="stroke:#000000; stroke-linecap:round; stroke-linejoin:round; stroke-width:2; stroke-opacity:0.1; fill:none" points="274.149,1486.45 274.149,47.2441 "/>
<polyline clip-path="url(#clip382)" style="stroke:#000000; stroke-linecap:round; stroke-linejoin:round; stroke-width:2; stroke-opacity:0.1; fill:none" points="946.389,1486.45 946.389,47.2441 "/>
<polyline clip-path="url(#clip382)" style="stroke:#000000; stroke-linecap:round; stroke-linejoin:round; stroke-width:2; stroke-opacity:0.1; fill:none" points="1618.63,1486.45 1618.63,47.2441 "/>
<polyline clip-path="url(#clip382)" style="stroke:#000000; stroke-linecap:round; stroke-linejoin:round; stroke-width:2; stroke-opacity:0.1; fill:none" points="2290.87,1486.45 2290.87,47.2441 "/>
<polyline clip-path="url(#clip380)" style="stroke:#000000; stroke-linecap:round; stroke-linejoin:round; stroke-width:4; stroke-opacity:1; fill:none" points="213.607,1486.45 2352.76,1486.45 "/>
<polyline clip-path="url(#clip380)" style="stroke:#000000; stroke-linecap:round; stroke-linejoin:round; stroke-width:4; stroke-opacity:1; fill:none" points="274.149,1486.45 274.149,1467.55 "/>
<polyline clip-path="url(#clip380)" style="stroke:#000000; stroke-linecap:round; stroke-linejoin:round; stroke-width:4; stroke-opacity:1; fill:none" points="946.389,1486.45 946.389,1467.55 "/>
<polyline clip-path="url(#clip380)" style="stroke:#000000; stroke-linecap:round; stroke-linejoin:round; stroke-width:4; stroke-opacity:1; fill:none" points="1618.63,1486.45 1618.63,1467.55 "/>
<polyline clip-path="url(#clip380)" style="stroke:#000000; stroke-linecap:round; stroke-linejoin:round; stroke-width:4; stroke-opacity:1; fill:none" points="2290.87,1486.45 2290.87,1467.55 "/>
<path clip-path="url(#clip380)" d="M274.149 1517.37 Q270.538 1517.37 268.71 1520.93 Q266.904 1524.47 266.904 1531.6 Q266.904 1538.71 268.71 1542.27 Q270.538 1545.82 274.149 1545.82 Q277.784 1545.82 279.589 1542.27 Q281.418 1538.71 281.418 1531.6 Q281.418 1524.47 279.589 1520.93 Q277.784 1517.37 274.149 1517.37 M274.149 1513.66 Q279.96 1513.66 283.015 1518.27 Q286.094 1522.85 286.094 1531.6 Q286.094 1540.33 283.015 1544.94 Q279.96 1549.52 274.149 1549.52 Q268.339 1549.52 265.261 1544.94 Q262.205 1540.33 262.205 1531.6 Q262.205 1522.85 265.261 1518.27 Q268.339 1513.66 274.149 1513.66 Z" fill="#000000" fill-rule="nonzero" fill-opacity="1" /><path clip-path="url(#clip380)" d="M921.089 1514.29 L939.445 1514.29 L939.445 1518.22 L925.371 1518.22 L925.371 1526.7 Q926.39 1526.35 927.408 1526.19 Q928.427 1526 929.445 1526 Q935.232 1526 938.612 1529.17 Q941.991 1532.34 941.991 1537.76 Q941.991 1543.34 938.519 1546.44 Q935.047 1549.52 928.727 1549.52 Q926.552 1549.52 924.283 1549.15 Q922.038 1548.78 919.63 1548.04 L919.63 1543.34 Q921.714 1544.47 923.936 1545.03 Q926.158 1545.58 928.635 1545.58 Q932.64 1545.58 934.977 1543.48 Q937.315 1541.37 937.315 1537.76 Q937.315 1534.15 934.977 1532.04 Q932.64 1529.94 928.635 1529.94 Q926.76 1529.94 924.885 1530.35 Q923.033 1530.77 921.089 1531.65 L921.089 1514.29 Z" fill="#000000" fill-rule="nonzero" fill-opacity="1" /><path clip-path="url(#clip380)" d="M961.204 1517.37 Q957.593 1517.37 955.764 1520.93 Q953.959 1524.47 953.959 1531.6 Q953.959 1538.71 955.764 1542.27 Q957.593 1545.82 961.204 1545.82 Q964.838 1545.82 966.644 1542.27 Q968.473 1538.71 968.473 1531.6 Q968.473 1524.47 966.644 1520.93 Q964.838 1517.37 961.204 1517.37 M961.204 1513.66 Q967.014 1513.66 970.07 1518.27 Q973.149 1522.85 973.149 1531.6 Q973.149 1540.33 970.07 1544.94 Q967.014 1549.52 961.204 1549.52 Q955.394 1549.52 952.315 1544.94 Q949.26 1540.33 949.26 1531.6 Q949.26 1522.85 952.315 1518.27 Q955.394 1513.66 961.204 1513.66 Z" fill="#000000" fill-rule="nonzero" fill-opacity="1" /><path clip-path="url(#clip380)" d="M1578.24 1544.91 L1585.88 1544.91 L1585.88 1518.55 L1577.56 1520.21 L1577.56 1515.95 L1585.83 1514.29 L1590.5 1514.29 L1590.5 1544.91 L1598.14 1544.91 L1598.14 1548.85 L1578.24 1548.85 L1578.24 1544.91 Z" fill="#000000" fill-rule="nonzero" fill-opacity="1" /><path clip-path="url(#clip380)" d="M1617.59 1517.37 Q1613.98 1517.37 1612.15 1520.93 Q1610.34 1524.47 1610.34 1531.6 Q1610.34 1538.71 1612.15 1542.27 Q1613.98 1545.82 1617.59 1545.82 Q1621.22 1545.82 1623.03 1542.27 Q1624.86 1538.71 1624.86 1531.6 Q1624.86 1524.47 1623.03 1520.93 Q1621.22 1517.37 1617.59 1517.37 M1617.59 1513.66 Q1623.4 1513.66 1626.45 1518.27 Q1629.53 1522.85 1629.53 1531.6 Q1629.53 1540.33 1626.45 1544.94 Q1623.4 1549.52 1617.59 1549.52 Q1611.78 1549.52 1608.7 1544.94 Q1605.64 1540.33 1605.64 1531.6 Q1605.64 1522.85 1608.7 1518.27 Q1611.78 1513.66 1617.59 1513.66 Z" fill="#000000" fill-rule="nonzero" fill-opacity="1" /><path clip-path="url(#clip380)" d="M1647.75 1517.37 Q1644.14 1517.37 1642.31 1520.93 Q1640.5 1524.47 1640.5 1531.6 Q1640.5 1538.71 1642.31 1542.27 Q1644.14 1545.82 1647.75 1545.82 Q1651.38 1545.82 1653.19 1542.27 Q1655.02 1538.71 1655.02 1531.6 Q1655.02 1524.47 1653.19 1520.93 Q1651.38 1517.37 1647.75 1517.37 M1647.75 1513.66 Q1653.56 1513.66 1656.62 1518.27 Q1659.69 1522.85 1659.69 1531.6 Q1659.69 1540.33 1656.62 1544.94 Q1653.56 1549.52 1647.75 1549.52 Q1641.94 1549.52 1638.86 1544.94 Q1635.81 1540.33 1635.81 1531.6 Q1635.81 1522.85 1638.86 1518.27 Q1641.94 1513.66 1647.75 1513.66 Z" fill="#000000" fill-rule="nonzero" fill-opacity="1" /><path clip-path="url(#clip380)" d="M2250.48 1544.91 L2258.12 1544.91 L2258.12 1518.55 L2249.8 1520.21 L2249.8 1515.95 L2258.07 1514.29 L2262.74 1514.29 L2262.74 1544.91 L2270.38 1544.91 L2270.38 1548.85 L2250.48 1548.85 L2250.48 1544.91 Z" fill="#000000" fill-rule="nonzero" fill-opacity="1" /><path clip-path="url(#clip380)" d="M2279.87 1514.29 L2298.23 1514.29 L2298.23 1518.22 L2284.16 1518.22 L2284.16 1526.7 Q2285.18 1526.35 2286.19 1526.19 Q2287.21 1526 2288.23 1526 Q2294.02 1526 2297.4 1529.17 Q2300.78 1532.34 2300.78 1537.76 Q2300.78 1543.34 2297.3 1546.44 Q2293.83 1549.52 2287.51 1549.52 Q2285.34 1549.52 2283.07 1549.15 Q2280.82 1548.78 2278.42 1548.04 L2278.42 1543.34 Q2280.5 1544.47 2282.72 1545.03 Q2284.94 1545.58 2287.42 1545.58 Q2291.43 1545.58 2293.76 1543.48 Q2296.1 1541.37 2296.1 1537.76 Q2296.1 1534.15 2293.76 1532.04 Q2291.43 1529.94 2287.42 1529.94 Q2285.55 1529.94 2283.67 1530.35 Q2281.82 1530.77 2279.87 1531.65 L2279.87 1514.29 Z" fill="#000000" fill-rule="nonzero" fill-opacity="1" /><path clip-path="url(#clip380)" d="M2319.99 1517.37 Q2316.38 1517.37 2314.55 1520.93 Q2312.74 1524.47 2312.74 1531.6 Q2312.74 1538.71 2314.55 1542.27 Q2316.38 1545.82 2319.99 1545.82 Q2323.62 1545.82 2325.43 1542.27 Q2327.26 1538.71 2327.26 1531.6 Q2327.26 1524.47 2325.43 1520.93 Q2323.62 1517.37 2319.99 1517.37 M2319.99 1513.66 Q2325.8 1513.66 2328.86 1518.27 Q2331.93 1522.85 2331.93 1531.6 Q2331.93 1540.33 2328.86 1544.94 Q2325.8 1549.52 2319.99 1549.52 Q2314.18 1549.52 2311.1 1544.94 Q2308.05 1540.33 2308.05 1531.6 Q2308.05 1522.85 2311.1 1518.27 Q2314.18 1513.66 2319.99 1513.66 Z" fill="#000000" fill-rule="nonzero" fill-opacity="1" /><polyline clip-path="url(#clip382)" style="stroke:#000000; stroke-linecap:round; stroke-linejoin:round; stroke-width:2; stroke-opacity:0.1; fill:none" points="213.607,936.337 2352.76,936.337 "/>
<polyline clip-path="url(#clip382)" style="stroke:#000000; stroke-linecap:round; stroke-linejoin:round; stroke-width:2; stroke-opacity:0.1; fill:none" points="213.607,150.853 2352.76,150.853 "/>
<polyline clip-path="url(#clip380)" style="stroke:#000000; stroke-linecap:round; stroke-linejoin:round; stroke-width:4; stroke-opacity:1; fill:none" points="213.607,1486.45 213.607,47.2441 "/>
<polyline clip-path="url(#clip380)" style="stroke:#000000; stroke-linecap:round; stroke-linejoin:round; stroke-width:4; stroke-opacity:1; fill:none" points="213.607,936.337 232.505,936.337 "/>
<polyline clip-path="url(#clip380)" style="stroke:#000000; stroke-linecap:round; stroke-linejoin:round; stroke-width:4; stroke-opacity:1; fill:none" points="213.607,150.853 232.505,150.853 "/>
<path clip-path="url(#clip380)" d="M51.6634 956.129 L59.3023 956.129 L59.3023 929.764 L50.9921 931.431 L50.9921 927.171 L59.256 925.505 L63.9319 925.505 L63.9319 956.129 L71.5707 956.129 L71.5707 960.065 L51.6634 960.065 L51.6634 956.129 Z" fill="#000000" fill-rule="nonzero" fill-opacity="1" /><path clip-path="url(#clip380)" d="M91.0151 928.583 Q87.404 928.583 85.5753 932.148 Q83.7697 935.69 83.7697 942.819 Q83.7697 949.926 85.5753 953.491 Q87.404 957.032 91.0151 957.032 Q94.6493 957.032 96.4548 953.491 Q98.2835 949.926 98.2835 942.819 Q98.2835 935.69 96.4548 932.148 Q94.6493 928.583 91.0151 928.583 M91.0151 924.88 Q96.8252 924.88 99.8808 929.486 Q102.959 934.069 102.959 942.819 Q102.959 951.546 99.8808 956.153 Q96.8252 960.736 91.0151 960.736 Q85.2049 960.736 82.1262 956.153 Q79.0707 951.546 79.0707 942.819 Q79.0707 934.069 82.1262 929.486 Q85.2049 924.88 91.0151 924.88 Z" fill="#000000" fill-rule="nonzero" fill-opacity="1" /><path clip-path="url(#clip380)" d="M102.959 918.981 L127.071 918.981 L127.071 922.178 L102.959 922.178 L102.959 918.981 Z" fill="#000000" fill-rule="nonzero" fill-opacity="1" /><path clip-path="url(#clip380)" d="M135.929 929.457 L142.136 929.457 L142.136 908.035 L135.384 909.389 L135.384 905.928 L142.098 904.574 L145.898 904.574 L145.898 929.457 L152.104 929.457 L152.104 932.654 L135.929 932.654 L135.929 929.457 Z" fill="#000000" fill-rule="nonzero" fill-opacity="1" /><path clip-path="url(#clip380)" d="M167.903 907.076 Q164.969 907.076 163.483 909.972 Q162.016 912.85 162.016 918.642 Q162.016 924.416 163.483 927.313 Q164.969 930.19 167.903 930.19 Q170.855 930.19 172.322 927.313 Q173.808 924.416 173.808 918.642 Q173.808 912.85 172.322 909.972 Q170.855 907.076 167.903 907.076 M167.903 904.066 Q172.623 904.066 175.106 907.809 Q177.607 911.533 177.607 918.642 Q177.607 925.733 175.106 929.476 Q172.623 933.2 167.903 933.2 Q163.182 933.2 160.68 929.476 Q158.198 925.733 158.198 918.642 Q158.198 911.533 160.68 907.809 Q163.182 904.066 167.903 904.066 Z" fill="#000000" fill-rule="nonzero" fill-opacity="1" /><path clip-path="url(#clip380)" d="M76.9787 170.645 L84.6175 170.645 L84.6175 144.28 L76.3074 145.946 L76.3074 141.687 L84.5712 140.02 L89.2471 140.02 L89.2471 170.645 L96.886 170.645 L96.886 174.58 L76.9787 174.58 L76.9787 170.645 Z" fill="#000000" fill-rule="nonzero" fill-opacity="1" /><path clip-path="url(#clip380)" d="M116.33 143.099 Q112.719 143.099 110.891 146.664 Q109.085 150.205 109.085 157.335 Q109.085 164.441 110.891 168.006 Q112.719 171.548 116.33 171.548 Q119.965 171.548 121.77 168.006 Q123.599 164.441 123.599 157.335 Q123.599 150.205 121.77 146.664 Q119.965 143.099 116.33 143.099 M116.33 139.395 Q122.14 139.395 125.196 144.002 Q128.275 148.585 128.275 157.335 Q128.275 166.062 125.196 170.668 Q122.14 175.252 116.33 175.252 Q110.52 175.252 107.441 170.668 Q104.386 166.062 104.386 157.335 Q104.386 148.585 107.441 144.002 Q110.52 139.395 116.33 139.395 Z" fill="#000000" fill-rule="nonzero" fill-opacity="1" /><path clip-path="url(#clip380)" d="M128.275 133.497 L152.386 133.497 L152.386 136.694 L128.275 136.694 L128.275 133.497 Z" fill="#000000" fill-rule="nonzero" fill-opacity="1" /><path clip-path="url(#clip380)" d="M160.624 119.09 L175.539 119.09 L175.539 122.287 L164.103 122.287 L164.103 129.171 Q164.931 128.889 165.759 128.757 Q166.586 128.607 167.414 128.607 Q172.116 128.607 174.862 131.183 Q177.607 133.76 177.607 138.161 Q177.607 142.694 174.786 145.214 Q171.965 147.715 166.831 147.715 Q165.063 147.715 163.22 147.414 Q161.395 147.113 159.439 146.512 L159.439 142.694 Q161.132 143.615 162.937 144.067 Q164.743 144.518 166.755 144.518 Q170.009 144.518 171.909 142.807 Q173.808 141.095 173.808 138.161 Q173.808 135.227 171.909 133.515 Q170.009 131.804 166.755 131.804 Q165.232 131.804 163.709 132.142 Q162.204 132.481 160.624 133.196 L160.624 119.09 Z" fill="#000000" fill-rule="nonzero" fill-opacity="1" /><polyline clip-path="url(#clip382)" style="stroke:#009af9; stroke-linecap:round; stroke-linejoin:round; stroke-width:4; stroke-opacity:1; fill:none" points="274.149,87.9763 275.494,88.0616 276.838,89.6909 278.183,92.8973 279.527,97.7487 280.872,104.354 282.216,112.873 283.561,123.537 284.905,136.675 286.25,152.77 287.594,172.552 288.939,197.184 290.283,228.683 291.628,270.99 292.972,333.612 294.317,452.565 295.661,587.834 297.006,379.84 298.35,303.515 299.695,257.2 301.039,224.928 302.383,201.035 303.728,182.862 305.072,168.958 306.417,158.456 307.761,150.811 309.106,145.674 310.45,142.821 311.795,142.126 313.139,143.537 314.484,147.07 315.828,152.811 317.173,160.929 318.517,171.696 319.862,185.541 321.206,203.128 322.551,225.531 323.895,254.606 325.24,293.939 326.584,351.928 327.929,457.873 329.273,692.983 330.618,417.513 331.962,333.959 333.307,284.3 334.651,249.822 335.995,224.221 337.34,204.603 338.684,189.409 340.029,177.714 341.373,168.936 342.718,162.697 344.062,158.754 345.407,156.96 346.751,157.241 348.096,159.588 349.44,164.058 350.785,170.778 352.129,179.963 353.474,191.951 354.818,207.26 356.163,226.706 357.507,251.641 358.852,284.495 360.196,330.306 361.541,402.526 362.885,570.25 364.23,522.847 365.574,388.388 366.919,323.654 368.263,281.7 369.607,251.498 370.952,228.669 372.296,211.038 373.641,197.371 374.985,186.917 376.33,179.194 377.674,173.889 379.019,170.803 380.363,169.821 381.708,170.897 383.052,174.05 384.397,179.361 385.741,186.99 387.086,197.195 388.43,210.373 389.775,227.14 391.119,248.479 392.464,276.061 393.808,313.034 395.153,366.451 396.497,458.5 397.842,942.43 399.186,467.562 400.531,372.413 401.875,318.6 403.219,281.904 404.564,254.869 405.908,234.211 407.253,218.2 408.597,205.823 409.942,196.449 411.286,189.67 412.631,185.221 413.975,182.937 415.32,182.732 416.664,184.584 418.009,188.534 419.353,194.692 420.698,203.252 422.042,214.518 423.387,228.957 424.731,247.299 426.076,270.734 427.42,301.351 428.765,343.306 430.109,406.86 431.454,533.228 432.798,620.23 434.143,436.069 435.487,362.041 436.832,316.058 438.176,283.547 439.52,259.182 440.865,240.423 442.209,225.871 443.554,214.681 444.898,206.321 446.243,200.441 447.587,196.819 448.932,195.321 450.276,195.887 451.621,198.517 452.965,203.279 454.31,210.31 455.654,219.842 456.999,232.231 458.343,248.03 459.688,268.108 461.032,293.92 462.377,328.12 463.721,376.354 465.066,454.48 466.41,662.439 467.755,533.126 469.099,415.807 470.444,355.339 471.788,315.36 473.132,286.32 474.477,264.275 475.821,247.22 477.166,234.008 478.51,223.93 479.855,216.533 481.199,211.521 482.544,208.707 483.888,207.987 485.233,209.323 486.577,212.741 487.922,218.333 489.266,226.269 490.611,236.822 491.955,250.412 493.3,267.69 494.644,289.703 495.989,318.25 497.333,356.776 498.678,413.235 500.022,514.459 501.367,819.688 502.711,489.13 504.056,402.286 505.4,351.355 506.744,316.156 508.089,290.06 509.433,270.062 510.778,254.553 512.122,242.583 513.467,233.553 514.811,227.079 516.156,222.908 517.5,220.887 518.845,220.939 520.189,223.05 521.534,227.269 522.878,233.715 524.223,242.594 525.567,254.226 526.912,269.106 528.256,288.008 529.601,312.201 530.945,343.944 532.29,387.823 533.634,455.611 534.979,600.332 536.323,616.324 537.668,462.206 539.012,393.302 540.356,349.488 541.701,318.202 543.045,294.645 544.39,276.474 545.734,262.38 547.079,251.569 548.423,243.535 549.768,237.947 551.112,234.596 552.457,233.359 553.801,234.181 555.146,237.072 556.49,242.108 557.835,249.437 559.179,259.303 560.524,272.083 561.868,288.36 563.213,309.059 564.557,335.737 565.902,371.285 567.246,421.999 568.591,506.548 569.935,781.82 571.28,549.547 572.624,444.542 573.968,387.595 575.313,349.323 576.657,321.315 578.002,299.98 579.346,283.456 580.691,270.667 582.035,260.945 583.38,253.859 584.724,249.13 586.069,246.582 587.413,246.119 588.758,247.712 590.102,251.395 591.447,257.269 592.791,265.514 594.136,276.419 595.48,290.428 596.825,308.229 598.169,330.937 599.514,360.49 600.858,400.665 602.203,460.468 603.547,572.807 604.892,744.716 606.236,512.667 607.58,432.724 608.925,384.377 610.269,350.563 611.614,325.352 612.958,305.984 614.303,290.959 615.647,279.383 616.992,270.69 618.336,264.514 619.681,260.618 621.025,258.859 622.37,259.167 623.714,261.536 625.059,266.025 626.403,272.761 627.748,281.962 629.092,293.968 630.437,309.3 631.781,328.777 633.126,353.758 634.47,386.689 635.815,432.645 637.159,505.226 638.504,675.116 639.848,622.528 641.192,489.39 642.537,424.95 643.881,383.122 645.226,352.987 646.57,330.2 647.915,312.594 649.259,298.945 650.604,288.503 651.948,280.788 653.293,275.488 654.637,272.406 655.982,271.426 657.326,272.504 658.671,275.657 660.015,280.968 661.36,288.597 662.704,298.801 664.049,311.98 665.393,328.747 666.738,350.086 668.082,377.67 669.427,414.648 670.771,468.074 672.116,560.156 673.46,1046.59 674.804,569.065 676.149,473.953 677.493,420.151 678.838,383.459 680.182,356.426 681.527,335.768 682.871,319.756 684.216,307.379 685.56,298.004 686.905,291.224 688.249,286.773 689.594,284.488 690.938,284.281 692.283,286.13 693.627,290.078 694.972,296.235 696.316,304.792 697.661,316.054 699.005,330.489 700.35,348.827 701.694,372.255 703.039,402.863 704.383,444.802 705.728,508.324 707.072,634.561 708.416,722.179 709.761,537.717 711.105,463.643 712.45,417.642 713.794,385.12 715.139,360.747 716.483,341.983 717.828,327.426 719.172,316.233 720.517,307.869 721.861,301.986 723.206,298.361 724.55,296.86 725.895,297.422 727.239,300.05 728.584,304.808 729.928,311.835 731.273,321.362 732.617,333.747 733.962,349.539 735.306,369.609 736.651,395.408 737.995,429.591 739.34,477.791 740.684,555.834 742.028,763.124 743.373,634.994 744.717,517.482 746.062,456.961 747.406,416.957 748.751,387.902 750.095,365.847 751.44,348.784 752.784,335.565 754.129,325.482 755.473,318.08 756.818,313.063 758.162,310.245 759.507,309.52 760.851,310.852 762.196,314.265 763.54,319.852 764.885,327.783 766.229,338.329 767.574,351.911 768.918,369.179 770.263,391.178 771.607,419.705 772.952,458.199 774.296,514.595 775.64,615.62 776.985,924.791 778.329,590.974 779.674,503.98 781.018,452.994 782.363,417.766 783.707,391.652 785.052,371.64 786.396,356.121 787.741,344.142 789.085,335.106 790.43,328.624 791.774,324.447 793.119,322.421 794.463,322.466 795.808,324.57 797.152,328.783 798.497,335.222 799.841,344.092 801.186,355.715 802.53,370.583 803.875,389.469 805.219,413.641 806.564,445.353 807.908,489.178 809.252,556.846 810.597,700.998 811.941,718.831 813.286,564.045 814.63,495.012 815.975,451.142 817.319,419.824 818.664,396.245 820.008,378.058 821.353,363.951 822.697,353.129 824.042,345.085 825.386,339.489 826.731,336.13 828.075,334.884 829.42,335.698 830.764,338.581 832.109,343.608 833.453,350.927 834.798,360.781 836.142,373.548 837.487,389.808 838.831,410.484 840.176,437.131 841.52,472.63 842.864,523.253 844.209,607.558 845.553,879.497 846.898,651.778 848.242,546.385 849.587,489.321 850.931,450.99 852.276,422.947 853.62,401.586 854.965,385.043 856.309,372.239 857.654,362.503 858.998,355.405 860.343,350.665 861.687,348.106 863.032,347.633 864.376,349.216 865.721,352.888 867.065,358.749 868.41,366.981 869.754,377.87 871.099,391.86 872.443,409.637 873.788,432.314 875.132,461.821 876.476,501.919 877.821,561.565 879.165,673.353 880.51,849.711 881.854,614.802 883.199,534.574 884.543,486.116 885.888,452.241 887.232,426.99 888.577,407.594 889.921,392.547 891.266,380.952 892.61,372.243 893.955,366.053 895.299,362.143 896.644,360.371 897.988,360.665 899.333,363.021 900.677,367.495 902.022,374.216 903.366,383.399 904.711,395.384 906.055,410.69 907.4,430.135 908.744,455.072 910.088,487.934 911.433,533.77 912.777,606.066 914.122,774.301 915.466,725.626 916.811,591.48 918.155,526.806 919.5,484.871 920.844,454.673 922.189,431.842 923.533,414.205 924.878,400.53 926.222,390.066 927.567,382.332 928.911,377.015 930.256,373.916 931.6,372.92 932.945,373.981 934.289,377.117 935.634,382.41 936.978,390.019 938.323,400.201 939.667,413.351 941.012,430.085 942.356,451.38 943.7,478.9 945.045,515.777 946.389,569.01 947.734,660.537 949.078,1113.32 950.423,671.744 951.767,576.019 953.112,522.011 954.456,485.215 955.801,458.116 957.145,437.411 958.49,421.364 959.834,408.958 961.179,399.558 962.523,392.755 963.868,388.284 965.212,385.978 966.557,385.751 967.901,387.581 969.246,391.508 970.59,397.641 971.935,406.173 973.279,417.406 974.624,431.805 975.968,450.098 977.312,473.466 978.657,503.985 980.001,545.774 981.346,608.973 982.69,733.934 984.035,827.735 985.379,640.217 986.724,565.693 988.068,519.505 989.413,486.879 990.757,462.438 992.102,443.623 993.446,429.027 994.791,417.801 996.135,409.408 997.48,403.499 998.824,399.849 1000.17,398.325 1001.51,398.864 1002.86,401.467 1004.2,406.199 1005.55,413.198 1006.89,422.693 1008.24,435.04 1009.58,450.787 1010.92,470.798 1012.27,496.515 1013.61,530.571 1014.96,578.542 1016.3,656.015 1017.65,858.808 1018.99,738.755 1020.34,619.883 1021.68,558.998 1023.02,518.82 1024.37,489.661 1025.71,467.533 1027.06,450.417 1028.4,437.154 1029.75,427.034 1031.09,419.599 1032.44,414.552 1033.78,411.706 1035.13,410.953 1036.47,412.257 1037.81,415.641 1039.16,421.196 1040.5,429.092 1041.85,439.599 1043.19,453.133 1044.54,470.342 1045.88,492.264 1047.23,520.679 1048.57,558.992 1049.91,615.028 1051.26,714.93 1052.6,1048.61 1053.95,694.179 1055.29,606.317 1056.64,555.018 1057.98,519.625 1059.33,493.405 1060.67,473.318 1062.01,457.741 1063.36,445.714 1064.7,436.636 1066.05,430.118 1067.39,425.906 1068.74,423.847 1070.08,423.86 1071.43,425.931 1072.77,430.108 1074.12,436.509 1075.46,445.337 1076.8,456.91 1078.15,471.719 1079.49,490.53 1080.84,514.599 1082.18,546.158 1083.53,589.719 1084.87,656.794 1086.22,798.211 1087.56,825.15 1088.9,666.978 1090.25,597.301 1091.59,553.151 1092.94,521.673 1094.28,497.987 1095.63,479.721 1096.97,465.552 1098.32,454.678 1099.66,446.588 1101,440.95 1102.35,437.552 1103.69,436.268 1105.04,437.043 1106.38,439.887 1107.73,444.872 1109.07,452.146 1110.42,461.948 1111.76,474.654 1113.1,490.84 1114.45,511.419 1115.79,537.93 1117.14,573.216 1118.48,623.443 1119.83,706.699 1121.17,965.216 1122.52,756.277 1123.86,649.154 1125.21,591.569 1126.55,552.982 1127.89,524.781 1129.24,503.311 1130.58,486.685 1131.93,473.814 1133.27,464.021 1134.62,456.873 1135.96,452.085 1137.31,449.482 1138.65,448.965 1139.99,450.504 1141.34,454.13 1142.68,459.942 1144.03,468.119 1145.37,478.946 1146.72,492.861 1148.06,510.545 1149.41,533.096 1150.75,562.421 1152.09,602.22 1153.44,661.251 1154.78,770.921 1156.13,965.699 1157.47,718.6 1158.82,637.225 1160.16,588.326 1161.51,554.21 1162.85,528.804 1164.2,509.295 1165.54,494.161 1166.88,482.494 1168.23,473.723 1169.57,467.476 1170.92,463.514 1172.26,461.692 1173.61,461.937 1174.95,464.241 1176.3,468.662 1177.64,475.324 1178.98,484.442 1180.33,496.352 1181.67,511.566 1183.02,530.893 1184.36,555.667 1185.71,588.285 1187.05,633.69 1188.4,704.977 1189.74,867.521 1191.08,832.824 1192.43,694.901 1193.77,629.366 1195.12,587.041 1196.46,556.614 1197.81,533.628 1199.15,515.875 1200.5,502.108 1201.84,491.567 1203.19,483.766 1204.53,478.387 1205.87,475.229 1207.22,474.177 1208.56,475.181 1209.91,478.258 1211.25,483.489 1212.6,491.029 1213.94,501.133 1215.29,514.192 1216.63,530.812 1217.97,551.959 1219.32,579.269 1220.66,615.812 1222.01,668.407 1223.35,758.122 1224.7,1137.99 1226.04,777.033 1227.39,679.194 1228.73,624.492 1230.07,587.341 1231.42,560.021 1232.76,539.161 1234.11,522.995 1235.45,510.492 1236.8,501.009 1238.14,494.133 1239.49,489.593 1240.83,487.223 1242.18,486.933 1243.52,488.698 1244.86,492.557 1246.21,498.618 1247.55,507.069 1248.9,518.21 1250.24,532.498 1251.59,550.651 1252.93,573.831 1254.28,604.073 1255.62,645.398 1256.96,707.608 1258.31,828.746 1259.65,942.527 1261,744.659 1262.34,668.69 1263.69,621.913 1265.03,588.958 1266.38,564.301 1267.72,545.329 1269.06,530.61 1270.41,519.282 1271.75,510.801 1273.1,504.812 1274.44,501.088 1275.79,499.491 1277.13,499.958 1278.48,502.488 1279.82,507.143 1281.16,514.058 1282.51,523.459 1283.85,535.696 1285.2,551.308 1286.54,571.145 1287.89,596.623 1289.23,630.311 1290.58,677.62 1291.92,753.459 1293.27,944.242 1294.61,846.903 1295.95,723.833 1297.3,661.851 1298.64,621.155 1299.99,591.685 1301.33,569.346 1302.68,552.07 1304.02,538.68 1305.37,528.452 1306.71,520.923 1308.05,515.789 1309.4,512.86 1310.74,512.028 1312.09,513.251 1313.43,516.552 1314.78,522.019 1316.12,529.817 1317.47,540.213 1318.81,553.616 1320.15,570.661 1321.5,592.366 1322.84,620.471 1324.19,658.282 1325.53,713.327 1326.88,810.161 1328.22,1203.73 1329.57,800.224 1330.91,709.913 1332.26,657.737 1333.6,621.88 1334.94,595.366 1336.29,575.07 1337.63,559.331 1338.98,547.172 1340.32,537.981 1341.67,531.361 1343.01,527.055 1344.36,524.905 1345.7,524.829 1347.04,526.808 1348.39,530.89 1349.73,537.187 1351.08,545.898 1352.42,557.337 1353.77,571.982 1355.11,590.583 1356.46,614.367 1357.8,645.497 1359.14,688.316 1360.49,753.714 1361.83,887.096 1363.18,937.836 1364.52,771.999 1365.87,700.653 1367.21,655.761 1368.56,623.85 1369.9,599.873 1371.25,581.391 1372.59,567.05 1373.93,556.033 1375.28,547.818 1376.62,542.068 1377.97,538.565 1379.31,537.182 1380.66,537.86 1382,540.606 1383.35,545.489 1384.69,552.652 1386.03,562.332 1387.38,574.892 1388.72,590.897 1390.07,611.234 1391.41,637.392 1392.76,672.095 1394.1,721.145 1395.45,800.78 1396.79,993.29 1398.13,860.096 1399.48,752.498 1400.82,694.235 1402.17,655.227 1403.51,626.739 1404.86,605.055 1406.2,588.256 1407.55,575.236 1408.89,565.309 1410.24,558.035 1411.58,553.126 1412.92,550.403 1414.27,549.765 1415.61,551.18 1416.96,554.678 1418.3,560.356 1419.65,568.389 1420.99,579.058 1422.34,592.792 1423.68,610.258 1425.02,632.526 1426.37,661.445 1427.71,700.568 1429.06,758.165 1430.4,862.422 1431.75,1063.75 1433.09,823.721 1434.44,740.498 1435.78,690.815 1437.12,656.266 1438.47,630.581 1439.81,610.872 1441.16,595.581 1442.5,583.781 1443.85,574.887 1445.19,568.522 1446.54,564.441 1447.88,562.494 1449.22,562.608 1450.57,564.772 1451.91,569.041 1453.26,575.539 1454.6,584.477 1455.95,596.184 1457.29,611.166 1458.64,630.212 1459.98,654.621 1461.33,686.708 1462.67,731.201 1464.01,800.341 1465.36,950.199 1466.7,943.504 1468.05,799.409 1469.39,732.292 1470.74,689.256 1472.08,658.428 1473.43,635.187 1474.77,617.255 1476.11,603.35 1477.46,592.692 1478.8,584.781 1480.15,579.293 1481.49,576.017 1482.84,574.835 1484.18,575.693 1485.53,578.606 1486.87,583.651 1488.21,590.983 1489.56,600.851 1490.9,613.642 1492.25,629.949 1493.59,650.714 1494.94,677.525 1496.28,713.332 1497.63,764.596 1498.97,850.696 1500.32,1143.18 1501.66,885.506 1503,783.176 1504.35,727.061 1505.69,689.234 1507.04,661.53 1508.38,640.432 1509.73,624.107 1511.07,611.49 1512.42,601.915 1513.76,594.952 1515.1,590.321 1516.45,587.844 1517.79,587.425 1519.14,589.033 1520.48,592.704 1521.83,598.54 1523.17,606.726 1524.52,617.556 1525.86,631.479 1527.2,649.194 1528.55,671.828 1529.89,701.334 1531.24,741.523 1532.58,801.485 1533.93,914.582 1535.27,1077.4 1536.62,851.727 1537.96,772.324 1539.31,724.215 1540.65,690.573 1541.99,665.519 1543.34,646.305 1544.68,631.433 1546.03,620.006 1547.37,611.453 1548.72,605.4 1550.06,601.603 1551.41,599.913 1552.75,600.254 1554.09,602.617 1555.44,607.057 1556.78,613.702 1558.13,622.771 1559.47,634.603 1560.82,649.724 1562.16,668.955 1563.51,693.647 1564.85,726.225 1566.19,771.68 1567.54,843.207 1568.88,1004.68 1570.23,962.609 1571.57,829.783 1572.92,765.095 1574.26,723.151 1575.61,692.99 1576.95,670.239 1578.3,652.716 1579.64,639.18 1580.98,628.868 1582.33,621.287 1583.67,616.112 1585.02,613.131 1586.36,612.218 1587.71,613.318 1589.05,616.439 1590.4,621.658 1591.74,629.13 1593.08,639.108 1594.43,651.986 1595.77,668.375 1597.12,689.24 1598.46,716.211 1599.81,752.314 1601.15,804.181 1602.5,891.499 1603.84,1110.04 1605.18,910.797 1606.53,814.996 1607.87,760.57 1609.22,723.526 1610.56,696.313 1611.91,675.591 1613.25,659.599 1614.6,647.3 1615.94,638.04 1617.28,631.39 1618.63,627.067 1619.97,624.887 1621.32,624.745 1622.66,626.604 1624.01,630.49 1625.35,636.501 1626.7,644.82 1628.04,655.74 1629.39,669.715 1630.73,687.451 1632.07,710.088 1633.42,739.593 1634.76,779.77 1636.11,839.504 1637.45,948.08 1638.8,1039.28 1640.14,880.1 1641.49,804.998 1642.83,758.159 1644.17,725.114 1645.52,700.435 1646.86,681.52 1648.21,666.925 1649.55,655.777 1650.9,647.511 1652.24,641.756 1653.59,638.26 1654.93,636.867 1656.27,637.49 1657.62,640.109 1658.96,644.769 1660.31,651.589 1661.65,660.781 1663,672.682 1664.34,687.815 1665.69,706.998 1667.03,731.576 1668.38,763.932 1669.72,808.867 1671.06,878.277 1672.41,1008.84 1673.75,971.691 1675.1,860.075 1676.44,798.372 1677.79,757.4 1679.13,727.698 1680.48,705.235 1681.82,687.947 1683.16,674.639 1684.51,664.569 1685.85,657.249 1687.2,652.354 1688.54,649.664 1689.89,649.045 1691.23,650.428 1692.58,653.809 1693.92,659.252 1695.26,666.899 1696.61,676.996 1697.95,689.925 1699.3,706.288 1700.64,727.034 1701.99,753.749 1703.33,789.328 1704.68,839.817 1706.02,920.596 1707.37,1038.1 1708.71,931.823 1710.05,846.581 1711.4,794.316 1712.74,758.027 1714.09,731.165 1715.43,710.659 1716.78,694.845 1718.12,682.726 1719.47,673.668 1720.81,667.248 1722.15,663.181 1723.5,661.276 1724.84,661.418 1726.19,663.557 1727.53,667.706 1728.88,673.948 1730.22,682.45 1731.57,693.492 1732.91,707.513 1734.25,725.2 1735.6,747.655 1736.94,776.755 1738.29,816.009 1739.63,872.936 1740.98,964.656 1742.32,1012.22 1743.67,906.114 1745.01,837.386 1746.36,792.2 1747.7,759.766 1749.04,735.366 1750.39,716.611 1751.73,702.145 1753.08,691.131 1754.42,683.025 1755.77,677.461 1757.11,674.189 1758.46,673.046 1759.8,673.938 1761.14,676.83 1762.49,681.755 1763.83,688.816 1765.18,698.208 1766.52,710.249 1767.87,725.44 1769.21,744.568 1770.56,768.912 1771.9,800.693 1773.24,844.144 1774.59,908.222 1775.93,1001.79 1777.28,976.915 1778.62,888.805 1779.97,831.373 1781.31,791.708 1782.66,762.51 1784,740.266 1785.34,723.087 1786.69,709.856 1788.03,699.868 1789.38,692.656 1790.72,687.902 1792.07,685.392 1793.41,684.987 1794.76,686.614 1796.1,690.259 1797.45,695.973 1798.79,703.882 1800.13,714.214 1801.48,727.331 1802.82,743.804 1804.17,764.54 1805.51,791.03 1806.86,825.907 1808.2,874.229 1809.55,945.502 1810.89,1016.58 1812.23,949.522 1813.58,876.803 1814.92,827.657 1816.27,792.472 1817.61,766.06 1818.96,745.741 1820.3,730 1821.65,717.912 1822.99,708.881 1824.33,702.508 1825.68,698.519 1827.02,696.735 1828.37,697.041 1829.71,699.388 1831.06,703.782 1832.4,710.298 1833.75,719.09 1835.09,730.422 1836.44,744.711 1837.78,762.613 1839.12,785.179 1840.47,814.167 1841.81,852.724 1843.16,906.804 1844.5,983.174 1845.85,1007.74 1847.19,930.089 1848.54,868.705 1849.88,825.857 1851.22,794.368 1852.57,770.38 1853.91,751.791 1855.26,737.37 1856.6,726.344 1857.95,718.208 1859.29,712.621 1860.64,709.355 1861.98,708.259 1863.32,709.248 1864.67,712.296 1866.01,717.434 1867.36,724.766 1868.7,734.479 1870.05,746.884 1871.39,762.468 1872.74,781.995 1874.08,806.709 1875.43,838.73 1876.77,881.921 1878.11,943.199 1879.46,1017.6 1880.8,990.583 1882.15,916.451 1883.49,863.424 1884.84,825.519 1886.18,797.144 1887.53,775.297 1888.87,758.287 1890.21,745.094 1891.56,735.069 1892.9,727.782 1894.25,722.945 1895.59,720.367 1896.94,719.928 1898.28,721.573 1899.63,725.301 1900.97,731.174 1902.31,739.327 1903.66,749.992 1905,763.536 1906.35,780.536 1907.69,801.905 1909.04,829.154 1910.38,864.937 1911.73,914.24 1913.07,984.987 1914.42,1041.08 1915.76,974.679 1917.1,907.288 1918.45,860.512 1919.79,826.527 1921.14,800.772 1922.48,780.808 1923.83,765.231 1925.17,753.181 1926.52,744.102 1927.86,737.626 1929.2,733.51 1930.55,731.596 1931.89,731.795 1933.24,734.077 1934.58,738.472 1935.93,745.071 1937.27,754.05 1938.62,765.691 1939.96,780.433 1941.3,798.967 1942.65,822.404 1943.99,852.637 1945.34,893.144 1946.68,950.834 1948.03,1034.06 1949.37,1046.28 1950.72,961.862 1952.06,901.322 1953.4,859.451 1954.75,828.66 1956.09,805.137 1957.44,786.836 1958.78,772.562 1960.13,761.575 1961.47,753.393 1962.82,747.698 1964.16,744.283 1965.51,743.02 1966.85,743.847 1968.19,746.761 1969.54,751.818 1970.88,759.146 1972.23,768.958 1973.57,781.594 1974.92,797.582 1976.26,817.749 1977.61,843.465 1978.95,877.147 1980.29,923.534 1981.64,992.933 1982.98,1088.79 1984.33,1036.41 1985.67,952.097 1987.02,897.848 1988.36,859.993 1989.71,831.873 1991.05,810.268 1992.39,793.435 1993.74,780.34 1995.08,770.335 1996.43,762.998 1997.77,758.052 1999.12,755.319 2000.46,754.699 2001.81,756.152 2003.15,759.701 2004.5,765.429 2005.84,773.495 2007.18,784.158 2008.53,797.82 2009.87,815.105 2011.22,837.009 2012.56,865.22 2013.91,902.866 2015.25,956.591 2016.6,1042.84 2017.94,1131.26 2019.28,1021.33 2020.63,944.975 2021.97,896.343 2023.32,861.909 2024.66,836.091 2026.01,816.172 2027.35,800.653 2028.7,788.632 2030.04,779.537 2031.38,772.998 2032.73,768.77 2034.07,766.704 2035.42,766.721 2036.76,768.804 2038.11,772.998 2039.45,779.412 2040.8,788.239 2042.14,799.784 2043.49,814.517 2044.83,833.17 2046.17,856.938 2047.52,887.906 2048.86,930.157 2050.21,993.248 2051.55,1105.1 2052.9,1129.48 2054.24,1007.28 2055.59,940.208 2056.93,896.508 2058.27,865.059 2059.62,841.278 2060.96,822.872 2062.31,808.549 2063.65,797.519 2065,789.278 2066.34,783.498 2067.69,779.965 2069.03,778.554 2070.37,779.206 2071.72,781.926 2073.06,786.779 2074.41,793.902 2075.75,803.522 2077.1,815.991 2078.44,831.855 2079.79,851.972 2081.13,877.769 2082.48,911.834 2083.82,959.548 2085.16,1035.1 2086.51,1187.7 2087.85,1102.04 2089.2,996.346 2090.54,937.645 2091.89,898.231 2093.23,869.421 2094.58,847.471 2095.92,830.447 2097.26,817.232 2098.61,807.133 2099.95,799.705 2101.3,794.656 2102.64,791.804 2103.99,791.044 2105.33,792.338 2106.68,795.709 2108.02,801.246 2109.36,809.111 2110.71,819.569 2112.05,833.026 2113.4,850.112 2114.74,871.831 2116.09,899.898 2117.43,937.552 2118.78,992.028 2120.12,1085.5 2121.47,1268.72 2122.81,1075.95 2124.15,988.599 2125.5,937.012 2126.84,901.357 2128.19,874.926 2129.53,854.662 2130.88,838.931 2132.22,826.767 2133.57,817.562 2134.91,810.925 2136.25,806.599 2137.6,804.428 2138.94,804.328 2140.29,806.281 2141.63,810.329 2142.98,816.585 2144.32,825.24 2145.67,836.599 2147.01,851.13 2148.35,869.559 2149.7,893.074 2151.04,923.754 2152.39,965.717 2153.73,1029.02 2155.08,1151.6 2156.42,1222.29 2157.77,1056.51 2159.11,983.754 2160.45,938.165 2161.8,905.844 2163.14,881.592 2164.49,862.909 2165.83,848.413 2167.18,837.267 2168.52,828.942 2169.87,823.091 2171.21,819.495 2172.56,818.018 2173.9,818.601 2175.24,821.243 2176.59,826.01 2177.93,833.037 2179.28,842.549 2180.62,854.897 2181.97,870.62 2183.31,890.57 2184.66,916.158 2186,949.952 2187.34,997.338 2188.69,1073.03 2190.03,1255.03 2191.38,1162.85 2192.72,1042.87 2194.07,981.429 2195.41,940.981 2196.76,911.674 2198.1,889.462 2199.44,872.296 2200.79,859.006 2202.13,848.873 2203.48,841.433 2204.82,836.388 2206.17,833.546 2207.51,832.799 2208.86,834.108 2210.2,837.493 2211.55,843.043 2212.89,850.921 2214.23,861.391 2215.58,874.862 2216.92,891.962 2218.27,913.7 2219.61,941.797 2220.96,979.514 2222.3,1034.23 2223.65,1129.64 2224.99,1445.72 2226.33,1124.31 2227.68,1033.45 2229.02,981.109 2230.37,945.218 2231.71,918.727 2233.06,898.486 2234.4,882.821 2235.75,870.749 2237.09,861.654 2238.43,855.137 2239.78,850.942 2241.12,848.908 2242.47,848.954 2243.81,851.061 2245.16,855.275 2246.5,861.713 2247.85,870.572 2249.19,882.167 2250.54,896.981 2251.88,915.77 2253.22,939.768 2254.57,971.165 2255.91,1014.36 2257.26,1080.48 2258.6,1216.91 2259.95,1259.49 2261.29,1096.17 2262.64,1025.49 2263.98,980.935 2265.32,949.24 2266.67,925.41 2268.01,907.027 2269.36,892.742 2270.7,881.734 2272.05,873.478 2273.39,867.625 2274.74,863.941 2276.08,862.278 2277.42,862.549 2278.77,864.718 2280.11,868.797 2281.46,874.844 2282.8,882.969 2284.15,893.344 2285.49,906.223 2286.84,921.973 2288.18,941.127 2289.53,964.495 2290.87,993.357 2292.21,1029.92 "/>
<polyline clip-path="url(#clip382)" style="stroke:#e26f46; stroke-linecap:round; stroke-linejoin:round; stroke-width:4; stroke-opacity:1; fill:none" points="274.149,132.247 275.494,132.74 276.838,133.233 278.183,133.727 279.527,134.22 280.872,134.713 282.216,135.206 283.561,135.7 284.905,136.193 286.25,136.686 287.594,137.179 288.939,137.673 290.283,138.166 291.628,138.659 292.972,139.153 294.317,139.646 295.661,140.139 297.006,140.632 298.35,141.126 299.695,141.619 301.039,142.112 302.383,142.606 303.728,143.099 305.072,143.592 306.417,144.085 307.761,144.579 309.106,145.072 310.45,145.565 311.795,146.059 313.139,146.552 314.484,147.045 315.828,147.538 317.173,148.032 318.517,148.525 319.862,149.018 321.206,149.512 322.551,150.005 323.895,150.498 325.24,150.991 326.584,151.485 327.929,151.978 329.273,152.471 330.618,152.964 331.962,153.458 333.307,153.951 334.651,154.444 335.995,154.938 337.34,155.431 338.684,155.924 340.029,156.417 341.373,156.911 342.718,157.404 344.062,157.897 345.407,158.391 346.751,158.884 348.096,159.377 349.44,159.87 350.785,160.364 352.129,160.857 353.474,161.35 354.818,161.844 356.163,162.337 357.507,162.83 358.852,163.323 360.196,163.817 361.541,164.31 362.885,164.803 364.23,165.297 365.574,165.79 366.919,166.283 368.263,166.776 369.607,167.27 370.952,167.763 372.296,168.256 373.641,168.749 374.985,169.243 376.33,169.736 377.674,170.229 379.019,170.723 380.363,171.216 381.708,171.709 383.052,172.202 384.397,172.696 385.741,173.189 387.086,173.682 388.43,174.176 389.775,174.669 391.119,175.162 392.464,175.655 393.808,176.149 395.153,176.642 396.497,177.135 397.842,177.629 399.186,178.122 400.531,178.615 401.875,179.108 403.219,179.602 404.564,180.095 405.908,180.588 407.253,181.082 408.597,181.575 409.942,182.068 411.286,182.561 412.631,183.055 413.975,183.548 415.32,184.041 416.664,184.534 418.009,185.028 419.353,185.521 420.698,186.014 422.042,186.508 423.387,187.001 424.731,187.494 426.076,187.987 427.42,188.481 428.765,188.974 430.109,189.467 431.454,189.961 432.798,190.454 434.143,190.947 435.487,191.44 436.832,191.934 438.176,192.427 439.52,192.92 440.865,193.414 442.209,193.907 443.554,194.4 444.898,194.893 446.243,195.387 447.587,195.88 448.932,196.373 450.276,196.867 451.621,197.36 452.965,197.853 454.31,198.346 455.654,198.84 456.999,199.333 458.343,199.826 459.688,200.319 461.032,200.813 462.377,201.306 463.721,201.799 465.066,202.293 466.41,202.786 467.755,203.279 469.099,203.772 470.444,204.266 471.788,204.759 473.132,205.252 474.477,205.746 475.821,206.239 477.166,206.732 478.51,207.225 479.855,207.719 481.199,208.212 482.544,208.705 483.888,209.199 485.233,209.692 486.577,210.185 487.922,210.678 489.266,211.172 490.611,211.665 491.955,212.158 493.3,212.652 494.644,213.145 495.989,213.638 497.333,214.131 498.678,214.625 500.022,215.118 501.367,215.611 502.711,216.104 504.056,216.598 505.4,217.091 506.744,217.584 508.089,218.078 509.433,218.571 510.778,219.064 512.122,219.557 513.467,220.051 514.811,220.544 516.156,221.037 517.5,221.531 518.845,222.024 520.189,222.517 521.534,223.01 522.878,223.504 524.223,223.997 525.567,224.49 526.912,224.984 528.256,225.477 529.601,225.97 530.945,226.463 532.29,226.957 533.634,227.45 534.979,227.943 536.323,228.436 537.668,228.93 539.012,229.423 540.356,229.916 541.701,230.41 543.045,230.903 544.39,231.396 545.734,231.889 547.079,232.383 548.423,232.876 549.768,233.369 551.112,233.863 552.457,234.356 553.801,234.849 555.146,235.342 556.49,235.836 557.835,236.329 559.179,236.822 560.524,237.316 561.868,237.809 563.213,238.302 564.557,238.795 565.902,239.289 567.246,239.782 568.591,240.275 569.935,240.769 571.28,241.262 572.624,241.755 573.968,242.248 575.313,242.742 576.657,243.235 578.002,243.728 579.346,244.221 580.691,244.715 582.035,245.208 583.38,245.701 584.724,246.195 586.069,246.688 587.413,247.181 588.758,247.674 590.102,248.168 591.447,248.661 592.791,249.154 594.136,249.648 595.48,250.141 596.825,250.634 598.169,251.127 599.514,251.621 600.858,252.114 602.203,252.607 603.547,253.101 604.892,253.594 606.236,254.087 607.58,254.58 608.925,255.074 610.269,255.567 611.614,256.06 612.958,256.554 614.303,257.047 615.647,257.54 616.992,258.033 618.336,258.527 619.681,259.02 621.025,259.513 622.37,260.006 623.714,260.5 625.059,260.993 626.403,261.486 627.748,261.98 629.092,262.473 630.437,262.966 631.781,263.459 633.126,263.953 634.47,264.446 635.815,264.939 637.159,265.433 638.504,265.926 639.848,266.419 641.192,266.912 642.537,267.406 643.881,267.899 645.226,268.392 646.57,268.886 647.915,269.379 649.259,269.872 650.604,270.365 651.948,270.859 653.293,271.352 654.637,271.845 655.982,272.339 657.326,272.832 658.671,273.325 660.015,273.818 661.36,274.312 662.704,274.805 664.049,275.298 665.393,275.791 666.738,276.285 668.082,276.778 669.427,277.271 670.771,277.765 672.116,278.258 673.46,278.751 674.804,279.244 676.149,279.738 677.493,280.231 678.838,280.724 680.182,281.218 681.527,281.711 682.871,282.204 684.216,282.697 685.56,283.191 686.905,283.684 688.249,284.177 689.594,284.671 690.938,285.164 692.283,285.657 693.627,286.15 694.972,286.644 696.316,287.137 697.661,287.63 699.005,288.124 700.35,288.617 701.694,289.11 703.039,289.603 704.383,290.097 705.728,290.59 707.072,291.083 708.416,291.576 709.761,292.07 711.105,292.563 712.45,293.056 713.794,293.55 715.139,294.043 716.483,294.536 717.828,295.029 719.172,295.523 720.517,296.016 721.861,296.509 723.206,297.003 724.55,297.496 725.895,297.989 727.239,298.482 728.584,298.976 729.928,299.469 731.273,299.962 732.617,300.456 733.962,300.949 735.306,301.442 736.651,301.935 737.995,302.429 739.34,302.922 740.684,303.415 742.028,303.909 743.373,304.402 744.717,304.895 746.062,305.388 747.406,305.882 748.751,306.375 750.095,306.868 751.44,307.361 752.784,307.855 754.129,308.348 755.473,308.841 756.818,309.335 758.162,309.828 759.507,310.321 760.851,310.814 762.196,311.308 763.54,311.801 764.885,312.294 766.229,312.788 767.574,313.281 768.918,313.774 770.263,314.267 771.607,314.761 772.952,315.254 774.296,315.747 775.64,316.241 776.985,316.734 778.329,317.227 779.674,317.72 781.018,318.214 782.363,318.707 783.707,319.2 785.052,319.694 786.396,320.187 787.741,320.68 789.085,321.173 790.43,321.667 791.774,322.16 793.119,322.653 794.463,323.146 795.808,323.64 797.152,324.133 798.497,324.626 799.841,325.12 801.186,325.613 802.53,326.106 803.875,326.599 805.219,327.093 806.564,327.586 807.908,328.079 809.252,328.573 810.597,329.066 811.941,329.559 813.286,330.052 814.63,330.546 815.975,331.039 817.319,331.532 818.664,332.026 820.008,332.519 821.353,333.012 822.697,333.505 824.042,333.999 825.386,334.492 826.731,334.985 828.075,335.478 829.42,335.972 830.764,336.465 832.109,336.958 833.453,337.452 834.798,337.945 836.142,338.438 837.487,338.931 838.831,339.425 840.176,339.918 841.52,340.411 842.864,340.905 844.209,341.398 845.553,341.891 846.898,342.384 848.242,342.878 849.587,343.371 850.931,343.864 852.276,344.358 853.62,344.851 854.965,345.344 856.309,345.837 857.654,346.331 858.998,346.824 860.343,347.317 861.687,347.811 863.032,348.304 864.376,348.797 865.721,349.29 867.065,349.784 868.41,350.277 869.754,350.77 871.099,351.263 872.443,351.757 873.788,352.25 875.132,352.743 876.476,353.237 877.821,353.73 879.165,354.223 880.51,354.716 881.854,355.21 883.199,355.703 884.543,356.196 885.888,356.69 887.232,357.183 888.577,357.676 889.921,358.169 891.266,358.663 892.61,359.156 893.955,359.649 895.299,360.143 896.644,360.636 897.988,361.129 899.333,361.622 900.677,362.116 902.022,362.609 903.366,363.102 904.711,363.596 906.055,364.089 907.4,364.582 908.744,365.075 910.088,365.569 911.433,366.062 912.777,366.555 914.122,367.048 915.466,367.542 916.811,368.035 918.155,368.528 919.5,369.022 920.844,369.515 922.189,370.008 923.533,370.501 924.878,370.995 926.222,371.488 927.567,371.981 928.911,372.475 930.256,372.968 931.6,373.461 932.945,373.954 934.289,374.448 935.634,374.941 936.978,375.434 938.323,375.928 939.667,376.421 941.012,376.914 942.356,377.407 943.7,377.901 945.045,378.394 946.389,378.887 947.734,379.381 949.078,379.874 950.423,380.367 951.767,380.86 953.112,381.354 954.456,381.847 955.801,382.34 957.145,382.833 958.49,383.327 959.834,383.82 961.179,384.313 962.523,384.807 963.868,385.3 965.212,385.793 966.557,386.286 967.901,386.78 969.246,387.273 970.59,387.766 971.935,388.26 973.279,388.753 974.624,389.246 975.968,389.739 977.312,390.233 978.657,390.726 980.001,391.219 981.346,391.713 982.69,392.206 984.035,392.699 985.379,393.192 986.724,393.686 988.068,394.179 989.413,394.672 990.757,395.166 992.102,395.659 993.446,396.152 994.791,396.645 996.135,397.139 997.48,397.632 998.824,398.125 1000.17,398.618 1001.51,399.112 1002.86,399.605 1004.2,400.098 1005.55,400.592 1006.89,401.085 1008.24,401.578 1009.58,402.071 1010.92,402.565 1012.27,403.058 1013.61,403.551 1014.96,404.045 1016.3,404.538 1017.65,405.031 1018.99,405.524 1020.34,406.018 1021.68,406.511 1023.02,407.004 1024.37,407.498 1025.71,407.991 1027.06,408.484 1028.4,408.977 1029.75,409.471 1031.09,409.964 1032.44,410.457 1033.78,410.951 1035.13,411.444 1036.47,411.937 1037.81,412.43 1039.16,412.924 1040.5,413.417 1041.85,413.91 1043.19,414.403 1044.54,414.897 1045.88,415.39 1047.23,415.883 1048.57,416.377 1049.91,416.87 1051.26,417.363 1052.6,417.856 1053.95,418.35 1055.29,418.843 1056.64,419.336 1057.98,419.83 1059.33,420.323 1060.67,420.816 1062.01,421.309 1063.36,421.803 1064.7,422.296 1066.05,422.789 1067.39,423.283 1068.74,423.776 1070.08,424.269 1071.43,424.762 1072.77,425.256 1074.12,425.749 1075.46,426.242 1076.8,426.736 1078.15,427.229 1079.49,427.722 1080.84,428.215 1082.18,428.709 1083.53,429.202 1084.87,429.695 1086.22,430.188 1087.56,430.682 1088.9,431.175 1090.25,431.668 1091.59,432.162 1092.94,432.655 1094.28,433.148 1095.63,433.641 1096.97,434.135 1098.32,434.628 1099.66,435.121 1101,435.615 1102.35,436.108 1103.69,436.601 1105.04,437.094 1106.38,437.588 1107.73,438.081 1109.07,438.574 1110.42,439.068 1111.76,439.561 1113.1,440.054 1114.45,440.547 1115.79,441.041 1117.14,441.534 1118.48,442.027 1119.83,442.52 1121.17,443.014 1122.52,443.507 1123.86,444 1125.21,444.494 1126.55,444.987 1127.89,445.48 1129.24,445.973 1130.58,446.467 1131.93,446.96 1133.27,447.453 1134.62,447.947 1135.96,448.44 1137.31,448.933 1138.65,449.426 1139.99,449.92 1141.34,450.413 1142.68,450.906 1144.03,451.4 1145.37,451.893 1146.72,452.386 1148.06,452.879 1149.41,453.373 1150.75,453.866 1152.09,454.359 1153.44,454.853 1154.78,455.346 1156.13,455.839 1157.47,456.332 1158.82,456.826 1160.16,457.319 1161.51,457.812 1162.85,458.305 1164.2,458.799 1165.54,459.292 1166.88,459.785 1168.23,460.279 1169.57,460.772 1170.92,461.265 1172.26,461.758 1173.61,462.252 1174.95,462.745 1176.3,463.238 1177.64,463.732 1178.98,464.225 1180.33,464.718 1181.67,465.211 1183.02,465.705 1184.36,466.198 1185.71,466.691 1187.05,467.185 1188.4,467.678 1189.74,468.171 1191.08,468.664 1192.43,469.158 1193.77,469.651 1195.12,470.144 1196.46,470.638 1197.81,471.131 1199.15,471.624 1200.5,472.117 1201.84,472.611 1203.19,473.104 1204.53,473.597 1205.87,474.09 1207.22,474.584 1208.56,475.077 1209.91,475.57 1211.25,476.064 1212.6,476.557 1213.94,477.05 1215.29,477.543 1216.63,478.037 1217.97,478.53 1219.32,479.023 1220.66,479.517 1222.01,480.01 1223.35,480.503 1224.7,480.996 1226.04,481.49 1227.39,481.983 1228.73,482.476 1230.07,482.97 1231.42,483.463 1232.76,483.956 1234.11,484.449 1235.45,484.943 1236.8,485.436 1238.14,485.929 1239.49,486.423 1240.83,486.916 1242.18,487.409 1243.52,487.902 1244.86,488.396 1246.21,488.889 1247.55,489.382 1248.9,489.875 1250.24,490.369 1251.59,490.862 1252.93,491.355 1254.28,491.849 1255.62,492.342 1256.96,492.835 1258.31,493.328 1259.65,493.822 1261,494.315 1262.34,494.808 1263.69,495.302 1265.03,495.795 1266.38,496.288 1267.72,496.781 1269.06,497.275 1270.41,497.768 1271.75,498.261 1273.1,498.755 1274.44,499.248 1275.79,499.741 1277.13,500.234 1278.48,500.728 1279.82,501.221 1281.16,501.714 1282.51,502.208 1283.85,502.701 1285.2,503.194 1286.54,503.687 1287.89,504.181 1289.23,504.674 1290.58,505.167 1291.92,505.66 1293.27,506.154 1294.61,506.647 1295.95,507.14 1297.3,507.634 1298.64,508.127 1299.99,508.62 1301.33,509.113 1302.68,509.607 1304.02,510.1 1305.37,510.593 1306.71,511.087 1308.05,511.58 1309.4,512.073 1310.74,512.566 1312.09,513.06 1313.43,513.553 1314.78,514.046 1316.12,514.54 1317.47,515.033 1318.81,515.526 1320.15,516.019 1321.5,516.513 1322.84,517.006 1324.19,517.499 1325.53,517.993 1326.88,518.486 1328.22,518.979 1329.57,519.472 1330.91,519.966 1332.26,520.459 1333.6,520.952 1334.94,521.445 1336.29,521.939 1337.63,522.432 1338.98,522.925 1340.32,523.419 1341.67,523.912 1343.01,524.405 1344.36,524.898 1345.7,525.392 1347.04,525.885 1348.39,526.378 1349.73,526.872 1351.08,527.365 1352.42,527.858 1353.77,528.351 1355.11,528.845 1356.46,529.338 1357.8,529.831 1359.14,530.325 1360.49,530.818 1361.83,531.311 1363.18,531.804 1364.52,532.298 1365.87,532.791 1367.21,533.284 1368.56,533.778 1369.9,534.271 1371.25,534.764 1372.59,535.257 1373.93,535.751 1375.28,536.244 1376.62,536.737 1377.97,537.23 1379.31,537.724 1380.66,538.217 1382,538.71 1383.35,539.204 1384.69,539.697 1386.03,540.19 1387.38,540.683 1388.72,541.177 1390.07,541.67 1391.41,542.163 1392.76,542.657 1394.1,543.15 1395.45,543.643 1396.79,544.136 1398.13,544.63 1399.48,545.123 1400.82,545.616 1402.17,546.11 1403.51,546.603 1404.86,547.096 1406.2,547.589 1407.55,548.083 1408.89,548.576 1410.24,549.069 1411.58,549.563 1412.92,550.056 1414.27,550.549 1415.61,551.042 1416.96,551.536 1418.3,552.029 1419.65,552.522 1420.99,553.015 1422.34,553.509 1423.68,554.002 1425.02,554.495 1426.37,554.989 1427.71,555.482 1429.06,555.975 1430.4,556.468 1431.75,556.962 1433.09,557.455 1434.44,557.948 1435.78,558.442 1437.12,558.935 1438.47,559.428 1439.81,559.921 1441.16,560.415 1442.5,560.908 1443.85,561.401 1445.19,561.895 1446.54,562.388 1447.88,562.881 1449.22,563.374 1450.57,563.868 1451.91,564.361 1453.26,564.854 1454.6,565.347 1455.95,565.841 1457.29,566.334 1458.64,566.827 1459.98,567.321 1461.33,567.814 1462.67,568.307 1464.01,568.8 1465.36,569.294 1466.7,569.787 1468.05,570.28 1469.39,570.774 1470.74,571.267 1472.08,571.76 1473.43,572.253 1474.77,572.747 1476.11,573.24 1477.46,573.733 1478.8,574.227 1480.15,574.72 1481.49,575.213 1482.84,575.706 1484.18,576.2 1485.53,576.693 1486.87,577.186 1488.21,577.68 1489.56,578.173 1490.9,578.666 1492.25,579.159 1493.59,579.653 1494.94,580.146 1496.28,580.639 1497.63,581.132 1498.97,581.626 1500.32,582.119 1501.66,582.612 1503,583.106 1504.35,583.599 1505.69,584.092 1507.04,584.585 1508.38,585.079 1509.73,585.572 1511.07,586.065 1512.42,586.559 1513.76,587.052 1515.1,587.545 1516.45,588.038 1517.79,588.532 1519.14,589.025 1520.48,589.518 1521.83,590.012 1523.17,590.505 1524.52,590.998 1525.86,591.491 1527.2,591.985 1528.55,592.478 1529.89,592.971 1531.24,593.465 1532.58,593.958 1533.93,594.451 1535.27,594.944 1536.62,595.438 1537.96,595.931 1539.31,596.424 1540.65,596.917 1541.99,597.411 1543.34,597.904 1544.68,598.397 1546.03,598.891 1547.37,599.384 1548.72,599.877 1550.06,600.37 1551.41,600.864 1552.75,601.357 1554.09,601.85 1555.44,602.344 1556.78,602.837 1558.13,603.33 1559.47,603.823 1560.82,604.317 1562.16,604.81 1563.51,605.303 1564.85,605.797 1566.19,606.29 1567.54,606.783 1568.88,607.276 1570.23,607.77 1571.57,608.263 1572.92,608.756 1574.26,609.25 1575.61,609.743 1576.95,610.236 1578.3,610.729 1579.64,611.223 1580.98,611.716 1582.33,612.209 1583.67,612.702 1585.02,613.196 1586.36,613.689 1587.71,614.182 1589.05,614.676 1590.4,615.169 1591.74,615.662 1593.08,616.155 1594.43,616.649 1595.77,617.142 1597.12,617.635 1598.46,618.129 1599.81,618.622 1601.15,619.115 1602.5,619.608 1603.84,620.102 1605.18,620.595 1606.53,621.088 1607.87,621.582 1609.22,622.075 1610.56,622.568 1611.91,623.061 1613.25,623.555 1614.6,624.048 1615.94,624.541 1617.28,625.035 1618.63,625.528 1619.97,626.021 1621.32,626.514 1622.66,627.008 1624.01,627.501 1625.35,627.994 1626.7,628.487 1628.04,628.981 1629.39,629.474 1630.73,629.967 1632.07,630.461 1633.42,630.954 1634.76,631.447 1636.11,631.94 1637.45,632.434 1638.8,632.927 1640.14,633.42 1641.49,633.914 1642.83,634.407 1644.17,634.9 1645.52,635.393 1646.86,635.887 1648.21,636.38 1649.55,636.873 1650.9,637.367 1652.24,637.86 1653.59,638.353 1654.93,638.846 1656.27,639.34 1657.62,639.833 1658.96,640.326 1660.31,640.82 1661.65,641.313 1663,641.806 1664.34,642.299 1665.69,642.793 1667.03,643.286 1668.38,643.779 1669.72,644.272 1671.06,644.766 1672.41,645.259 1673.75,645.752 1675.1,646.246 1676.44,646.739 1677.79,647.232 1679.13,647.725 1680.48,648.219 1681.82,648.712 1683.16,649.205 1684.51,649.699 1685.85,650.192 1687.2,650.685 1688.54,651.178 1689.89,651.672 1691.23,652.165 1692.58,652.658 1693.92,653.152 1695.26,653.645 1696.61,654.138 1697.95,654.631 1699.3,655.125 1700.64,655.618 1701.99,656.111 1703.33,656.605 1704.68,657.098 1706.02,657.591 1707.37,658.084 1708.71,658.578 1710.05,659.071 1711.4,659.564 1712.74,660.057 1714.09,660.551 1715.43,661.044 1716.78,661.537 1718.12,662.031 1719.47,662.524 1720.81,663.017 1722.15,663.51 1723.5,664.004 1724.84,664.497 1726.19,664.99 1727.53,665.484 1728.88,665.977 1730.22,666.47 1731.57,666.963 1732.91,667.457 1734.25,667.95 1735.6,668.443 1736.94,668.937 1738.29,669.43 1739.63,669.923 1740.98,670.416 1742.32,670.91 1743.67,671.403 1745.01,671.896 1746.36,672.389 1747.7,672.883 1749.04,673.376 1750.39,673.869 1751.73,674.363 1753.08,674.856 1754.42,675.349 1755.77,675.842 1757.11,676.336 1758.46,676.829 1759.8,677.322 1761.14,677.816 1762.49,678.309 1763.83,678.802 1765.18,679.295 1766.52,679.789 1767.87,680.282 1769.21,680.775 1770.56,681.269 1771.9,681.762 1773.24,682.255 1774.59,682.748 1775.93,683.242 1777.28,683.735 1778.62,684.228 1779.97,684.722 1781.31,685.215 1782.66,685.708 1784,686.201 1785.34,686.695 1786.69,687.188 1788.03,687.681 1789.38,688.174 1790.72,688.668 1792.07,689.161 1793.41,689.654 1794.76,690.148 1796.1,690.641 1797.45,691.134 1798.79,691.627 1800.13,692.121 1801.48,692.614 1802.82,693.107 1804.17,693.601 1805.51,694.094 1806.86,694.587 1808.2,695.08 1809.55,695.574 1810.89,696.067 1812.23,696.56 1813.58,697.054 1814.92,697.547 1816.27,698.04 1817.61,698.533 1818.96,699.027 1820.3,699.52 1821.65,700.013 1822.99,700.507 1824.33,701 1825.68,701.493 1827.02,701.986 1828.37,702.48 1829.71,702.973 1831.06,703.466 1832.4,703.959 1833.75,704.453 1835.09,704.946 1836.44,705.439 1837.78,705.933 1839.12,706.426 1840.47,706.919 1841.81,707.412 1843.16,707.906 1844.5,708.399 1845.85,708.892 1847.19,709.386 1848.54,709.879 1849.88,710.372 1851.22,710.865 1852.57,711.359 1853.91,711.852 1855.26,712.345 1856.6,712.839 1857.95,713.332 1859.29,713.825 1860.64,714.318 1861.98,714.812 1863.32,715.305 1864.67,715.798 1866.01,716.292 1867.36,716.785 1868.7,717.278 1870.05,717.771 1871.39,718.265 1872.74,718.758 1874.08,719.251 1875.43,719.744 1876.77,720.238 1878.11,720.731 1879.46,721.224 1880.8,721.718 1882.15,722.211 1883.49,722.704 1884.84,723.197 1886.18,723.691 1887.53,724.184 1888.87,724.677 1890.21,725.171 1891.56,725.664 1892.9,726.157 1894.25,726.65 1895.59,727.144 1896.94,727.637 1898.28,728.13 1899.63,728.624 1900.97,729.117 1902.31,729.61 1903.66,730.103 1905,730.597 1906.35,731.09 1907.69,731.583 1909.04,732.077 1910.38,732.57 1911.73,733.063 1913.07,733.556 1914.42,734.05 1915.76,734.543 1917.1,735.036 1918.45,735.529 1919.79,736.023 1921.14,736.516 1922.48,737.009 1923.83,737.503 1925.17,737.996 1926.52,738.489 1927.86,738.982 1929.2,739.476 1930.55,739.969 1931.89,740.462 1933.24,740.956 1934.58,741.449 1935.93,741.942 1937.27,742.435 1938.62,742.929 1939.96,743.422 1941.3,743.915 1942.65,744.409 1943.99,744.902 1945.34,745.395 1946.68,745.888 1948.03,746.382 1949.37,746.875 1950.72,747.368 1952.06,747.862 1953.4,748.355 1954.75,748.848 1956.09,749.341 1957.44,749.835 1958.78,750.328 1960.13,750.821 1961.47,751.314 1962.82,751.808 1964.16,752.301 1965.51,752.794 1966.85,753.288 1968.19,753.781 1969.54,754.274 1970.88,754.767 1972.23,755.261 1973.57,755.754 1974.92,756.247 1976.26,756.741 1977.61,757.234 1978.95,757.727 1980.29,758.22 1981.64,758.714 1982.98,759.207 1984.33,759.7 1985.67,760.194 1987.02,760.687 1988.36,761.18 1989.71,761.673 1991.05,762.167 1992.39,762.66 1993.74,763.153 1995.08,763.647 1996.43,764.14 1997.77,764.633 1999.12,765.126 2000.46,765.62 2001.81,766.113 2003.15,766.606 2004.5,767.099 2005.84,767.593 2007.18,768.086 2008.53,768.579 2009.87,769.073 2011.22,769.566 2012.56,770.059 2013.91,770.552 2015.25,771.046 2016.6,771.539 2017.94,772.032 2019.28,772.526 2020.63,773.019 2021.97,773.512 2023.32,774.005 2024.66,774.499 2026.01,774.992 2027.35,775.485 2028.7,775.979 2030.04,776.472 2031.38,776.965 2032.73,777.458 2034.07,777.952 2035.42,778.445 2036.76,778.938 2038.11,779.431 2039.45,779.925 2040.8,780.418 2042.14,780.911 2043.49,781.405 2044.83,781.898 2046.17,782.391 2047.52,782.884 2048.86,783.378 2050.21,783.871 2051.55,784.364 2052.9,784.858 2054.24,785.351 2055.59,785.844 2056.93,786.337 2058.27,786.831 2059.62,787.324 2060.96,787.817 2062.31,788.311 2063.65,788.804 2065,789.297 2066.34,789.79 2067.69,790.284 2069.03,790.777 2070.37,791.27 2071.72,791.764 2073.06,792.257 2074.41,792.75 2075.75,793.243 2077.1,793.737 2078.44,794.23 2079.79,794.723 2081.13,795.216 2082.48,795.71 2083.82,796.203 2085.16,796.696 2086.51,797.19 2087.85,797.683 2089.2,798.176 2090.54,798.669 2091.89,799.163 2093.23,799.656 2094.58,800.149 2095.92,800.643 2097.26,801.136 2098.61,801.629 2099.95,802.122 2101.3,802.616 2102.64,803.109 2103.99,803.602 2105.33,804.096 2106.68,804.589 2108.02,805.082 2109.36,805.575 2110.71,806.069 2112.05,806.562 2113.4,807.055 2114.74,807.549 2116.09,808.042 2117.43,808.535 2118.78,809.028 2120.12,809.522 2121.47,810.015 2122.81,810.508 2124.15,811.001 2125.5,811.495 2126.84,811.988 2128.19,812.481 2129.53,812.975 2130.88,813.468 2132.22,813.961 2133.57,814.454 2134.91,814.948 2136.25,815.441 2137.6,815.934 2138.94,816.428 2140.29,816.921 2141.63,817.414 2142.98,817.907 2144.32,818.401 2145.67,818.894 2147.01,819.387 2148.35,819.881 2149.7,820.374 2151.04,820.867 2152.39,821.36 2153.73,821.854 2155.08,822.347 2156.42,822.84 2157.77,823.334 2159.11,823.827 2160.45,824.32 2161.8,824.813 2163.14,825.307 2164.49,825.8 2165.83,826.293 2167.18,826.786 2168.52,827.28 2169.87,827.773 2171.21,828.266 2172.56,828.76 2173.9,829.253 2175.24,829.746 2176.59,830.239 2177.93,830.733 2179.28,831.226 2180.62,831.719 2181.97,832.213 2183.31,832.706 2184.66,833.199 2186,833.692 2187.34,834.186 2188.69,834.679 2190.03,835.172 2191.38,835.666 2192.72,836.159 2194.07,836.652 2195.41,837.145 2196.76,837.639 2198.1,838.132 2199.44,838.625 2200.79,839.119 2202.13,839.612 2203.48,840.105 2204.82,840.598 2206.17,841.092 2207.51,841.585 2208.86,842.078 2210.2,842.571 2211.55,843.065 2212.89,843.558 2214.23,844.051 2215.58,844.545 2216.92,845.038 2218.27,845.531 2219.61,846.024 2220.96,846.518 2222.3,847.011 2223.65,847.504 2224.99,847.998 2226.33,848.491 2227.68,848.984 2229.02,849.477 2230.37,849.971 2231.71,850.464 2233.06,850.957 2234.4,851.451 2235.75,851.944 2237.09,852.437 2238.43,852.93 2239.78,853.424 2241.12,853.917 2242.47,854.41 2243.81,854.904 2245.16,855.397 2246.5,855.89 2247.85,856.383 2249.19,856.877 2250.54,857.37 2251.88,857.863 2253.22,858.356 2254.57,858.85 2255.91,859.343 2257.26,859.836 2258.6,860.33 2259.95,860.823 2261.29,861.316 2262.64,861.809 2263.98,862.303 2265.32,862.796 2266.67,863.289 2268.01,863.783 2269.36,864.276 2270.7,864.769 2272.05,865.262 2273.39,865.756 2274.74,866.249 2276.08,866.742 2277.42,867.236 2278.77,867.729 2280.11,868.222 2281.46,868.715 2282.8,869.209 2284.15,869.702 2285.49,870.195 2286.84,870.689 2288.18,871.182 2289.53,871.675 2290.87,872.168 2292.21,872.662 "/>
<path clip-path="url(#clip380)" d="M1398.44 250.738 L2281.45 250.738 L2281.45 95.2176 L1398.44 95.2176  Z" fill="#ffffff" fill-rule="evenodd" fill-opacity="1"/>
<polyline clip-path="url(#clip380)" style="stroke:#000000; stroke-linecap:round; stroke-linejoin:round; stroke-width:4; stroke-opacity:1; fill:none" points="1398.44,250.738 2281.45,250.738 2281.45,95.2176 1398.44,95.2176 1398.44,250.738 "/>
<polyline clip-path="url(#clip380)" style="stroke:#009af9; stroke-linecap:round; stroke-linejoin:round; stroke-width:4; stroke-opacity:1; fill:none" points="1422.21,147.058 1564.82,147.058 "/>
<path clip-path="url(#clip380)" d="M1588.59 129.778 L1610.44 129.778 L1610.44 133.713 L1593.26 133.713 L1593.26 143.944 L1609.72 143.944 L1609.72 147.879 L1593.26 147.879 L1593.26 160.402 L1610.86 160.402 L1610.86 164.338 L1588.59 164.338 L1588.59 129.778 Z" fill="#000000" fill-rule="nonzero" fill-opacity="1" /><path clip-path="url(#clip380)" d="M1639.91 138.412 L1630.53 151.027 L1640.39 164.338 L1635.37 164.338 L1627.82 154.152 L1620.28 164.338 L1615.26 164.338 L1625.32 150.773 L1616.11 138.412 L1621.14 138.412 L1628.01 147.648 L1634.89 138.412 L1639.91 138.412 Z" fill="#000000" fill-rule="nonzero" fill-opacity="1" /><path clip-path="url(#clip380)" d="M1683.66 150.31 L1683.66 152.393 L1664.07 152.393 Q1664.35 156.791 1666.71 159.106 Q1669.1 161.398 1673.33 161.398 Q1675.79 161.398 1678.08 160.796 Q1680.39 160.194 1682.66 158.99 L1682.66 163.018 Q1680.37 163.99 1677.96 164.5 Q1675.56 165.009 1673.08 165.009 Q1666.88 165.009 1663.24 161.398 Q1659.63 157.787 1659.63 151.629 Q1659.63 145.264 1663.06 141.537 Q1666.51 137.787 1672.34 137.787 Q1677.57 137.787 1680.6 141.166 Q1683.66 144.523 1683.66 150.31 M1679.4 149.06 Q1679.35 145.565 1677.43 143.481 Q1675.53 141.398 1672.38 141.398 Q1668.82 141.398 1666.67 143.412 Q1664.54 145.426 1664.21 149.083 L1679.4 149.06 Z" fill="#000000" fill-rule="nonzero" fill-opacity="1" /><path clip-path="url(#clip380)" d="M1712.2 148.689 L1712.2 164.338 L1707.94 164.338 L1707.94 148.828 Q1707.94 145.148 1706.51 143.319 Q1705.07 141.49 1702.2 141.49 Q1698.75 141.49 1696.76 143.69 Q1694.77 145.889 1694.77 149.685 L1694.77 164.338 L1690.49 164.338 L1690.49 138.412 L1694.77 138.412 L1694.77 142.44 Q1696.3 140.102 1698.36 138.944 Q1700.44 137.787 1703.15 137.787 Q1707.62 137.787 1709.91 140.565 Q1712.2 143.319 1712.2 148.689 Z" fill="#000000" fill-rule="nonzero" fill-opacity="1" /><path clip-path="url(#clip380)" d="M1742.87 150.31 L1742.87 152.393 L1723.29 152.393 Q1723.57 156.791 1725.93 159.106 Q1728.31 161.398 1732.55 161.398 Q1735 161.398 1737.29 160.796 Q1739.61 160.194 1741.88 158.99 L1741.88 163.018 Q1739.58 163.99 1737.18 164.5 Q1734.77 165.009 1732.29 165.009 Q1726.09 165.009 1722.45 161.398 Q1718.84 157.787 1718.84 151.629 Q1718.84 145.264 1722.27 141.537 Q1725.72 137.787 1731.55 137.787 Q1736.78 137.787 1739.82 141.166 Q1742.87 144.523 1742.87 150.31 M1738.61 149.06 Q1738.57 145.565 1736.64 143.481 Q1734.75 141.398 1731.6 141.398 Q1728.03 141.398 1725.88 143.412 Q1723.75 145.426 1723.43 149.083 L1738.61 149.06 Z" fill="#000000" fill-rule="nonzero" fill-opacity="1" /><path clip-path="url(#clip380)" d="M1764.88 142.393 Q1764.17 141.977 1763.31 141.791 Q1762.48 141.583 1761.46 141.583 Q1757.85 141.583 1755.9 143.944 Q1753.98 146.282 1753.98 150.68 L1753.98 164.338 L1749.7 164.338 L1749.7 138.412 L1753.98 138.412 L1753.98 142.44 Q1755.32 140.078 1757.48 138.944 Q1759.63 137.787 1762.71 137.787 Q1763.15 137.787 1763.68 137.856 Q1764.21 137.903 1764.86 138.018 L1764.88 142.393 Z" fill="#000000" fill-rule="nonzero" fill-opacity="1" /><path clip-path="url(#clip380)" d="M1785.58 151.074 Q1785.58 146.444 1783.66 143.898 Q1781.76 141.352 1778.31 141.352 Q1774.88 141.352 1772.96 143.898 Q1771.06 146.444 1771.06 151.074 Q1771.06 155.68 1772.96 158.226 Q1774.88 160.773 1778.31 160.773 Q1781.76 160.773 1783.66 158.226 Q1785.58 155.68 1785.58 151.074 M1789.84 161.12 Q1789.84 167.74 1786.9 170.958 Q1783.96 174.199 1777.89 174.199 Q1775.65 174.199 1773.66 173.851 Q1771.67 173.527 1769.79 172.833 L1769.79 168.689 Q1771.67 169.708 1773.5 170.194 Q1775.32 170.68 1777.22 170.68 Q1781.41 170.68 1783.5 168.481 Q1785.58 166.305 1785.58 161.884 L1785.58 159.777 Q1784.26 162.069 1782.2 163.203 Q1780.14 164.338 1777.27 164.338 Q1772.5 164.338 1769.58 160.703 Q1766.67 157.069 1766.67 151.074 Q1766.67 145.055 1769.58 141.421 Q1772.5 137.787 1777.27 137.787 Q1780.14 137.787 1782.2 138.921 Q1784.26 140.055 1785.58 142.347 L1785.58 138.412 L1789.84 138.412 L1789.84 161.12 Z" fill="#000000" fill-rule="nonzero" fill-opacity="1" /><path clip-path="url(#clip380)" d="M1809.4 166.745 Q1807.59 171.375 1805.88 172.787 Q1804.17 174.199 1801.3 174.199 L1797.89 174.199 L1797.89 170.634 L1800.39 170.634 Q1802.15 170.634 1803.12 169.8 Q1804.1 168.967 1805.28 165.865 L1806.04 163.921 L1795.56 138.412 L1800.07 138.412 L1808.17 158.689 L1816.27 138.412 L1820.79 138.412 L1809.4 166.745 Z" fill="#000000" fill-rule="nonzero" fill-opacity="1" /><polyline clip-path="url(#clip380)" style="stroke:#e26f46; stroke-linecap:round; stroke-linejoin:round; stroke-width:4; stroke-opacity:1; fill:none" points="1422.21,198.898 1564.82,198.898 "/>
<path clip-path="url(#clip380)" d="M1607.5 202.914 Q1607.5 198.284 1605.58 195.738 Q1603.68 193.192 1600.23 193.192 Q1596.81 193.192 1594.89 195.738 Q1592.99 198.284 1592.99 202.914 Q1592.99 207.52 1594.89 210.066 Q1596.81 212.613 1600.23 212.613 Q1603.68 212.613 1605.58 210.066 Q1607.5 207.52 1607.5 202.914 M1611.76 212.96 Q1611.76 219.58 1608.82 222.798 Q1605.88 226.039 1599.82 226.039 Q1597.57 226.039 1595.58 225.691 Q1593.59 225.367 1591.71 224.673 L1591.71 220.529 Q1593.59 221.548 1595.42 222.034 Q1597.25 222.52 1599.14 222.52 Q1603.33 222.52 1605.42 220.321 Q1607.5 218.145 1607.5 213.724 L1607.5 211.617 Q1606.18 213.909 1604.12 215.043 Q1602.06 216.178 1599.19 216.178 Q1594.42 216.178 1591.51 212.543 Q1588.59 208.909 1588.59 202.914 Q1588.59 196.895 1591.51 193.261 Q1594.42 189.627 1599.19 189.627 Q1602.06 189.627 1604.12 190.761 Q1606.18 191.895 1607.5 194.187 L1607.5 190.252 L1611.76 190.252 L1611.76 212.96 Z" fill="#000000" fill-rule="nonzero" fill-opacity="1" /><path clip-path="url(#clip380)" d="M1636.16 194.65 L1665.83 194.65 L1665.83 198.539 L1636.16 198.539 L1636.16 194.65 M1636.16 204.094 L1665.83 204.094 L1665.83 208.029 L1636.16 208.029 L1636.16 204.094 Z" fill="#000000" fill-rule="nonzero" fill-opacity="1" /><path clip-path="url(#clip380)" d="M1688.24 201.293 L1700.72 201.293 L1700.72 205.09 L1688.24 205.09 L1688.24 201.293 Z" fill="#000000" fill-rule="nonzero" fill-opacity="1" /><path clip-path="url(#clip380)" d="M1718.1 184.696 Q1714.49 184.696 1712.66 188.261 Q1710.86 191.803 1710.86 198.932 Q1710.86 206.039 1712.66 209.604 Q1714.49 213.145 1718.1 213.145 Q1721.74 213.145 1723.54 209.604 Q1725.37 206.039 1725.37 198.932 Q1725.37 191.803 1723.54 188.261 Q1721.74 184.696 1718.1 184.696 M1718.1 180.993 Q1723.91 180.993 1726.97 185.599 Q1730.05 190.182 1730.05 198.932 Q1730.05 207.659 1726.97 212.266 Q1723.91 216.849 1718.1 216.849 Q1712.29 216.849 1709.21 212.266 Q1706.16 207.659 1706.16 198.932 Q1706.16 190.182 1709.21 185.599 Q1712.29 180.993 1718.1 180.993 Z" fill="#000000" fill-rule="nonzero" fill-opacity="1" /><path clip-path="url(#clip380)" d="M1738.26 210.298 L1743.15 210.298 L1743.15 216.178 L1738.26 216.178 L1738.26 210.298 Z" fill="#000000" fill-rule="nonzero" fill-opacity="1" /><path clip-path="url(#clip380)" d="M1763.33 184.696 Q1759.72 184.696 1757.89 188.261 Q1756.09 191.803 1756.09 198.932 Q1756.09 206.039 1757.89 209.604 Q1759.72 213.145 1763.33 213.145 Q1766.97 213.145 1768.77 209.604 Q1770.6 206.039 1770.6 198.932 Q1770.6 191.803 1768.77 188.261 Q1766.97 184.696 1763.33 184.696 M1763.33 180.993 Q1769.14 180.993 1772.2 185.599 Q1775.28 190.182 1775.28 198.932 Q1775.28 207.659 1772.2 212.266 Q1769.14 216.849 1763.33 216.849 Q1757.52 216.849 1754.44 212.266 Q1751.39 207.659 1751.39 198.932 Q1751.39 190.182 1754.44 185.599 Q1757.52 180.993 1763.33 180.993 Z" fill="#000000" fill-rule="nonzero" fill-opacity="1" /><path clip-path="url(#clip380)" d="M1782.31 181.618 L1804.54 181.618 L1804.54 183.608 L1791.99 216.178 L1787.11 216.178 L1798.91 185.553 L1782.31 185.553 L1782.31 181.618 Z" fill="#000000" fill-rule="nonzero" fill-opacity="1" /><path clip-path="url(#clip380)" d="M1817.68 212.242 L1834 212.242 L1834 216.178 L1812.06 216.178 L1812.06 212.242 Q1814.72 209.488 1819.31 204.858 Q1823.91 200.205 1825.09 198.863 Q1827.34 196.34 1828.22 194.604 Q1829.12 192.844 1829.12 191.155 Q1829.12 188.4 1827.18 186.664 Q1825.25 184.928 1822.15 184.928 Q1819.95 184.928 1817.5 185.692 Q1815.07 186.455 1812.29 188.006 L1812.29 183.284 Q1815.12 182.15 1817.57 181.571 Q1820.02 180.993 1822.06 180.993 Q1827.43 180.993 1830.62 183.678 Q1833.82 186.363 1833.82 190.854 Q1833.82 192.983 1833.01 194.905 Q1832.22 196.803 1830.12 199.395 Q1829.54 200.067 1826.43 203.284 Q1823.33 206.479 1817.68 212.242 Z" fill="#000000" fill-rule="nonzero" fill-opacity="1" /><path clip-path="url(#clip380)" d="M1857.99 197.543 Q1861.34 198.261 1863.22 200.529 Q1865.12 202.798 1865.12 206.131 Q1865.12 211.247 1861.6 214.048 Q1858.08 216.849 1851.6 216.849 Q1849.42 216.849 1847.11 216.409 Q1844.81 215.992 1842.36 215.136 L1842.36 210.622 Q1844.31 211.756 1846.62 212.335 Q1848.93 212.914 1851.46 212.914 Q1855.86 212.914 1858.15 211.178 Q1860.46 209.441 1860.46 206.131 Q1860.46 203.076 1858.31 201.363 Q1856.18 199.627 1852.36 199.627 L1848.33 199.627 L1848.33 195.784 L1852.55 195.784 Q1855.99 195.784 1857.82 194.418 Q1859.65 193.03 1859.65 190.437 Q1859.65 187.775 1857.75 186.363 Q1855.88 184.928 1852.36 184.928 Q1850.44 184.928 1848.24 185.344 Q1846.04 185.761 1843.4 186.641 L1843.4 182.474 Q1846.06 181.733 1848.38 181.363 Q1850.72 180.993 1852.78 180.993 Q1858.1 180.993 1861.2 183.423 Q1864.31 185.83 1864.31 189.951 Q1864.31 192.821 1862.66 194.812 Q1861.02 196.78 1857.99 197.543 Z" fill="#000000" fill-rule="nonzero" fill-opacity="1" /><path clip-path="url(#clip380)" d="M1883.98 184.696 Q1880.37 184.696 1878.54 188.261 Q1876.74 191.803 1876.74 198.932 Q1876.74 206.039 1878.54 209.604 Q1880.37 213.145 1883.98 213.145 Q1887.62 213.145 1889.42 209.604 Q1891.25 206.039 1891.25 198.932 Q1891.25 191.803 1889.42 188.261 Q1887.62 184.696 1883.98 184.696 M1883.98 180.993 Q1889.79 180.993 1892.85 185.599 Q1895.93 190.182 1895.93 198.932 Q1895.93 207.659 1892.85 212.266 Q1889.79 216.849 1883.98 216.849 Q1878.17 216.849 1875.09 212.266 Q1872.04 207.659 1872.04 198.932 Q1872.04 190.182 1875.09 185.599 Q1878.17 180.993 1883.98 180.993 Z" fill="#000000" fill-rule="nonzero" fill-opacity="1" /><path clip-path="url(#clip380)" d="M1914.14 184.696 Q1910.53 184.696 1908.7 188.261 Q1906.9 191.803 1906.9 198.932 Q1906.9 206.039 1908.7 209.604 Q1910.53 213.145 1914.14 213.145 Q1917.78 213.145 1919.58 209.604 Q1921.41 206.039 1921.41 198.932 Q1921.41 191.803 1919.58 188.261 Q1917.78 184.696 1914.14 184.696 M1914.14 180.993 Q1919.95 180.993 1923.01 185.599 Q1926.09 190.182 1926.09 198.932 Q1926.09 207.659 1923.01 212.266 Q1919.95 216.849 1914.14 216.849 Q1908.33 216.849 1905.25 212.266 Q1902.2 207.659 1902.2 198.932 Q1902.2 190.182 1905.25 185.599 Q1908.33 180.993 1914.14 180.993 Z" fill="#000000" fill-rule="nonzero" fill-opacity="1" /><path clip-path="url(#clip380)" d="M1933.12 181.618 L1955.35 181.618 L1955.35 183.608 L1942.8 216.178 L1937.92 216.178 L1949.72 185.553 L1933.12 185.553 L1933.12 181.618 Z" fill="#000000" fill-rule="nonzero" fill-opacity="1" /><path clip-path="url(#clip380)" d="M1968.49 212.242 L1984.81 212.242 L1984.81 216.178 L1962.87 216.178 L1962.87 212.242 Q1965.53 209.488 1970.11 204.858 Q1974.72 200.205 1975.9 198.863 Q1978.15 196.34 1979.03 194.604 Q1979.93 192.844 1979.93 191.155 Q1979.93 188.4 1977.99 186.664 Q1976.06 184.928 1972.96 184.928 Q1970.76 184.928 1968.31 185.692 Q1965.88 186.455 1963.1 188.006 L1963.1 183.284 Q1965.92 182.15 1968.38 181.571 Q1970.83 180.993 1972.87 180.993 Q1978.24 180.993 1981.43 183.678 Q1984.63 186.363 1984.63 190.854 Q1984.63 192.983 1983.82 194.905 Q1983.03 196.803 1980.92 199.395 Q1980.35 200.067 1977.24 203.284 Q1974.14 206.479 1968.49 212.242 Z" fill="#000000" fill-rule="nonzero" fill-opacity="1" /><path clip-path="url(#clip380)" d="M2007.48 185.692 L1995.67 204.141 L2007.48 204.141 L2007.48 185.692 M2006.25 181.618 L2012.13 181.618 L2012.13 204.141 L2017.06 204.141 L2017.06 208.029 L2012.13 208.029 L2012.13 216.178 L2007.48 216.178 L2007.48 208.029 L1991.87 208.029 L1991.87 203.516 L2006.25 181.618 Z" fill="#000000" fill-rule="nonzero" fill-opacity="1" /><path clip-path="url(#clip380)" d="M2024.93 215.46 L2024.93 211.201 Q2026.69 212.034 2028.49 212.474 Q2030.3 212.914 2032.04 212.914 Q2036.67 212.914 2039.1 209.812 Q2041.55 206.687 2041.9 200.344 Q2040.55 202.335 2038.49 203.4 Q2036.43 204.465 2033.93 204.465 Q2028.75 204.465 2025.72 201.34 Q2022.71 198.192 2022.71 192.752 Q2022.71 187.428 2025.86 184.21 Q2029 180.993 2034.23 180.993 Q2040.23 180.993 2043.38 185.599 Q2046.55 190.182 2046.55 198.932 Q2046.55 207.104 2042.66 211.988 Q2038.79 216.849 2032.24 216.849 Q2030.48 216.849 2028.68 216.502 Q2026.87 216.154 2024.93 215.46 M2034.23 200.807 Q2037.38 200.807 2039.21 198.654 Q2041.06 196.502 2041.06 192.752 Q2041.06 189.025 2039.21 186.872 Q2037.38 184.696 2034.23 184.696 Q2031.09 184.696 2029.23 186.872 Q2027.41 189.025 2027.41 192.752 Q2027.41 196.502 2029.23 198.654 Q2031.09 200.807 2034.23 200.807 Z" fill="#000000" fill-rule="nonzero" fill-opacity="1" /><path clip-path="url(#clip380)" d="M2064.95 199.766 Q2061.62 199.766 2059.7 201.548 Q2057.8 203.33 2057.8 206.455 Q2057.8 209.58 2059.7 211.363 Q2061.62 213.145 2064.95 213.145 Q2068.29 213.145 2070.21 211.363 Q2072.13 209.557 2072.13 206.455 Q2072.13 203.33 2070.21 201.548 Q2068.31 199.766 2064.95 199.766 M2060.28 197.775 Q2057.27 197.034 2055.58 194.974 Q2053.91 192.914 2053.91 189.951 Q2053.91 185.807 2056.85 183.4 Q2059.81 180.993 2064.95 180.993 Q2070.11 180.993 2073.05 183.4 Q2075.99 185.807 2075.99 189.951 Q2075.99 192.914 2074.3 194.974 Q2072.64 197.034 2069.65 197.775 Q2073.03 198.562 2074.91 200.854 Q2076.8 203.145 2076.8 206.455 Q2076.8 211.479 2073.73 214.164 Q2070.67 216.849 2064.95 216.849 Q2059.23 216.849 2056.16 214.164 Q2053.1 211.479 2053.1 206.455 Q2053.1 203.145 2055 200.854 Q2056.9 198.562 2060.28 197.775 M2058.56 190.391 Q2058.56 193.076 2060.23 194.58 Q2061.92 196.085 2064.95 196.085 Q2067.96 196.085 2069.65 194.58 Q2071.36 193.076 2071.36 190.391 Q2071.36 187.705 2069.65 186.201 Q2067.96 184.696 2064.95 184.696 Q2061.92 184.696 2060.23 186.201 Q2058.56 187.705 2058.56 190.391 Z" fill="#000000" fill-rule="nonzero" fill-opacity="1" /><path clip-path="url(#clip380)" d="M2085.16 181.618 L2103.52 181.618 L2103.52 185.553 L2089.44 185.553 L2089.44 194.025 Q2090.46 193.678 2091.48 193.516 Q2092.5 193.33 2093.52 193.33 Q2099.3 193.33 2102.68 196.502 Q2106.06 199.673 2106.06 205.09 Q2106.06 210.668 2102.59 213.77 Q2099.12 216.849 2092.8 216.849 Q2090.62 216.849 2088.35 216.478 Q2086.11 216.108 2083.7 215.367 L2083.7 210.668 Q2085.79 211.803 2088.01 212.358 Q2090.23 212.914 2092.71 212.914 Q2096.71 212.914 2099.05 210.807 Q2101.39 208.701 2101.39 205.09 Q2101.39 201.479 2099.05 199.372 Q2096.71 197.266 2092.71 197.266 Q2090.83 197.266 2088.96 197.682 Q2087.1 198.099 2085.16 198.979 L2085.16 181.618 Z" fill="#000000" fill-rule="nonzero" fill-opacity="1" /><path clip-path="url(#clip380)" d="M2129.44 197.543 Q2132.8 198.261 2134.67 200.529 Q2136.57 202.798 2136.57 206.131 Q2136.57 211.247 2133.05 214.048 Q2129.54 216.849 2123.05 216.849 Q2120.88 216.849 2118.56 216.409 Q2116.27 215.992 2113.82 215.136 L2113.82 210.622 Q2115.76 211.756 2118.08 212.335 Q2120.39 212.914 2122.91 212.914 Q2127.31 212.914 2129.6 211.178 Q2131.92 209.441 2131.92 206.131 Q2131.92 203.076 2129.77 201.363 Q2127.64 199.627 2123.82 199.627 L2119.79 199.627 L2119.79 195.784 L2124 195.784 Q2127.45 195.784 2129.28 194.418 Q2131.11 193.03 2131.11 190.437 Q2131.11 187.775 2129.21 186.363 Q2127.34 184.928 2123.82 184.928 Q2121.9 184.928 2119.7 185.344 Q2117.5 185.761 2114.86 186.641 L2114.86 182.474 Q2117.52 181.733 2119.84 181.363 Q2122.17 180.993 2124.23 180.993 Q2129.56 180.993 2132.66 183.423 Q2135.76 185.83 2135.76 189.951 Q2135.76 192.821 2134.12 194.812 Q2132.47 196.78 2129.44 197.543 Z" fill="#000000" fill-rule="nonzero" fill-opacity="1" /><path clip-path="url(#clip380)" d="M2146.25 212.242 L2153.89 212.242 L2153.89 185.877 L2145.58 187.543 L2145.58 183.284 L2153.84 181.618 L2158.52 181.618 L2158.52 212.242 L2166.16 212.242 L2166.16 216.178 L2146.25 216.178 L2146.25 212.242 Z" fill="#000000" fill-rule="nonzero" fill-opacity="1" /><path clip-path="url(#clip380)" d="M2186.18 197.034 Q2183.03 197.034 2181.18 199.187 Q2179.35 201.34 2179.35 205.09 Q2179.35 208.816 2181.18 210.992 Q2183.03 213.145 2186.18 213.145 Q2189.33 213.145 2191.16 210.992 Q2193.01 208.816 2193.01 205.09 Q2193.01 201.34 2191.16 199.187 Q2189.33 197.034 2186.18 197.034 M2195.46 182.381 L2195.46 186.641 Q2193.7 185.807 2191.9 185.368 Q2190.11 184.928 2188.35 184.928 Q2183.72 184.928 2181.27 188.053 Q2178.84 191.178 2178.49 197.497 Q2179.86 195.483 2181.92 194.418 Q2183.98 193.33 2186.46 193.33 Q2191.66 193.33 2194.67 196.502 Q2197.71 199.65 2197.71 205.09 Q2197.71 210.414 2194.56 213.631 Q2191.41 216.849 2186.18 216.849 Q2180.18 216.849 2177.01 212.266 Q2173.84 207.659 2173.84 198.932 Q2173.84 190.738 2177.73 185.877 Q2181.62 180.993 2188.17 180.993 Q2189.93 180.993 2191.71 181.34 Q2193.52 181.687 2195.46 182.381 Z" fill="#000000" fill-rule="nonzero" fill-opacity="1" /><path clip-path="url(#clip380)" d="M2205.9 215.46 L2205.9 211.201 Q2207.66 212.034 2209.47 212.474 Q2211.27 212.914 2213.01 212.914 Q2217.64 212.914 2220.07 209.812 Q2222.52 206.687 2222.87 200.344 Q2221.53 202.335 2219.47 203.4 Q2217.41 204.465 2214.91 204.465 Q2209.72 204.465 2206.69 201.34 Q2203.68 198.192 2203.68 192.752 Q2203.68 187.428 2206.83 184.21 Q2209.97 180.993 2215.21 180.993 Q2221.2 180.993 2224.35 185.599 Q2227.52 190.182 2227.52 198.932 Q2227.52 207.104 2223.63 211.988 Q2219.77 216.849 2213.22 216.849 Q2211.46 216.849 2209.65 216.502 Q2207.84 216.154 2205.9 215.46 M2215.21 200.807 Q2218.35 200.807 2220.18 198.654 Q2222.03 196.502 2222.03 192.752 Q2222.03 189.025 2220.18 186.872 Q2218.35 184.696 2215.21 184.696 Q2212.06 184.696 2210.21 186.872 Q2208.38 189.025 2208.38 192.752 Q2208.38 196.502 2210.21 198.654 Q2212.06 200.807 2215.21 200.807 Z" fill="#000000" fill-rule="nonzero" fill-opacity="1" /><path clip-path="url(#clip380)" d="M2236.06 215.46 L2236.06 211.201 Q2237.82 212.034 2239.63 212.474 Q2241.43 212.914 2243.17 212.914 Q2247.8 212.914 2250.23 209.812 Q2252.68 206.687 2253.03 200.344 Q2251.69 202.335 2249.63 203.4 Q2247.57 204.465 2245.07 204.465 Q2239.88 204.465 2236.85 201.34 Q2233.84 198.192 2233.84 192.752 Q2233.84 187.428 2236.99 184.21 Q2240.14 180.993 2245.37 180.993 Q2251.36 180.993 2254.51 185.599 Q2257.68 190.182 2257.68 198.932 Q2257.68 207.104 2253.79 211.988 Q2249.93 216.849 2243.38 216.849 Q2241.62 216.849 2239.81 216.502 Q2238.01 216.154 2236.06 215.46 M2245.37 200.807 Q2248.52 200.807 2250.34 198.654 Q2252.2 196.502 2252.2 192.752 Q2252.2 189.025 2250.34 186.872 Q2248.52 184.696 2245.37 184.696 Q2242.22 184.696 2240.37 186.872 Q2238.54 189.025 2238.54 192.752 Q2238.54 196.502 2240.37 198.654 Q2242.22 200.807 2245.37 200.807 Z" fill="#000000" fill-rule="nonzero" fill-opacity="1" /></svg>
